<?xml version="1.0" standalone="no"?>
<!DOCTYPE svg PUBLIC "-//W3C//DTD SVG 1.1//EN" "http://www.w3.org/Graphics/SVG/1.1/DTD/svg11.dtd" >
<svg xmlns="http://www.w3.org/2000/svg" xmlns:xlink="http://www.w3.org/1999/xlink" version="1.1">
<metadata>
Created by FontForge 20161003 at Tue Sep 19 06:50:49 2017
 By www-data
Copyright (c) 2013 by Fontsmith Ltd. All rights reserved.
</metadata>
<defs>
<font id="Repsol" horiz-adv-x="380" >
  <font-face 
    font-family="Repsol"
    font-weight="400"
    font-stretch="normal"
    units-per-em="1000"
    panose-1="2 0 5 6 3 0 0 2 0 4"
    ascent="750"
    descent="-250"
    x-height="495"
    cap-height="620"
    bbox="-62.999 -240.001 1063 1003"
    underline-thickness="50"
    underline-position="-100"
    unicode-range="U+000D-FB04"
  />
<missing-glyph horiz-adv-x="643" 
d="M100 620h443v-620h-443v620zM472 576h-302l153 -226zM499 84v452l-150 -226zM472 45l-149 226l-153 -226h302zM145 84l149 226l-149 226v-452z" />
    <glyph glyph-name="f_f" unicode="ff" horiz-adv-x="613" 
d="M446 442l0.00390625 -442h-64v442h-225v-442h-64v442h-73v53h73v47c0 46.667 12 82.667 36 108c25.333 27.333 64.666 41 117.999 41h69v-59h-63c-34.667 0 -59.334 -7.33301 -74.001 -22c-7.33301 -7.33301 -12.833 -16.833 -16.5 -28.5s-5.5 -26.5 -5.5 -44.5v-42h225
v47c0 46.667 12 82.667 36 108c25.333 27.333 64.666 41 117.999 41h69v-59h-63c-34.667 0 -59.334 -7.33301 -74.001 -22c-7.33301 -7.33301 -12.833 -16.833 -16.5 -28.5s-5.5 -26.5 -5.5 -44.5v-42h149v-53h-149z" />
    <glyph glyph-name="fi" unicode="fi" horiz-adv-x="520" 
d="M446 0h-63.998v442h-225v-442h-64v442h-73v53h73v47c0 46.667 12 82.667 36 108c25.333 27.333 64.666 41 117.999 41h69v-59h-63c-34.667 0 -59.334 -7.33301 -74.001 -22c-7.33301 -7.33301 -12.833 -16.833 -16.5 -28.5s-5.5 -26.5 -5.5 -44.5v-42h289v-495z
M414.002 575c-12 0 -22.5 4.16699 -31.5 12.5s-13.5 19.166 -13.5 32.499s4.5 24.166 13.5 32.499s19.5 12.5 31.5 12.5s22.5 -4.16699 31.5 -12.5s13.5 -19.166 13.5 -32.499s-4.5 -24.166 -13.5 -32.499s-19.5 -12.5 -31.5 -12.5z" />
    <glyph glyph-name="fl" unicode="fl" horiz-adv-x="576" 
d="M389 634l-135.999 0.000976562c-34.667 0 -59.334 -7.33301 -74.001 -22c-7.33301 -7.33301 -12.833 -16.833 -16.5 -28.5s-5.5 -26.5 -5.5 -44.5v-44h149v-53h-149v-442h-64v442h-73v53h73v47c0 46.667 12 82.667 36 108c25.333 27.333 64.666 41 117.999 41h206v-546
c0 -34.667 7 -59.334 21 -74.001s39.333 -22 76 -22h12v-55h-24c-51.333 0 -89.666 13.667 -114.999 41c-12.667 13.333 -21.5 29 -26.5 47s-7.5 39.333 -7.5 64v488z" />
    <glyph glyph-name="f_f_i" unicode="ffi" horiz-adv-x="809" 
d="M446 0h-63.9961v442h-225v-442h-64v442h-73v53h73v47c0 46.667 12 82.667 36 108c25.333 27.333 64.666 41 117.999 41h69v-59h-63c-34.667 0 -59.334 -7.33301 -74.001 -22c-7.33301 -7.33301 -12.833 -16.833 -16.5 -28.5s-5.5 -26.5 -5.5 -44.5v-42h225v47
c0 46.667 12 82.667 36 108c25.333 27.333 64.666 41 117.999 41h69v-59h-63c-34.667 0 -59.334 -7.33301 -74.001 -22c-7.33301 -7.33301 -12.833 -16.833 -16.5 -28.5s-5.5 -26.5 -5.5 -44.5v-42h289v-495h-64v442h-225v-442zM703.004 575c-12 0 -22.5 4.16699 -31.5 12.5
s-13.5 19.166 -13.5 32.499s4.5 24.166 13.5 32.499s19.5 12.5 31.5 12.5s22.5 -4.16699 31.5 -12.5s13.5 -19.166 13.5 -32.499s-4.5 -24.166 -13.5 -32.499s-19.5 -12.5 -31.5 -12.5z" />
    <glyph glyph-name="f_f_l" unicode="ffl" horiz-adv-x="865" 
d="M382 542c0 46.667 12.0029 82.668 36.0029 108.001c25.333 27.333 64.666 41 117.999 41h206v-546c0 -34.667 7 -59.334 21 -74.001s39.333 -22 76 -22h12v-55h-24c-51.333 0 -89.666 13.667 -114.999 41c-12.667 13.333 -21.5 29 -26.5 47s-7.5 39.333 -7.5 64v488h-136
c-34.667 0 -59.334 -7.33301 -74.001 -22c-7.33301 -7.33301 -12.833 -16.833 -16.5 -28.5s-5.5 -26.5 -5.5 -44.5v-44h149v-53h-149v-442h-64v442h-225v-442h-64v442h-73v53h73v47c0 46.667 12 82.667 36 108c25.333 27.333 64.666 41 117.999 41h69v-59h-63
c-34.667 0 -59.334 -7.33301 -74.001 -22c-7.33301 -7.33301 -12.833 -16.833 -16.5 -28.5s-5.5 -26.5 -5.5 -44.5v-42h225v47z" />
    <glyph glyph-name=".notdef" horiz-adv-x="643" 
d="M100 620h443v-620h-443v620zM472 576h-302l153 -226zM499 84v452l-150 -226zM472 45l-149 226l-153 -226h302zM145 84l149 226l-149 226v-452z" />
    <glyph glyph-name=".null" horiz-adv-x="0" 
 />
    <glyph glyph-name=".null" horiz-adv-x="0" 
 />
    <glyph glyph-name="nonmarkingreturn" unicode="&#xd;" horiz-adv-x="230" 
 />
    <glyph glyph-name="space" unicode=" " horiz-adv-x="230" 
 />
    <glyph glyph-name="exclam" unicode="!" horiz-adv-x="240" 
d="M146 200c0 -8 -4 -12 -12 -12h-29c-8 0 -12 4 -12 12l-10 420h59c9.33301 0 14 -4.33301 14 -13zM120 -6c-13.333 0 -24.666 4.33301 -33.999 13s-14 20.334 -14 35.001c0 14 4.66699 25.5 14 34.5s20.666 13.5 33.999 13.5s24.666 -4.5 33.999 -13.5s14 -20.5 14 -34.5
c0 -14.667 -4.66699 -26.334 -14 -35.001s-20.666 -13 -33.999 -13z" />
    <glyph glyph-name="quotedbl" unicode="&#x22;" horiz-adv-x="325" 
d="M118 620c9.33301 0 14 -4.33301 14 -13l-7 -190c0 -8 -4 -12 -12 -12h-34c-8 0 -12 4 -12 12l-7 203h58zM251 620c9.33301 0 14 -4.33301 14 -13l-7 -190c0 -8 -4 -12 -12 -12h-34c-8 0 -12 4 -12 12l-7 203h58z" />
    <glyph glyph-name="numbersign" unicode="#" horiz-adv-x="528" 
d="M494 230v-57h-101v-173h-57v173h-144v-173h-57v173h-101v57h101v159h-101v57h101v174h57v-174h144v174h57v-174h101v-57h-101v-159h101zM192 230h144v159h-144v-159z" />
    <glyph glyph-name="dollar" unicode="$" horiz-adv-x="528" 
d="M238 -6h-43c-34 0 -61.833 4.5 -83.5 13.5s-40.834 23.167 -57.501 42.5l29 51c14 -15.333 31 -27 51 -35s42 -12 66 -12h38v227l-44 6c-45.333 6 -79 20.333 -101 43c-21.333 22 -32 57.667 -32 107v36c0 24.667 3.33301 46.167 10 64.5s16 34.166 28 47.499
c26 27.333 63 41 111 41h28v83h57v-83h11c34 0 61.833 -4.5 83.5 -13.5s40.834 -23.167 57.501 -42.5l-29 -50c-28.667 30.667 -67.667 46 -117 46h-6v-229l38 -5c45.333 -6 79 -20.333 101 -43c21.333 -22 32 -57.667 32 -107v-35c0 -47.333 -12.667 -84.666 -38 -111.999
c-26 -27.333 -63 -41 -111 -41h-22v-82h-57v82zM140 376c5.33301 -6 12.499 -11.167 21.499 -15.5s20.833 -7.5 35.5 -9.5l41 -6v221h-21c-33.333 0 -57 -7 -71 -21c-7.33301 -8 -12.666 -18.167 -15.999 -30.5s-5 -26.5 -5 -42.5v-37c0 -14.667 1 -26.5 3 -35.5
s6 -16.833 12 -23.5zM294.999 273l0.000976562 -219h15c33.333 0 57 7 71 21c7.33301 8 12.666 18.167 15.999 30.5s5 26.5 5 42.5v36c0 14.667 -1 26.5 -3 35.5s-6 16.833 -12 23.5c-5.33301 6 -12.5 11.167 -21.5 15.5s-20.833 7.5 -35.5 9.5z" />
    <glyph glyph-name="percent" unicode="%" horiz-adv-x="783" 
d="M268 509c0 12.667 -1.16699 22.5 -3.5 29.5s-5.83301 13.167 -10.5 18.5c-10 10.667 -26.667 16 -50 16h-33c-23.333 0 -40 -5.33301 -50 -16c-4.66699 -5.33301 -8.16699 -11.5 -10.5 -18.5s-3.5 -16.833 -3.5 -29.5v-103c0 -12.667 1.16699 -22.5 3.5 -29.5
s5.83301 -13.167 10.5 -18.5c10 -10.667 26.667 -16 50 -16h33c23.333 0 40 5.33301 50 16c4.66699 5.33301 8.16699 11.5 10.5 18.5s3.5 16.833 3.5 29.5v103zM50 516c0 34 9.66699 60.667 29 80c18.667 20 47 30 85 30h47c38 0 66.333 -10 85 -30
c19.333 -19.333 29 -46 29 -80v-117c0 -34 -9.66699 -60.667 -29 -80c-18.667 -20 -47 -30 -85 -30h-47c-38 0 -66.333 10 -85 30c-19.333 19.333 -29 46 -29 80v117zM676 214c0 12.667 -1.16699 22.5 -3.5 29.5s-5.83301 13.167 -10.5 18.5c-10 10.667 -26.667 16 -50 16
h-33c-23.333 0 -40 -5.33301 -50 -16c-4.66699 -5.33301 -8.16699 -11.5 -10.5 -18.5s-3.5 -16.833 -3.5 -29.5v-103c0 -12.667 1.16699 -22.5 3.5 -29.5s5.83301 -13.167 10.5 -18.5c10 -10.667 26.667 -16 50 -16h33c23.333 0 40 5.33301 50 16
c4.66699 5.33301 8.16699 11.5 10.5 18.5s3.5 16.833 3.5 29.5v103zM458 221c0 34 9.66699 60.667 29 80c18.667 20 47 30 85 30h47c38 0 66.333 -10 85 -30c19.333 -19.333 29 -46 29 -80v-117c0 -34 -9.66699 -60.667 -29 -80c-18.667 -20 -47 -30 -85 -30h-47
c-38 0 -66.333 10 -85 30c-19.333 19.333 -29 46 -29 80v117zM509 620h63l-298 -620h-63z" />
    <glyph glyph-name="ampersand" unicode="&#x26;" horiz-adv-x="632" 
d="M190 344c-23.333 25.333 -40.3369 48.6689 -51.0039 70.002s-16 45.666 -16 72.999v8c0 44 13.333 77.333 40 100c14.667 12 31.334 20.167 50.001 24.5s41.334 6.5 68.001 6.5h77c31.333 0 56.833 -4 76.5 -12s37.167 -20.667 52.5 -38l-27 -47
c-13.333 13.333 -28.666 22.833 -45.999 28.5s-37.333 8.5 -60 8.5h-74c-17.333 0 -31.5 -0.833008 -42.5 -2.5s-20.5 -5.83398 -28.5 -12.501c-14.667 -12 -22 -31.333 -22 -58v-4c0 -20 4 -37.5 12 -52.5s21.667 -32.833 41 -53.5l172 -181l68 81
c6.66699 8 11.667 14.333 15 19s6 9.66699 8 15s3.33301 11 4 17s1 14 1 24v38h64v-38c0 -14 -0.333008 -25.167 -1 -33.5s-2.33398 -16.166 -5.00098 -23.499c-3.33301 -8.66699 -7.5 -16.5 -12.5 -23.5s-11.5 -15.167 -19.5 -24.5l-80 -95l79 -83
c8.66699 -8.66699 17 -14.334 25 -17.001s18.667 -4 32 -4h18v-60h-17c-12 0 -22.667 0.5 -32 1.5s-18 3 -26 6s-15.5 7 -22.5 12s-14.5 11.5 -22.5 19.5l-74 77l-64 -77c-12 -14 -24.167 -24 -36.5 -30s-27.166 -9 -44.499 -9h-73c-53.333 0 -92.666 13.667 -117.999 41
c-24 24.667 -36 60.667 -36 108v35c0 17.333 1 31.5 3 42.5s5.66699 20.833 11 29.5c4.66699 7.33301 10.667 14 18 20s17 12.667 29 20zM105.996 149.003c0 -35.333 7.00098 -60.001 21.001 -74.001c7.33301 -7.33301 16.833 -12.666 28.5 -15.999s25.167 -5 40.5 -5h57
c12.667 0 23.5 2.16699 32.5 6.5s17.833 11.833 26.5 22.5l60 71l-140 148l-93 -58c-6.66699 -4 -12.167 -7.83301 -16.5 -11.5s-7.83301 -8.16699 -10.5 -13.5s-4.33398 -11.833 -5.00098 -19.5s-1 -16.167 -1 -25.5v-25z" />
    <glyph glyph-name="quotesingle" unicode="'" horiz-adv-x="192" 
d="M118 620c9.33301 0 14 -4.33301 14 -13l-7 -190c0 -8 -4 -12 -12 -12h-34c-8 0 -12 4 -12 12l-7 203h58z" />
    <glyph glyph-name="parenleft" unicode="(" horiz-adv-x="278" 
d="M229 698c-34.667 0 -59.334 -7.33301 -74.001 -22c-7.33301 -7.33301 -12.833 -16.833 -16.5 -28.5s-5.5 -26.5 -5.5 -44.5v-616c0 -18 1.83301 -32.833 5.5 -44.5s9.16699 -21.167 16.5 -28.5c14.667 -14.667 39.334 -22 74.001 -22h34v-57h-41
c-53.333 0 -92.666 13.667 -117.999 41c-24 24.667 -36 60.667 -36 108v622c0 46.667 12 82.667 36 108c25.333 27.333 64.666 41 117.999 41h41v-57h-34z" />
    <glyph glyph-name="parenright" unicode=")" horiz-adv-x="278" 
d="M15 698v57h41c53.333 0 92.666 -13.667 117.999 -41c24 -25.333 36 -61.333 36 -108v-622c0 -47.333 -12 -83.333 -36 -108c-25.333 -27.333 -64.666 -41 -117.999 -41h-41v57h34c34.667 0 59.334 7.33301 74.001 22c7.33301 7.33301 12.833 16.833 16.5 28.5
s5.5 26.5 5.5 44.5v616c0 18 -1.83301 32.833 -5.5 44.5s-9.16699 21.167 -16.5 28.5c-14.667 14.667 -39.334 22 -74.001 22h-34z" />
    <glyph glyph-name="asterisk" unicode="*" horiz-adv-x="451" 
d="M254 249c0 -6 -3 -9 -9 -9h-39c-6 0 -9 3 -9 9l9 147l-122 -82c-5.33301 -3.33301 -9.66602 -2.33301 -12.999 3l-19 34c-3.33301 5.33301 -2.33301 9.33301 3 12l131 67l-131 67c-5.33301 2.66699 -6.33301 6.66699 -3 12l19 34
c3.33301 4.66699 7.66602 5.66699 12.999 3l122 -82l-9 147c0 6 3 9 9 9h39c6 0 9 -3 9 -9l-9 -147l122 82c5.33301 3.33301 9.66602 2.33301 12.999 -3l19 -34c3.33301 -5.33301 2.33301 -9.33301 -3 -12l-131 -67l131 -67c5.33301 -2.66699 6.33301 -6.66699 3 -12
l-19 -34c-3.33301 -5.33301 -7.66602 -6.33301 -12.999 -3l-122 82z" />
    <glyph glyph-name="plus" unicode="+" horiz-adv-x="427" 
d="M242 149h-55v136h-136v55h136v134h55v-134h134v-55h-134v-136z" />
    <glyph glyph-name="comma" unicode="," horiz-adv-x="192" 
d="M62 -59c6.66699 22 10.002 38.332 10.002 48.999c0 6 -1.33301 10.833 -4 14.5s-5.83398 7.16699 -9.50098 10.5s-6.83398 7.33301 -9.50098 12s-4 10.667 -4 18c0 12.667 4.33301 23 13 31s19 12 31 12c13.333 0 24.5 -4.33301 33.5 -13s13.5 -20.667 13.5 -36
c0 -11.333 -2 -24.166 -6 -38.499s-11.333 -33.5 -22 -57.5l-22 -50c-2 -5.33301 -4 -8.5 -6 -9.5s-5 -0.833008 -9 0.5l-12 3c-5.33301 1.33301 -8.5 3 -9.5 5s-0.833008 4.66699 0.5 8z" />
    <glyph glyph-name="hyphen" unicode="-" horiz-adv-x="343" 
d="M54 273h235v-60h-235v60z" />
    <glyph glyph-name="period" unicode="." horiz-adv-x="192" 
d="M96 -6c-13.333 0 -24.666 4.33301 -33.999 13s-14 20.334 -14 35.001c0 14 4.66699 25.5 14 34.5s20.666 13.5 33.999 13.5s24.666 -4.5 33.999 -13.5s14 -20.5 14 -34.5c0 -14.667 -4.66699 -26.334 -14 -35.001s-20.666 -13 -33.999 -13z" />
    <glyph glyph-name="slash" unicode="/" horiz-adv-x="331" 
d="M240 620h63l-212 -620h-63z" />
    <glyph glyph-name="zero" unicode="0" horiz-adv-x="528" 
d="M469 150c0 -26 -3.33301 -48 -10 -66s-16 -33.667 -28 -47c-27.333 -28.667 -68 -43 -122 -43h-90c-54 0 -94.667 14.333 -122 43c-12 13.333 -21.333 29 -28 47s-10 40 -10 66v320c0 26 3.33301 48 10 66s16 33.667 28 47c27.333 28.667 68 43 122 43h90
c54 0 94.667 -14.333 122 -43c12 -13.333 21.333 -29 28 -47s10 -40 10 -66v-320zM403 467c0 34 -7.66699 58.667 -23 74c-14 15.333 -38 23 -72 23h-88c-34 0 -58 -7.66699 -72 -23c-15.333 -15.333 -23 -40 -23 -74v-314c0 -34 7.66699 -58.667 23 -74
c14 -15.333 38 -23 72 -23h88c34 0 58 7.66699 72 23c15.333 15.333 23 40 23 74v314z" />
    <glyph glyph-name="one" unicode="1" horiz-adv-x="388" 
d="M57 0v56h117v508h-116v56h162c13.333 0 20 -6.33301 20 -19v-545h100v-56h-283z" />
    <glyph glyph-name="two" unicode="2" horiz-adv-x="480" 
d="M197 234c-14.667 -6 -26.6689 -12.002 -36.002 -18.002s-16.666 -12.5 -21.999 -19.5s-9 -15.5 -11 -25.5s-3 -22 -3 -36v-79h305v-56h-347c-14.667 0 -22 7.33301 -22 22v116c0 22 1.83301 40.5 5.5 55.5s11.167 28.833 22.5 41.5c16.667 18.667 43.334 36 80.001 52
l124 54c14.667 6.66699 26.667 12.834 36 18.501s16.5 12 21.5 19s8.5 15.333 10.5 25s3 21.834 3 36.501v28c0 34 -7.66699 58.667 -23 74c-14 15.333 -38 23 -72 23h-64c-24 0 -46.5 -3.83301 -67.5 -11.5s-38.5 -18.5 -52.5 -32.5l-30 49c32.667 37.333 83.667 56 153 56
h61c54.667 0 95.667 -14.333 123 -43c12 -13.333 21.333 -29 28 -47s10 -40 10 -66v-33c0 -22 -1.83301 -40.5 -5.5 -55.5s-11.167 -28.833 -22.5 -41.5c-16 -18 -42.667 -35.333 -80 -52z" />
    <glyph glyph-name="three" unicode="3" horiz-adv-x="508" 
d="M283 355l17.002 -0.000976562c25.333 0 47.666 -2.83301 66.999 -8.5s35.666 -15.167 48.999 -28.5c23.333 -23.333 35 -59 35 -107v-97c0 -13.333 -1.5 -23.666 -4.5 -30.999s-9.16699 -15 -18.5 -23l-55 -47c-9.33301 -8 -18 -13.167 -26 -15.5s-20 -3.5 -36 -3.5h-108
c-70.667 0 -123 19.667 -157 59l30 49c14 -15.333 32.167 -27 54.5 -35s45.5 -12 69.5 -12h112c5.33301 0 9.16602 0.333008 11.499 1s5.16602 2.66699 8.49902 6l46 39c4.66699 4 7 9.33301 7 16v95c0 30.667 -5.66699 52 -17 64
c-7.33301 8.66699 -17.666 14.667 -30.999 18s-30 5 -50 5h-65c-8.66699 0 -13 3.66699 -13 11v18c0 4.66699 0.166992 8.66699 0.5 12s1 6.5 2 9.5s2.5 6 4.5 9s4.66699 6.83301 8 11.5l88 122c13.333 19.333 23.333 34 30 44s11.334 19.333 14.001 28h-293v56h346
c6 0 9 -3 9 -9v-15c0 -12 -0.833008 -22.833 -2.5 -32.5s-4.5 -19.167 -8.5 -28.5s-9.5 -19.5 -16.5 -30.5s-15.833 -23.833 -26.5 -38.5z" />
    <glyph glyph-name="four" unicode="4" horiz-adv-x="528" 
d="M113 191l234 -0.000976562v208h66v-208h76v-56h-76v-135h-66v135h-277c-6 0 -10.333 1 -13 3s-5 5.66699 -7 11l-3 9c-2 6.66699 -3 12.334 -3 17.001c0 7.33301 3.33301 19 10 35l171 410h65z" />
    <glyph glyph-name="five" unicode="5" horiz-adv-x="488" 
d="M268 55c35.333 0 60.001 7.66797 74.001 23.001c15.333 15.333 23 39.666 23 72.999v72c0 34 -7.66699 58.667 -23 74c-14 15.333 -38.667 23 -74 23h-163c-21.333 0 -32 10.333 -32 31v250c0 12.667 6.33301 19 19 19h303v-56h-258v-185h131
c29.333 0 54.166 -3.66699 74.499 -11s37.166 -18 50.499 -32c12 -13.333 21.333 -29 28 -47s10 -40 10 -66v-73c0 -26 -3.33301 -48 -10 -66s-16 -33.667 -28 -47c-13.333 -14 -30.166 -24.667 -50.499 -32s-45.166 -11 -74.499 -11h-81c-34 0 -61.833 4.5 -83.5 13.5
s-40.834 23.167 -57.501 42.5l29 49c14 -14 30.833 -24.833 50.5 -32.5s41.5 -11.5 65.5 -11.5h77z" />
    <glyph glyph-name="six" unicode="6" horiz-adv-x="528" 
d="M237 341c-11.333 0 -22.333 -2 -33 -6l-56 -21c-10.667 -4.66699 -16 -12 -16 -22v-142c0 -34 7.66699 -58.667 23 -74c14 -15.333 38 -23 72 -23h84c34 0 58 7.66699 72 23c15.333 15.333 23 40 23 74v94c0 34 -7.66699 58.667 -23 74c-14 15.333 -38 23 -72 23h-74z
M310 400c54 0 94.666 -14.333 121.999 -43c12 -13.333 21.333 -29 28 -47s10 -40 10 -66v-94c0 -26 -3.33301 -48 -10 -66s-16 -33.667 -28 -47c-27.333 -28.667 -68 -43 -122 -43h-82c-54 0 -94.667 14.333 -122 43c-12 13.333 -21.333 29 -28 47s-10 40 -10 66v320
c0 26 3.33301 48 10 66s16 33.667 28 47c27.333 28.667 68 43 122 43h74c34 0 61.833 -4.5 83.5 -13.5s40.834 -23.167 57.501 -42.5l-29 -49c-29.333 29.333 -68 44 -116 44h-71c-34 0 -58 -7.66699 -72 -23c-15.333 -15.333 -23 -40 -23 -74v-102l49 21
c14 6 25.333 9.66699 34 11s20.667 2 36 2h59z" />
    <glyph glyph-name="seven" unicode="7" horiz-adv-x="460" 
d="M150 0l-0.000976562 34.9971c0 9.33301 0.166992 17.166 0.5 23.499s1 12.5 2 18.5s2.5 12 4.5 18s5 13 9 21l164 371c6.66699 14.667 11.667 28.667 15 42s5.33301 25 6 35h-315v56h370c6 0 9 -3 9 -9v-29c0 -19.333 -1.66699 -37.666 -5 -54.999
s-10.333 -37.666 -21 -60.999l-164 -369c-5.33301 -11.333 -8.66602 -21.166 -9.99902 -29.499s-2.33301 -19.166 -3 -32.499l-1 -35h-61z" />
    <glyph glyph-name="eight" unicode="8" horiz-adv-x="528" 
d="M456 418c0 -13.333 -1.66504 -24.333 -4.99805 -33s-9.66602 -18.334 -18.999 -29.001l-29 -33l38 -42c13.333 -14 22.166 -27 26.499 -39s6.5 -27.333 6.5 -46v-46c0 -26 -3.33301 -48 -10 -66s-16 -33.667 -28 -47c-27.333 -28.667 -68.333 -43 -123 -43h-98
c-54.667 0 -95.667 14.333 -123 43c-12 13.333 -21.333 29 -28 47s-10 40 -10 66v46c0 18.667 2.16699 34 6.5 46s13.166 25 26.499 39l38 42l-29 33c-9.33301 10.667 -15.666 20.334 -18.999 29.001s-5 19.667 -5 33v52c0 26 3.33301 48 10 66s16 33.667 28 47
c27.333 28.667 68.666 43 123.999 43h60c55.333 0 96.666 -14.333 123.999 -43c12 -13.333 21.333 -29 28 -47s10 -40 10 -66v-52zM408.002 201c0 10 -1.16895 18.167 -3.50195 24.5s-6.16602 12.833 -11.499 19.5l-22 26c-6 7.33301 -11.333 11.833 -16 13.5
s-12 2.5 -22 2.5h-138c-10 0 -17.333 -0.833008 -22 -2.5s-10 -6.16699 -16 -13.5l-22 -26c-5.33301 -6.66699 -9.16602 -13.167 -11.499 -19.5s-3.5 -14.5 -3.5 -24.5v-51c0 -33.333 8 -58 24 -74c14 -15.333 38.667 -23 74 -23h92c35.333 0 60 7.66699 74 23
c16 16 24 40.667 24 74v51zM390 470c0 33.333 -8.00195 58 -24.002 74c-14 15.333 -38.667 23 -74 23h-56c-35.333 0 -60 -7.66699 -74 -23c-16 -16 -24 -40.667 -24 -74v-52c0 -9.33301 0.666992 -16 2 -20s4.33301 -8.66699 9 -14l21 -25c6 -7.33301 11.333 -12 16 -14
s11.334 -3 20.001 -3h116c8.66699 0 15.334 1 20.001 3s10 6.66699 16 14l21 25c4.66699 5.33301 7.66699 10 9 14s2 10.667 2 20v52z" />
    <glyph glyph-name="nine" unicode="9" horiz-adv-x="528" 
d="M291 279c6.66699 0 12.5 0.5 17.5 1.5s10.167 2.5 15.5 4.5l56 21c10.667 4.66699 16 12 16 22v142c0 34 -7.66699 58.667 -23 74c-14 15.333 -38 23 -72 23h-84c-34 0 -58 -7.66699 -72 -23c-15.333 -15.333 -23 -40 -23 -74v-94c0 -34 7.66699 -58.667 23 -74
c14 -15.333 38 -23 72 -23h74zM218 220c-54 0 -94.666 14.333 -121.999 43c-12 13.333 -21.333 29 -28 47s-10 40 -10 66v94c0 26 3.33301 48 10 66s16 33.667 28 47c27.333 28.667 68 43 122 43h82c54 0 94.667 -14.333 122 -43c12 -13.333 21.333 -29 28 -47
s10 -40 10 -66v-320c0 -26 -3.33301 -48 -10 -66s-16 -33.667 -28 -47c-27.333 -28.667 -68 -43 -122 -43h-74c-34 0 -61.833 4.5 -83.5 13.5s-40.834 23.167 -57.501 42.5l29 49c29.333 -29.333 68 -44 116 -44h71c34 0 58 7.66699 72 23c15.333 15.333 23 40 23 74v102
l-49 -21c-14 -6 -25.333 -9.66699 -34 -11s-20.667 -2 -36 -2h-59z" />
    <glyph glyph-name="colon" unicode=":" horiz-adv-x="192" 
d="M96 -6c-13.333 0 -24.666 4.33301 -33.999 13s-14 20.334 -14 35.001c0 14 4.66699 25.5 14 34.5s20.666 13.5 33.999 13.5s24.666 -4.5 33.999 -13.5s14 -20.5 14 -34.5c0 -14.667 -4.66699 -26.334 -14 -35.001s-20.666 -13 -33.999 -13zM96 284
c-13.333 0 -24.666 4.33301 -33.999 13s-14 20.334 -14 35.001c0 14 4.66699 25.5 14 34.5s20.666 13.5 33.999 13.5s24.666 -4.5 33.999 -13.5s14 -20.5 14 -34.5c0 -14.667 -4.66699 -26.334 -14 -35.001s-20.666 -13 -33.999 -13z" />
    <glyph glyph-name="semicolon" unicode=";" horiz-adv-x="192" 
d="M96 284c-13.333 0 -24.666 4.33301 -33.999 13s-14 20.334 -14 35.001c0 14 4.66699 25.5 14 34.5s20.666 13.5 33.999 13.5s24.666 -4.5 33.999 -13.5s14 -20.5 14 -34.5c0 -14.667 -4.66699 -26.334 -14 -35.001s-20.666 -13 -33.999 -13zM68 -59
c6.66699 22 10.002 38.332 10.002 48.999c0 6 -1.33301 10.833 -4 14.5s-5.83398 7.16699 -9.50098 10.5s-6.83398 7.33301 -9.50098 12s-4 10.667 -4 18c0 12.667 4.33301 23 13 31s19 12 31 12c13.333 0 24.5 -4.33301 33.5 -13s13.5 -20.667 13.5 -36
c0 -11.333 -2 -24.166 -6 -38.499s-11.333 -33.5 -22 -57.5l-22 -50c-2 -5.33301 -4 -8.5 -6 -9.5s-5 -0.833008 -9 0.5l-12 3c-5.33301 1.33301 -8.5 3 -9.5 5s-0.833008 4.66699 0.5 8z" />
    <glyph glyph-name="less" unicode="&#x3c;" horiz-adv-x="427" 
d="M49 328c0 8 4 13.667 12 17l316 146v-61l-267 -117l267 -117v-62l-316 146c-8 3.33301 -12 9 -12 17v31z" />
    <glyph glyph-name="equal" unicode="=" horiz-adv-x="427" 
d="M51 204v55h325v-55h-325zM51 366v55h325v-55h-325z" />
    <glyph glyph-name="greater" unicode="&#x3e;" horiz-adv-x="427" 
d="M378 297c0 -8 -4 -13.667 -12 -17l-316 -146v62l267 117l-267 117v61l316 -146c8 -3.33301 12 -9 12 -17v-31z" />
    <glyph glyph-name="question" unicode="?" horiz-adv-x="475" 
d="M213 -6c-13.333 0 -24.666 4.33301 -33.999 13s-14 20.334 -14 35.001c0 14 4.66699 25.5 14 34.5s20.666 13.5 33.999 13.5s24.666 -4.5 33.999 -13.5s14 -20.5 14 -34.5c0 -14.667 -4.66699 -26.334 -14 -35.001s-20.666 -13 -33.999 -13zM187 566
c-22.667 0 -42.666 -2.8291 -59.999 -8.49609s-32.666 -15.167 -45.999 -28.5l-27 47c15.333 17.333 32.833 30 52.5 38s45.167 12 76.5 12h68c53.333 0 92.666 -13.667 117.999 -41c24 -25.333 36 -61.333 36 -108v-17c0 -34.667 -4.66699 -61.667 -14 -81
c-10 -20.667 -30 -41 -60 -61l-63 -41c-10 -6.66699 -16.667 -12.834 -20 -18.501s-5 -15.167 -5 -28.5l-1 -50h-58l-2 56c-0.666992 21.333 1.5 37.166 6.5 47.499s14.833 20.166 29.5 29.499l72 48c20.667 14 34.167 27.667 40.5 41s9.5 31.666 9.5 54.999v14
c0 18 -1.83301 32.833 -5.5 44.5s-9.16699 21.167 -16.5 28.5c-14.667 14.667 -39.334 22 -74.001 22h-57z" />
    <glyph glyph-name="at" unicode="@" horiz-adv-x="673" 
d="M56 472c0 24 2.99902 45.499 8.99902 64.499s15.333 35.167 28 48.5c13.333 13.333 30.333 23.5 51 30.5s44.334 10.5 71.001 10.5h245c26.667 0 50.334 -3.5 71.001 -10.5s37.667 -17.167 51 -30.5c12.667 -13.333 22 -29.5 28 -48.5s9 -40.5 9 -64.5v-224
c0 -33.333 -9.33301 -58.333 -28 -75c-18.667 -17.333 -43.334 -26 -74.001 -26c-20 0 -36.667 3 -50 9s-24.666 14 -33.999 24l-20 -16c-8.66699 -7.33301 -16.667 -12 -24 -14s-18 -3 -32 -3h-46c-68.667 0 -103 33 -103 99v7c0 34 8.83301 58.333 26.5 73
s43.5 22 77.5 22h96v15c0 20.667 -4.66699 34.667 -14 42s-27.666 11 -54.999 11h-10c-18 0 -33.167 -1.5 -45.5 -4.5s-24.166 -8.83301 -35.499 -17.5l-25 36c12 13.333 26.667 23 44 29s36.666 9 57.999 9h22c80 0 120 -34.667 120 -104v-133c0 -24 14.333 -36 43 -36
c18 0 30.667 4 38 12c3.33301 4 5.66602 9.33301 6.99902 16s2 14.334 2 23.001v228c0 34 -7.66699 58.667 -23 74s-39.333 23 -72 23h-249c-32.667 0 -56.667 -7.66699 -72 -23s-23 -40 -23 -74v-322c0 -34 7.66699 -58.667 23 -74s39.333 -23 72 -23h398v-55h-396
c-26.667 0 -50.334 3.5 -71.001 10.5s-37.667 17.167 -51 30.5c-12.667 13.333 -22 29.5 -28 48.5s-9 40.5 -9 64.5v318zM407.999 296.999c0 3.33301 -1.99902 5 -5.99902 5h-88c-17.333 0 -29.5 -3 -36.5 -9s-10.5 -17.667 -10.5 -35v-18
c0 -15.333 3.16699 -26.5 9.5 -33.5s18.166 -10.5 35.499 -10.5h50c7.33301 0 12.333 0.5 15 1.5s6.66699 3.16699 12 6.5l13 10c4 3.33301 6 7 6 11v72z" />
    <glyph glyph-name="A" unicode="A" horiz-adv-x="570" 
d="M308 549c-2 6 -3.83301 10.167 -5.5 12.5s-5.5 3.5 -11.5 3.5h-13c-6 0 -9.83301 -1.16699 -11.5 -3.5s-3.5 -6.5 -5.5 -12.5l-101 -334h248zM540 0h-69.002l-46 157h-281l-45 -157h-69l174 574c6 20 13.833 33.667 23.5 41s24.834 11 45.501 11h23
c20.667 0 35.834 -3.66699 45.501 -11s17.5 -21 23.5 -41z" />
    <glyph glyph-name="B" unicode="B" horiz-adv-x="540" 
d="M401 466c0 35.333 -7 60.333 -21 75c-15.333 15.333 -43 23 -83 23h-158v-224h196c9.33301 0 16 0.833008 20 2.5s8.66699 5.16699 14 10.5l16 16c6.66699 6.66699 11 12.167 13 16.5s3 10.5 3 18.5v62zM490 146c0 -46 -11.667 -81.335 -35 -106.002
c-26 -26.667 -65.667 -40 -119 -40h-247c-12 0 -18 6.33301 -18 19v582c0 12.667 6 19 18 19h225c53.333 0 93 -13.333 119 -40c23.333 -24.667 35 -60 35 -106v-50c0 -11.333 -0.333008 -20.666 -1 -27.999s-2.16699 -14 -4.5 -20s-5.5 -11.5 -9.5 -16.5
s-9.33301 -10.833 -16 -17.5l-21 -21l43 -43c6.66699 -6.66699 12 -12.667 16 -18s7.16699 -10.833 9.5 -16.5s3.83301 -12.167 4.5 -19.5s1 -16.666 1 -27.999v-50zM319 55.998c40 0 67.666 7.66699 82.999 23c14 14.667 21 39.667 21 75v60c0 8 -1.16699 14.5 -3.5 19.5
s-6.5 10.5 -12.5 16.5l-24 24c-6.66699 6.66699 -12.167 10.5 -16.5 11.5s-11.166 1.5 -20.499 1.5h-207v-231h180z" />
    <glyph glyph-name="C" unicode="C" horiz-adv-x="517" 
d="M214 -6c-54 0 -94.667 14.333 -122 43c-12 13.333 -21.333 29 -28 47s-10 40 -10 66v320c0 26 3.33301 48 10 66s16 33.667 28 47c27.333 28.667 68 43 122 43h116c34 0 61.833 -4.5 83.5 -13.5s40.834 -23.167 57.501 -42.5l-29 -51c-14 14 -30.5 24.833 -49.5 32.5
s-41.167 11.5 -66.5 11.5h-109c-34 0 -58 -7.66699 -72 -23c-15.333 -15.333 -23 -40 -23 -74v-312c0 -34 7.66699 -58.667 23 -74c14 -15.333 38 -23 72 -23h113c25.333 0 47.5 3.83301 66.5 11.5s35.5 18.5 49.5 32.5l29 -51c-16.667 -19.333 -35.834 -33.5 -57.501 -42.5
s-49.5 -13.5 -83.5 -13.5h-120z" />
    <glyph glyph-name="D" unicode="D" horiz-adv-x="575" 
d="M352 58c36.667 0 62.334 8 77.001 24c16 16 24 40.333 24 73v310c0 32.667 -8 57 -24 73c-14.667 16 -40.334 24 -77.001 24h-213v-504h213zM89 0c-12 0 -18 6.33301 -18 19v582c0 12.667 6 19 18 19h278c50 0 88.333 -14 115 -42
c12.667 -13.333 22.334 -29.333 29.001 -48s10 -41 10 -67v-306c0 -25.333 -3.33301 -47.5 -10 -66.5s-16.334 -35.167 -29.001 -48.5c-26.667 -28 -65 -42 -115 -42h-278z" />
    <glyph glyph-name="E" unicode="E" horiz-adv-x="496" 
d="M71 601c0 12.667 6 19 18 19h348v-57h-298v-223h248v-57h-248v-226h305v-57h-355c-12 -0 -18 6.33301 -18 19v582z" />
    <glyph glyph-name="F" unicode="F" horiz-adv-x="459" 
d="M139 0h-68v601c0 12.667 6 19 18 19h346v-57h-296v-223h246v-57h-246v-283z" />
    <glyph glyph-name="G" unicode="G" horiz-adv-x="569" 
d="M446 283l-93.998 -0.00195312v52h146c10 0 15 -5.33301 15 -16v-236c0 -9.33301 -1.66699 -16.666 -5 -21.999s-10.666 -11.666 -21.999 -18.999l-56 -35c-8.66699 -5.33301 -17 -8.83301 -25 -10.5s-19.667 -2.5 -35 -2.5h-156c-54 0 -94.667 14.333 -122 43
c-12 13.333 -21.333 29 -28 47s-10 40 -10 66v320c0 26 3.33301 48 10 66s16 33.667 28 47c27.333 28.667 68 43 122 43h137c34.667 0 62.667 -4.5 84 -13.5s40.333 -23.167 57 -42.5l-29 -51c-14 14 -30.5 24.833 -49.5 32.5s-41.167 11.5 -66.5 11.5h-130
c-34 0 -58 -7.66699 -72 -23c-15.333 -15.333 -23 -40 -23 -74v-312c0 -34 7.66699 -58.667 23 -74c14 -15.333 38 -23 72 -23h158c7.33301 0 12.666 0.333008 15.999 1s7.66602 2.66699 12.999 6l36 23c3.33301 2 5.16602 3.5 5.49902 4.5s0.5 3.16699 0.5 6.5v185z" />
    <glyph glyph-name="H" unicode="H" horiz-adv-x="595" 
d="M524 0h-68v282h-317v-282h-68v620h68v-277h317v277h68v-620z" />
    <glyph glyph-name="I" unicode="I" horiz-adv-x="214" 
d="M73 620h68v-620h-68v620z" />
    <glyph glyph-name="J" unicode="J" horiz-adv-x="465" 
d="M184 -6c-29.333 0 -54.332 3.33301 -74.999 10s-42.334 19 -65.001 37l24 52c19.333 -13.333 37.833 -23 55.5 -29s38.167 -9 61.5 -9h53c32.667 0 56.667 7.66699 72 23s23 40 23 74v468h68v-470c0 -26 -3.33301 -48 -10 -66s-16 -33.667 -28 -47
c-27.333 -28.667 -68 -43 -122 -43h-57z" />
    <glyph glyph-name="K" unicode="K" horiz-adv-x="553" 
d="M533 0h-79.001l-180 259c-5.33301 7.33301 -9.5 11.833 -12.5 13.5s-8.83301 2.5 -17.5 2.5h-105v-275h-68v620h68v-287h106c9.33301 0 15.333 0.833008 18 2.5s6.33398 6.16699 11.001 13.5l165 271h72l-189 -309c-2.66699 -4 -2.66699 -7.66699 0 -11z" />
    <glyph glyph-name="L" unicode="L" horiz-adv-x="452" 
d="M71 620h68v-563h289v-57h-339c-12 -0 -18 6.33301 -18 19v601z" />
    <glyph glyph-name="M" unicode="M" horiz-adv-x="712" 
d="M529 585c8.66699 14.667 16.333 24.168 23 28.501s17 6.5 31 6.5h14c17.333 0 29 -1.66699 35 -5s9 -12.333 9 -27v-588h-65v555c-5.33301 -11.333 -13.5 -26.833 -24.5 -46.5s-22.167 -38.834 -33.5 -57.501l-131 -218c-1.33301 -2.66699 -2.83301 -4.5 -4.5 -5.5
s-4.5 -1.5 -8.5 -1.5h-33c-6.66699 0 -11.334 2.33301 -14.001 7l-134 218c-12 19.333 -23.167 38 -33.5 56s-18.166 33.667 -23.499 47v-554h-65v588c0 14.667 3 23.667 9 27s17.667 5 35 5h17c7.33301 0 13.333 -0.5 18 -1.5s9 -2.66699 13 -5s7.66699 -5.83301 11 -10.5
s7.33301 -10.667 12 -18l172 -287z" />
    <glyph glyph-name="N" unicode="N" horiz-adv-x="615" 
d="M202 418c-17.333 27.333 -31.833 51.167 -43.5 71.5s-20.167 36.166 -25.5 47.499v-537h-62v588c0 14.667 2.66699 23.667 8 27s16 5 32 5h3c13.333 0 24 -1.83301 32 -5.5s15.667 -11.5 23 -23.5l244 -392c16.667 -26 31 -49.667 43 -71s20.667 -37.666 26 -48.999v541
h62v-591c0 -14.667 -2.66699 -23.667 -8 -27s-16 -5 -32 -5h-3c-13.333 0 -23.833 1.83301 -31.5 5.5s-15.167 11.5 -22.5 23.5z" />
    <glyph glyph-name="O" unicode="O" horiz-adv-x="577" 
d="M523 150c0 -26 -3.33301 -48 -10 -66s-16 -33.667 -28 -47c-27.333 -28.667 -68 -43 -122 -43h-149c-54 0 -94.667 14.333 -122 43c-12 13.333 -21.333 29 -28 47s-10 40 -10 66v320c0 26 3.33301 48 10 66s16 33.667 28 47c27.333 28.667 68 43 122 43h149
c54 0 94.667 -14.333 122 -43c12 -13.333 21.333 -29 28 -47s10 -40 10 -66v-320zM455 466c0 34 -7.66699 58.667 -23 74c-14 15.333 -38 23 -72 23h-143c-34 0 -58 -7.66699 -72 -23c-15.333 -15.333 -23 -40 -23 -74v-312c0 -34 7.66699 -58.667 23 -74
c14 -15.333 38 -23 72 -23h143c34 0 58 7.66699 72 23c15.333 15.333 23 40 23 74v312z" />
    <glyph glyph-name="P" unicode="P" horiz-adv-x="534" 
d="M139 563v-303h210c8.66699 0 15.167 0.833008 19.5 2.5s9.5 5.5 15.5 11.5l25 25c6 6 10.167 11.333 12.5 16s3.5 11 3.5 19v131c0 35.333 -7 60.333 -21 75c-15.333 15.333 -43 23 -83 23h-182zM492 344c0 -11.333 -0.333008 -20.667 -1 -28
s-2.16699 -13.833 -4.5 -19.5s-5.5 -11 -9.5 -16s-9.33301 -10.833 -16 -17.5l-30 -30c-12 -12 -23.5 -20 -34.5 -24s-26.167 -6 -45.5 -6h-212v-203h-68v601c0 12.667 6 19 18 19h249c53.333 0 93 -13.333 119 -40c23.333 -24.667 35 -60 35 -106v-130z" />
    <glyph glyph-name="Q" unicode="Q" horiz-adv-x="577" 
d="M523 150c0 -26 -3.33008 -48.001 -9.99707 -66.001s-16 -33.667 -28 -47c-27.333 -28.667 -68 -43 -122 -43h-20l24 -49c3.33301 -7.33301 7 -14.166 11 -20.499s8.33301 -11.5 13 -15.5c7.33301 -6.66699 16.166 -11 26.499 -13s25.166 -3 44.499 -3h39v-63h-49
c-24 0 -44 2 -60 6s-30 11.333 -42 22c-8.66699 7.33301 -16.834 17 -24.501 29s-15.5 26 -23.5 42l-32 65h-56c-54 0 -94.667 14.333 -122 43c-12 13.333 -21.333 29 -28 47s-10 40 -10 66v320c0 26 3.33301 48 10 66s16 33.667 28 47c27.333 28.667 68 43 122 43h149
c54 0 94.667 -14.333 122 -43c12 -13.333 21.333 -29 28 -47s10 -40 10 -66v-320zM455.003 465.999c0 34 -7.66699 58.667 -23 74c-14 15.333 -38 23 -72 23h-143c-34 0 -58 -7.66699 -72 -23c-15.333 -15.333 -23 -40 -23 -74v-312c0 -34 7.66699 -58.667 23 -74
c14 -15.333 38 -23 72 -23h143c34 0 58 7.66699 72 23c15.333 15.333 23 40 23 74v312z" />
    <glyph glyph-name="R" unicode="R" horiz-adv-x="558" 
d="M340 620c53.333 0 93 -13.3359 119 -40.0029c23.333 -24.667 35 -60 35 -106v-118c0 -11.333 -0.333008 -20.666 -1 -27.999s-2 -13.666 -4 -18.999s-5.16699 -10.666 -9.5 -15.999s-9.83301 -11.333 -16.5 -18l-30 -30c-8 -8 -14.667 -13.333 -20 -16l91 -229h-71
l-78 207c-1.33301 4 -3 6.66699 -5 8s-5.66699 2 -11 2h-200v-217h-68v601c0 12.667 6 19 18 19h251zM139 562.997v-291h213c8.66699 0 15 0.833008 19 2.5s9 5.5 15 11.5l25 25c7.33301 7.33301 11.833 12.833 13.5 16.5s2.5 9.5 2.5 17.5v120c0 35.333 -7 60.333 -21 75
c-15.333 15.333 -43 23 -83 23h-184z" />
    <glyph glyph-name="S" unicode="S" horiz-adv-x="518" 
d="M192 287c-45.333 6 -79 20.333 -101 43c-21.333 22 -32 57.667 -32 107v36c0 24.667 3.33301 46.167 10 64.5s16 34.166 28 47.499c26 27.333 63 41 111 41h96c34 0 61.833 -4.5 83.5 -13.5s40.834 -23.167 57.501 -42.5l-29 -50c-28.667 30.667 -67.667 46 -117 46h-84
c-33.333 0 -57 -7 -71 -21c-7.33301 -8 -12.666 -18.167 -15.999 -30.5s-5 -26.5 -5 -42.5v-37c0 -14.667 1 -26.5 3 -35.5s6 -16.833 12 -23.5c5.33301 -6 12.5 -11.167 21.5 -15.5s20.833 -7.5 35.5 -9.5l136 -19c45.333 -6 79 -20.333 101 -43
c21.333 -22 32 -57.667 32 -107v-35c0 -47.333 -12.667 -84.666 -38 -111.999c-26 -27.333 -63 -41 -111 -41h-122c-34 0 -61.833 4.5 -83.5 13.5s-40.834 23.167 -57.501 42.5l29 51c14 -15.333 31 -27 51 -35s42 -12 66 -12h110c33.333 0 57 7 71 21
c7.33301 8 12.666 18.167 15.999 30.5s5 26.5 5 42.5v36c0 14.667 -1 26.5 -3 35.5s-6 16.833 -12 23.5c-5.33301 6 -12.5 11.167 -21.5 15.5s-20.833 7.5 -35.5 9.5z" />
    <glyph glyph-name="T" unicode="T" horiz-adv-x="483" 
d="M275 0h-67v563h-184v57h435v-57h-184v-563z" />
    <glyph glyph-name="U" unicode="U" horiz-adv-x="583" 
d="M226 -6c-54 0 -94.665 14.3311 -121.998 42.998c-12 13.333 -21.333 29 -28 47s-10 40 -10 66v470h68v-466c0 -34 7.66699 -58.667 23 -74c14 -15.333 38 -23 72 -23h146c7.33301 0 12.666 0.333008 15.999 1s7.66602 2.66699 12.999 6l36 23
c3.33301 2 5.16602 3.5 5.49902 4.5s0.5 3.16699 0.5 6.5v522h67v-537c0 -9.33301 -1.66699 -16.666 -5 -21.999s-10.666 -11.666 -21.999 -18.999l-56 -35c-8.66699 -5.33301 -17 -8.83301 -25 -10.5s-19.667 -2.5 -35 -2.5h-144z" />
    <glyph glyph-name="V" unicode="V" horiz-adv-x="550" 
d="M356 46c-5.33301 -20 -12.334 -33.667 -21.001 -41s-24.667 -11 -48 -11h-23c-23.333 0 -39.166 3.66699 -47.499 11s-15.5 21 -21.5 41l-165 574h69l153 -549c2 -6.66699 4 -11 6 -13s6 -3 12 -3h13c5.33301 0 8.83301 0.833008 10.5 2.5s3.5 6.16699 5.5 13.5l153 549
h68z" />
    <glyph glyph-name="W" unicode="W" horiz-adv-x="854" 
d="M469 330c-9.33301 42 -17.6592 79.833 -24.9922 113.5s-13 62.5 -17 86.5c-4 -24 -9.5 -53.5 -16.5 -88.5s-15.167 -72.167 -24.5 -111.5l-66 -284c-4.66699 -20 -12.334 -33.667 -23.001 -41s-26.334 -11 -47.001 -11h-17c-20.667 0 -36.334 3.83301 -47.001 11.5
s-18.334 21.167 -23.001 40.5l-133 574h70l122 -549c1.33301 -6 3.16602 -10.167 5.49902 -12.5s6.83301 -3.5 13.5 -3.5h4c5.33301 0 9.5 0.833008 12.5 2.5s5.16699 6.16699 6.5 13.5l122 526c2.66699 9.33301 5.83398 15.5 9.50098 18.5s11.167 4.5 22.5 4.5h19
c11.333 0 18.833 -1.5 22.5 -4.5s6.83398 -9.16699 9.50098 -18.5l123 -526c1.33301 -6 3.16602 -10.167 5.49902 -12.5s6.83301 -3.5 13.5 -3.5h4c5.33301 0 9.5 0.833008 12.5 2.5s5.16699 6.16699 6.5 13.5l121 549h69l-132 -574
c-4.66699 -20 -12.334 -33.667 -23.001 -41s-26.334 -11 -47.001 -11h-17c-20.667 0 -36.334 3.83301 -47.001 11.5s-18.334 21.167 -23.001 40.5z" />
    <glyph glyph-name="X" unicode="X" horiz-adv-x="527" 
d="M220 304c2.66699 4 3 8 1 12l-185 304h75l154 -259l147 259h70l-177 -304c-2.66699 -4 -3 -8 -1 -12l186 -304h-75l-154 259l-149 -259h-71z" />
    <glyph glyph-name="Y" unicode="Y" horiz-adv-x="511" 
d="M430 620h70l-203 -400c-3.33301 -7.33301 -5.33301 -12.333 -6 -15s-1 -6.66699 -1 -12v-193h-68v192c0 5.33301 -0.333008 9.5 -1 12.5s-2.66699 8.16699 -6 15.5l-204 400h73l173 -349z" />
    <glyph glyph-name="Z" unicode="Z" horiz-adv-x="491" 
d="M57 563v57.0039h369c6.66699 0 10 -3.66699 10 -11v-24c0 -6.66699 -0.5 -11.834 -1.5 -15.501s-3.5 -8.83398 -7.5 -15.501l-231 -379c-15.333 -24.667 -29.333 -47 -42 -67s-24 -37 -34 -51h321v-57h-382c-7.33301 0 -11 3.66699 -11 11v20
c0 7.33301 0.5 13.166 1.5 17.499s3.83301 10.166 8.5 17.499l231 379c15.333 24.667 29.333 47 42 67s24 37 34 51h-308z" />
    <glyph glyph-name="bracketleft" unicode="[" horiz-adv-x="257" 
d="M74 736c0 12.667 6.33301 19 19 19h152v-57h-106v-806h106v-57h-152c-12.667 0 -19 6.33301 -19 19v882z" />
    <glyph glyph-name="backslash" unicode="\" horiz-adv-x="331" 
d="M303 0h-63l-212 620h63z" />
    <glyph glyph-name="bracketright" unicode="]" horiz-adv-x="295" 
d="M221 -146c0 -12.667 -6.33301 -19 -19 -19h-152v57h106v806h-106v57h152c12.667 0 19 -6.33301 19 -19v-882z" />
    <glyph glyph-name="asciicircum" unicode="^" horiz-adv-x="500" 
d="M266 620c6 0 10.168 -0.666992 12.501 -2s5.16602 -4.66602 8.49902 -9.99902l166 -289h-69l-134 240l-134 -240h-69l166 289c3.33301 5.33301 6.33301 8.66602 9 9.99902s6.66699 2 12 2h32z" />
    <glyph glyph-name="underscore" unicode="_" horiz-adv-x="476" 
d="M0 -47h476v-59h-476v59z" />
    <glyph glyph-name="grave" unicode="`" 
d="M283 599c4.66699 -3.33301 5.33203 -7.66699 1.99902 -13l-11 -17c-3.33301 -5.33301 -7.66602 -6.33301 -12.999 -3l-169 103l30 46c3.33301 5.33301 7.33301 8 12 8s9 -2 13 -6z" />
    <glyph glyph-name="a" unicode="a" horiz-adv-x="503" 
d="M210 252c-35.333 0 -60 -6.99805 -74 -20.998c-14.667 -14.667 -22 -39.334 -22 -74.001v-11c0 -34.667 7.33301 -59.334 22 -74.001c14 -14 38.667 -21 74 -21h98c7.33301 0 12.333 0.5 15 1.5s6.66699 3.16699 12 6.5l36 27c4 3.33301 6 7 6 11v143c0 8 -3 12 -9 12
h-158zM377 309.002l0.000976562 39c0 18 -1.83301 32.833 -5.5 44.5s-9.16699 21.167 -16.5 28.5c-14.667 14.667 -39.334 22 -74.001 22h-76c-22 0 -41.833 -2.83301 -59.5 -8.5s-33.167 -15.167 -46.5 -28.5l-27 45c15.333 17.333 32.833 30 52.5 38s45.167 12 76.5 12h86
c27.333 0 50.833 -3.5 70.5 -10.5s35.5 -17.167 47.5 -30.5c24 -25.333 36 -61.333 36 -108v-265c0 -9.33301 -1.83301 -16.833 -5.5 -22.5s-10.167 -12.167 -19.5 -19.5l-51 -38c-8 -6 -15.333 -9.66699 -22 -11s-17.667 -2 -33 -2h-106
c-53.333 0 -92.666 13.667 -117.999 41c-24 24.667 -36 60.667 -36 108v17c0 46.667 12 82.667 36 108c25.333 27.333 64.666 41 117.999 41h173z" />
    <glyph glyph-name="b" unicode="b" horiz-adv-x="514" 
d="M196 -6c-15.333 0 -26.3311 0.666992 -32.998 2s-14 5 -22 11l-51 38c-9.33301 7.33301 -15.833 13.833 -19.5 19.5s-5.5 13.167 -5.5 22.5v598h64v-216l31 17c11.333 6 20.666 10 27.999 12s16.666 3 27.999 3h88c27.333 0 50.833 -3.5 70.5 -10.5
s35.5 -17.167 47.5 -30.5c24 -25.333 36 -61.333 36 -108v-209c0 -47.333 -12 -83.333 -36 -108c-12 -13.333 -27.833 -23.5 -47.5 -30.5s-43.167 -10.5 -70.5 -10.5h-108zM298.002 53c34.667 0 59.334 7.33203 74.001 21.999c7.33301 7.33301 12.833 16.833 16.5 28.5
s5.5 26.5 5.5 44.5v199c0 18 -1.83301 32.833 -5.5 44.5s-9.16699 21.167 -16.5 28.5c-14.667 14.667 -39.334 22 -74.001 22h-90c-4 0 -7 -0.166992 -9 -0.5s-4.33301 -1.16602 -7 -2.49902l-57 -27c-4 -2 -6 -5 -6 -9v-306c0 -4 2 -7.66699 6 -11l34 -25
c5.33301 -3.33301 9.33301 -5.5 12 -6.5s7.66699 -1.5 15 -1.5h102z" />
    <glyph glyph-name="c" unicode="c" horiz-adv-x="462" 
d="M210 -6c-53.333 0 -92.666 13.667 -117.999 41c-24 24.667 -36 60.667 -36 108v209c0 46.667 12 82.667 36 108c25.333 27.333 64.666 41 117.999 41h74c31.333 0 56.833 -4 76.5 -12s37.167 -20.667 52.5 -38l-27 -46c-13.333 13.333 -28.666 22.833 -45.999 28.5
s-37.333 8.5 -60 8.5h-64c-34.667 0 -59.334 -7.33301 -74.001 -22c-7.33301 -7.33301 -12.833 -16.833 -16.5 -28.5s-5.5 -26.5 -5.5 -44.5v-199c0 -18 1.83301 -32.833 5.5 -44.5s9.16699 -21.167 16.5 -28.5c14.667 -14.667 39.334 -22 74.001 -22h71
c45.333 0 80.666 12.667 105.999 38l27 -45c-15.333 -17.333 -32.833 -30.333 -52.5 -39s-45.167 -13 -76.5 -13h-81z" />
    <glyph glyph-name="d" unicode="d" horiz-adv-x="514" 
d="M210 -6c-53.333 0 -92.6641 13.667 -117.997 41c-24 24.667 -36 60.667 -36 108v209c0 46.667 12 82.667 36 108c25.333 27.333 64.666 41 117.999 41h88c11.333 0 20.666 -1 27.999 -3s16.666 -6 27.999 -12l31 -17v216h64v-598c0 -9.33301 -1.83301 -16.833 -5.5 -22.5
s-10.167 -12.167 -19.5 -19.5l-51 -38c-8 -6 -15.333 -9.66699 -22 -11s-17.667 -2 -33 -2h-108zM318.002 53c7.33301 0 12.333 0.500977 15 1.50098s6.66699 3.16699 12 6.5l34 25c4 3.33301 6 7 6 11v306c0 4 -2 7 -6 9l-57 27c-2.66699 1.33301 -5 2.16602 -7 2.49902
s-5 0.5 -9 0.5h-90c-34.667 0 -59.334 -7.33301 -74.001 -22c-7.33301 -7.33301 -12.833 -16.833 -16.5 -28.5s-5.5 -26.5 -5.5 -44.5v-199c0 -18 1.83301 -32.833 5.5 -44.5s9.16699 -21.167 16.5 -28.5c14.667 -14.667 39.334 -22 74.001 -22h102z" />
    <glyph glyph-name="e" unicode="e" horiz-adv-x="497" 
d="M439 255c0 -22.667 -9.33301 -34 -28 -34h-291v-73c0 -18 1.83301 -32.833 5.5 -44.5s9.16699 -21.167 16.5 -28.5c14.667 -14.667 39.334 -22 74.001 -22h84c45.333 0 80.666 12.667 105.999 38l27 -45c-15.333 -17.333 -32.833 -30.333 -52.5 -39
s-45.167 -13 -76.5 -13h-94c-53.333 0 -92.666 13.667 -117.999 41c-24 24.667 -36 60.667 -36 108v209c0 46.667 12 82.667 36 108c25.333 27.333 64.666 41 117.999 41h75c27.333 0 50.833 -3.5 70.5 -10.5s35.5 -17.167 47.5 -30.5c24 -25.333 36 -61.333 36 -108v-97z
M375 277l0.00195312 70c0 18 -1.83301 32.833 -5.5 44.5s-9.16699 21.167 -16.5 28.5c-14.667 14.667 -39.334 22 -74.001 22h-63c-34.667 0 -59.334 -7.33301 -74.001 -22c-7.33301 -7.33301 -12.833 -16.833 -16.5 -28.5s-5.5 -26.5 -5.5 -44.5v-70h255z" />
    <glyph glyph-name="f" unicode="f" horiz-adv-x="324" 
d="M316 691l0.00195312 -58h-63c-34.667 0 -59.334 -7.33301 -74.001 -22c-7.33301 -7.33301 -12.833 -16.833 -16.5 -28.5s-5.5 -26.5 -5.5 -44.5v-43h149v-53h-149v-442h-64v442h-73v53h73v47c0 46.667 12 82.667 36 108c25.333 27.333 64.666 41 117.999 41h69z" />
    <glyph glyph-name="g" unicode="g" horiz-adv-x="514" 
d="M449 -43c0 -47.333 -12.668 -84.667 -38.001 -112c-26 -27.333 -63 -41 -111 -41h-84c-31.333 0 -56.833 4.33301 -76.5 13s-37.167 21.667 -52.5 39l27 45c25.333 -25.333 60.666 -38 105.999 -38h73c32 0 55.333 7.33301 70 22c14.667 15.333 22 39.333 22 72v69
l-31 -17c-11.333 -6 -20.666 -10 -27.999 -12s-16.666 -3 -27.999 -3h-88c-53.333 0 -92.666 13.667 -117.999 41c-24 24.667 -36 60.667 -36 108v209c0 46.667 12 82.667 36 108c25.333 27.333 64.666 41 117.999 41h108c15.333 0 26.333 -0.666992 33 -2s14 -5 22 -11
l51 -38c9.33301 -7.33301 15.833 -13.833 19.5 -19.5s5.5 -13.167 5.5 -22.5v-451zM215.999 441.999c-34.667 0 -59.334 -7.33203 -74.001 -21.999c-7.33301 -7.33301 -12.833 -16.833 -16.5 -28.5s-5.5 -26.5 -5.5 -44.5v-199c0 -18 1.83301 -32.833 5.5 -44.5
s9.16699 -21.167 16.5 -28.5c14.667 -14.667 39.334 -22 74.001 -22h90c4 0 7 0.166992 9 0.5s4.33301 1.16602 7 2.49902l57 27c4 2 6 5 6 9v306c0 4 -2 7.66699 -6 11l-34 25c-5.33301 3.33301 -9.33301 5.5 -12 6.5s-7.66699 1.5 -15 1.5h-102z" />
    <glyph glyph-name="h" unicode="h" horiz-adv-x="519" 
d="M301 501c27.333 0 50.834 -3.50195 70.501 -10.502s35.5 -17.167 47.5 -30.5c24 -25.333 36 -61.333 36 -108v-352h-64v347c0 18 -1.83301 32.833 -5.5 44.5s-9.16699 21.167 -16.5 28.5c-14.667 14.667 -39.334 22 -74.001 22h-86c-3.33301 0 -6 -0.166992 -8 -0.5
s-4.66699 -1.16602 -8 -2.49902l-57 -27c-4 -2 -6 -5 -6 -9v-403h-64v685h64v-216l31 17c12 6.66699 21.333 10.834 28 12.501s16 2.5 28 2.5h84z" />
    <glyph glyph-name="i" unicode="i" horiz-adv-x="212" 
d="M138 0h-64v495h64v-495zM106 575c-12 0 -22.5 4.16699 -31.5 12.5s-13.5 19.166 -13.5 32.499s4.5 24.166 13.5 32.499s19.5 12.5 31.5 12.5s22.5 -4.16699 31.5 -12.5s13.5 -19.166 13.5 -32.499s-4.5 -24.166 -13.5 -32.499s-19.5 -12.5 -31.5 -12.5z" />
    <glyph glyph-name="j" unicode="j" horiz-adv-x="212" 
d="M-45 -196l-17.999 52.999h41c33.333 0 57.666 7 72.999 21c8.66699 8 14.667 18.333 18 31s5 27.667 5 45v541h64v-536c0 -53.333 -12.667 -92.666 -38 -117.999c-24.667 -24.667 -63 -37 -115 -37h-30zM106.001 574.999c-12 0 -22.5 4.16699 -31.5 12.5
s-13.5 19.166 -13.5 32.499s4.5 24.166 13.5 32.499s19.5 12.5 31.5 12.5s22.5 -4.16699 31.5 -12.5s13.5 -19.166 13.5 -32.499s-4.5 -24.166 -13.5 -32.499s-19.5 -12.5 -31.5 -12.5z" />
    <glyph glyph-name="k" unicode="k" horiz-adv-x="470" 
d="M448 0h-70.999l-122 219c-3.33301 5.33301 -5.83301 8.5 -7.5 9.5s-5.5 1.5 -11.5 1.5h-106v-230h-64v685h64v-398h107c5.33301 0 9.66602 2.33301 12.999 7l127 201h66l-141 -222c-2.66699 -3.33301 -3 -7 -1 -11z" />
    <glyph glyph-name="l" unicode="l" horiz-adv-x="257" 
d="M72 685l63.999 0.000976562v-540c0 -34.667 7 -59.334 21 -74.001s39.333 -22 76 -22h12v-55h-24c-51.333 0 -89.666 13.667 -114.999 41c-12.667 13.333 -21.5 29 -26.5 47s-7.5 39.333 -7.5 64v539z" />
    <glyph glyph-name="m" unicode="m" horiz-adv-x="822" 
d="M511 442c-7.33301 0 -12.332 -0.500977 -14.999 -1.50098s-6.66699 -3.16699 -12 -6.5l-40 -29c-3.33301 -2.66699 -4.66602 -6 -3.99902 -10c2.66699 -11.333 4 -25.666 4 -42.999v-352h-64v347c0 18 -1.83301 32.833 -5.5 44.5s-9.16699 21.167 -16.5 28.5
c-14.667 14.667 -39.334 22 -74.001 22h-88c-7.33301 0 -12.333 -0.5 -15 -1.5s-6.66699 -3.16699 -12 -6.5l-34 -25c-4 -3.33301 -6 -7 -6 -11v-398h-64v408c0 9.33301 1.83301 16.833 5.5 22.5s10.167 12.167 19.5 19.5l51 38c8 6 15.333 9.66699 22 11s17.667 2 33 2h94
c28 0 52.5 -3.83301 73.5 -11.5s37.5 -19.5 49.5 -35.5l46 34c8 6 15.333 9.66699 22 11s17.667 2 33 2h90c27.333 0 50.833 -3.5 70.5 -10.5s35.5 -17.167 47.5 -30.5c24 -25.333 36 -61.333 36 -108v-352h-64v347c0 18 -1.83301 32.833 -5.5 44.5
s-9.16699 21.167 -16.5 28.5c-14.667 14.667 -39.334 22 -74.001 22h-87z" />
    <glyph glyph-name="n" unicode="n" horiz-adv-x="518" 
d="M196 442c-7.33301 0 -12.332 -0.5 -14.999 -1.5s-6.66699 -3.16699 -12 -6.5l-34 -25c-4 -3.33301 -6 -7 -6 -11v-398h-64v408c0 9.33301 1.83301 16.833 5.5 22.5s10.167 12.167 19.5 19.5l51 38c8 6 15.333 9.66699 22 11s17.667 2 33 2h104
c27.333 0 50.833 -3.5 70.5 -10.5s35.5 -17.167 47.5 -30.5c24 -25.333 36 -61.333 36 -108v-352h-64v347c0 18 -1.83301 32.833 -5.5 44.5s-9.16699 21.167 -16.5 28.5c-14.667 14.667 -39.334 22 -74.001 22h-98z" />
    <glyph glyph-name="o" unicode="o" horiz-adv-x="510" 
d="M454 143c0 -47.333 -12 -83.333 -36 -108c-12 -13.333 -27.833 -23.5 -47.5 -30.5s-43.167 -10.5 -70.5 -10.5h-90c-53.333 0 -92.666 13.667 -117.999 41c-24 24.667 -36 60.667 -36 108v209c0 46.667 12 82.667 36 108c25.333 27.333 64.666 41 117.999 41h90
c27.333 0 50.833 -3.5 70.5 -10.5s35.5 -17.167 47.5 -30.5c24 -25.333 36 -61.333 36 -108v-209zM390 347c0 18 -1.83301 32.833 -5.5 44.5s-9.16699 21.167 -16.5 28.5c-14.667 14.667 -39.334 22 -74.001 22h-78c-34.667 0 -59.334 -7.33301 -74.001 -22
c-7.33301 -7.33301 -12.833 -16.833 -16.5 -28.5s-5.5 -26.5 -5.5 -44.5v-199c0 -18 1.83301 -32.833 5.5 -44.5s9.16699 -21.167 16.5 -28.5c14.667 -14.667 39.334 -22 74.001 -22h78c34.667 0 59.334 7.33301 74.001 22c7.33301 7.33301 12.833 16.833 16.5 28.5
s5.5 26.5 5.5 44.5v199z" />
    <glyph glyph-name="p" unicode="p" horiz-adv-x="514" 
d="M304 501c27.333 0 50.8311 -3.5 70.498 -10.5s35.5 -17.167 47.5 -30.5c24 -25.333 36 -61.333 36 -108v-209c0 -47.333 -12 -83.333 -36 -108c-12 -13.333 -27.833 -23.5 -47.5 -30.5s-43.167 -10.5 -70.5 -10.5h-88c-11.333 0 -20.666 1 -27.999 3
s-16.666 6 -27.999 12l-31 17v-216h-64v598c0 9.33301 1.83301 16.833 5.5 22.5s10.167 12.167 19.5 19.5l51 38c8 6 15.333 9.66699 22 11s17.667 2 33 2h108zM195.998 442c-7.33301 0 -12.333 -0.500977 -15 -1.50098s-6.66699 -3.16699 -12 -6.5l-34 -25
c-4 -3.33301 -6 -7 -6 -11v-306c0 -4 2 -7 6 -9l57 -27c2.66699 -1.33301 5 -2.16602 7 -2.49902s5 -0.5 9 -0.5h90c34.667 0 59.334 7.33301 74.001 22c7.33301 7.33301 12.833 16.833 16.5 28.5s5.5 26.5 5.5 44.5v199c0 18 -1.83301 32.833 -5.5 44.5
s-9.16699 21.167 -16.5 28.5c-14.667 14.667 -39.334 22 -74.001 22h-102z" />
    <glyph glyph-name="q" unicode="q" horiz-adv-x="514" 
d="M318 501c15.333 0 26.3311 -0.666992 32.998 -2s14 -5 22 -11l51 -38c9.33301 -7.33301 15.833 -13.833 19.5 -19.5s5.5 -13.167 5.5 -22.5v-598h-64v216l-31 -17c-11.333 -6 -20.666 -10 -27.999 -12s-16.666 -3 -27.999 -3h-88c-53.333 0 -92.666 13.667 -117.999 41
c-24 24.667 -36 60.667 -36 108v209c0 46.667 12 82.667 36 108c25.333 27.333 64.666 41 117.999 41h108zM215.998 442c-34.667 0 -59.334 -7.33203 -74.001 -21.999c-7.33301 -7.33301 -12.833 -16.833 -16.5 -28.5s-5.5 -26.5 -5.5 -44.5v-199
c0 -18 1.83301 -32.833 5.5 -44.5s9.16699 -21.167 16.5 -28.5c14.667 -14.667 39.334 -22 74.001 -22h90c4 0 7 0.166992 9 0.5s4.33301 1.16602 7 2.49902l57 27c4 2 6 5 6 9v306c0 4 -2 7.66699 -6 11l-34 25c-5.33301 3.33301 -9.33301 5.5 -12 6.5
s-7.66699 1.5 -15 1.5h-102z" />
    <glyph glyph-name="r" unicode="r" horiz-adv-x="326" 
d="M306 501l0.00195312 -59h-82c-34.667 0 -59.334 -7.33301 -74.001 -22c-7.33301 -7.33301 -12.833 -16.833 -16.5 -28.5s-5.5 -26.5 -5.5 -44.5v-347h-64v352c0 46.667 12 82.667 36 108c25.333 27.333 64.666 41 117.999 41h88z" />
    <glyph glyph-name="s" unicode="s" horiz-adv-x="449" 
d="M245 51c35.333 0 60.334 7.00098 75.001 21.001c13.333 13.333 20 33.666 20 60.999v8c0 20.667 -5.66699 37.334 -17 50.001c-10 11.333 -27.333 18.333 -52 21l-102 13c-21.333 2.66699 -38.5 7 -51.5 13s-24.167 13.667 -33.5 23c-12 12 -20.833 26 -26.5 42
s-8.5 33.333 -8.5 52v5c0 22.667 3.33301 42.5 10 59.5s15.667 31.167 27 42.5c13.333 13.333 30.166 23.166 50.499 29.499s42.5 9.5 66.5 9.5h52c30 0 55.667 -3.66699 77 -11s40 -20 56 -38l-26 -43c-25.333 23.333 -61.666 35 -108.999 35h-46
c-35.333 0 -60.333 -7 -75 -21c-13.333 -13.333 -20 -33.666 -20 -60.999v-6c0 -20.667 5.66699 -37.334 17 -50.001c10 -11.333 27.333 -18.333 52 -21l102 -13c20.667 -2.66699 37.667 -6.83398 51 -12.501s24.666 -13.167 33.999 -22.5c12 -12 20.833 -26.167 26.5 -42.5
s8.5 -33.833 8.5 -52.5v-7c0 -22.667 -3.33301 -42.5 -10 -59.5s-15.667 -31.167 -27 -42.5c-13.333 -13.333 -30.166 -23.166 -50.499 -29.499s-42.5 -9.5 -66.5 -9.5h-75c-30.667 0 -57 3.83301 -79 11.5s-41.333 20.167 -58 37.5l27 43
c25.333 -23.333 61.666 -35 108.999 -35h72z" />
    <glyph glyph-name="t" unicode="t" horiz-adv-x="354" 
d="M243 -6c-53.333 0 -92.668 13.667 -118.001 41c-24 24.667 -36 60.667 -36 108v299h-73v53h73v137h64v-137h149v-53h-149v-294c0 -18 1.83301 -32.833 5.5 -44.5s9.16699 -21.167 16.5 -28.5c14.667 -14.667 39.334 -22 74.001 -22h63v-59h-69z" />
    <glyph glyph-name="u" unicode="u" horiz-adv-x="509" 
d="M313 53c7.33301 0 12.3311 0.5 14.998 1.5s6.66699 3.16699 12 6.5l34 25c4 3.33301 6 7 6 11v398h64v-408c0 -9.33301 -1.83301 -16.833 -5.5 -22.5s-10.167 -12.167 -19.5 -19.5l-51 -38c-8 -6 -15.333 -9.66699 -22 -11s-17.667 -2 -33 -2h-95
c-53.333 0 -92.666 13.667 -117.999 41c-24 24.667 -36 60.667 -36 108v352h64v-347c0 -18 1.83301 -32.833 5.5 -44.5s9.16699 -21.167 16.5 -28.5c14.667 -14.667 39.334 -22 74.001 -22h89z" />
    <glyph glyph-name="v" unicode="v" horiz-adv-x="480" 
d="M284 12c-2.66699 -7.33301 -6.49902 -12.165 -11.499 -14.498s-14.5 -3.5 -28.5 -3.5h-8c-13.333 0 -22.666 1.16699 -27.999 3.5s-9.33301 7.16602 -12 14.499l-176 483h67l106 -301c9.33301 -26.667 18.333 -52.334 27 -77.001s15.667 -45.667 21 -63
c5.33301 16.667 12.166 37.5 20.499 62.5s17.166 51.167 26.499 78.5l106 300h66z" />
    <glyph glyph-name="w" unicode="w" horiz-adv-x="711" 
d="M623 495l62 -0.00390625l-132 -478c-2.66699 -9.33301 -6.5 -15.5 -11.5 -18.5s-14.5 -4.5 -28.5 -4.5h-16c-14.667 0 -24.5 1.5 -29.5 4.5s-8.83301 9.16699 -11.5 18.5l-65 251c-3.33301 12.667 -6.83301 26.334 -10.5 41.001s-7 29 -10 43s-5.83301 27.167 -8.5 39.5
s-4.66699 22.5 -6 30.5c-3.33301 -17.333 -8.16602 -40.166 -14.499 -68.499s-13.166 -56.833 -20.499 -85.5l-65 -251c-2.66699 -9.33301 -6.5 -15.5 -11.5 -18.5s-14.5 -4.5 -28.5 -4.5h-16c-14.667 0 -24.5 1.5 -29.5 4.5s-8.83301 9.16699 -11.5 18.5l-133 478h63
l75 -280c3.33301 -13.333 7 -27.833 11 -43.5s8 -31.5 12 -47.5l11.5 -46c3.66699 -14.667 6.5 -27.667 8.5 -39c2 10.667 4.66699 23.334 8 38.001s6.83301 29.834 10.5 45.501s7.5 31.334 11.5 47.001s7.66699 30.167 11 43.5l65 261
c2.66699 9.33301 6.5 15.166 11.5 17.499s13.167 3.5 24.5 3.5h16c10.667 0 18.5 -1.16699 23.5 -3.5s8.83301 -8.16602 11.5 -17.499l65 -259c7.33301 -27.333 14.666 -57.5 21.999 -90.5s13.666 -61.167 18.999 -84.5c2 10.667 4.5 23.167 7.5 37.5
s6.33301 29.166 10 44.499s7.5 30.833 11.5 46.5s8 30.5 12 44.5z" />
    <glyph glyph-name="x" unicode="x" horiz-adv-x="445" 
d="M421 0l-70 -0.000976562l-131 204l-126 -204h-68l153 240c2.66699 4.66699 3 8.33398 1 11.001l-156 244h70l127 -203l124 203h67l-149 -239c-2.66699 -3.33301 -3 -7 -1 -11z" />
    <glyph glyph-name="y" unicode="y" horiz-adv-x="489" 
d="M402 495h67.002l-204 -553c-10 -26.667 -19.667 -48.5 -29 -65.5s-20 -31.167 -32 -42.5c-22.667 -20 -54.667 -30 -96 -30h-41l-19 54h47c16 0 29 1 39 3s18.667 6.33301 26 13s14.333 16.334 21 29.001s13.667 28.334 21 47.001l11 30l-193 515h67l111 -302
c9.33301 -26 18.333 -51.667 27 -77s15.667 -46 21 -62c5.33301 17.333 12.166 38.666 20.499 63.999s17.166 50.666 26.499 75.999z" />
    <glyph glyph-name="z" unicode="z" horiz-adv-x="437" 
d="M374 495c6.66699 0 10 -3.33301 10 -10v-23c0 -7.33301 -0.5 -12.5 -1.5 -15.5s-3.16699 -7.16699 -6.5 -12.5l-248 -382h263v-52h-325c-6.66699 -0 -10 3.33301 -10 10v26c0 6.66699 0.5 11.5 1.5 14.5s3.16699 7.16699 6.5 12.5l247 380h-249v52h312z" />
    <glyph glyph-name="braceleft" unicode="{" horiz-adv-x="321" 
d="M174 -13c0 -18 1.83301 -32.8369 5.5 -44.5039s9.16699 -21.167 16.5 -28.5c14.667 -14.667 39.334 -22 74.001 -22h39v-57h-46c-53.333 0 -92.666 13.667 -117.999 41c-24 24.667 -36 60.667 -36 108v193c0 9.33301 -1.16699 16.5 -3.5 21.5s-6.5 10.833 -12.5 17.5
l-28 30c-13.333 14.667 -21.833 25 -25.5 31s-5.5 12 -5.5 18s1.83301 12 5.5 18s12.167 16.333 25.5 31l28 30c6 6.66699 10.167 12.5 12.5 17.5s3.5 12.167 3.5 21.5v193c0 46.667 12 82.667 36 108c25.333 27.333 64.666 41 117.999 41h46v-57h-39
c-34.667 0 -59.334 -7.33301 -74.001 -22c-7.33301 -7.33301 -12.833 -16.833 -16.5 -28.5s-5.5 -26.5 -5.5 -44.5v-188c0 -17.333 -2.16699 -31.666 -6.5 -42.999s-14.166 -24.666 -29.499 -39.999l-35 -37l35 -37c15.333 -15.333 25.166 -28.666 29.499 -39.999
s6.5 -25.666 6.5 -42.999v-188z" />
    <glyph glyph-name="bar" unicode="|" horiz-adv-x="209" 
d="M135 -115h-61v826h61v-826z" />
    <glyph glyph-name="braceright" unicode="}" horiz-adv-x="321" 
d="M147 175c0 17.333 2.16699 31.6699 6.5 43.0029s14.166 24.666 29.499 39.999l35 37l-35 37c-15.333 15.333 -25.166 28.666 -29.499 39.999s-6.5 25.666 -6.5 42.999v188c0 18 -1.83301 32.833 -5.5 44.5s-9.16699 21.167 -16.5 28.5
c-14.667 14.667 -39.334 22 -74.001 22h-39v57h46c53.333 0 92.666 -13.667 117.999 -41c24 -25.333 36 -61.333 36 -108v-193c0 -9.33301 1.16699 -16.5 3.5 -21.5s6.5 -10.833 12.5 -17.5l28 -30c13.333 -14.667 21.833 -25 25.5 -31s5.5 -12 5.5 -18
s-1.83301 -12 -5.5 -18s-12.167 -16.333 -25.5 -31l-28 -30c-6 -6.66699 -10.167 -12.5 -12.5 -17.5s-3.5 -12.167 -3.5 -21.5v-193c0 -47.333 -12 -83.333 -36 -108c-25.333 -27.333 -64.666 -41 -117.999 -41h-46v57h39c34.667 0 59.334 7.33301 74.001 22
c7.33301 7.33301 12.833 16.833 16.5 28.5s5.5 26.5 5.5 44.5v188z" />
    <glyph glyph-name="asciitilde" unicode="~" horiz-adv-x="500" 
d="M332 216c-16.667 0 -32.3311 3.66699 -46.998 11s-28.667 15.5 -42 24.5s-26.333 17.333 -39 25s-25.334 11.5 -38.001 11.5c-7.33301 0 -14.333 -0.5 -21 -1.5s-13.834 -3.5 -21.501 -7.5s-16.667 -10.167 -27 -18.5s-22.833 -19.5 -37.5 -33.5l-32 31
c24.667 30 47.834 52.167 69.501 66.5s45.167 21.5 70.5 21.5c19.333 0 36.666 -3.83301 51.999 -11.5s29.5 -16 42.5 -25s25.167 -17.167 36.5 -24.5s23 -11 35 -11c7.33301 0 14.333 0.5 21 1.5s13.834 3.5 21.501 7.5s16.667 10.167 27 18.5s22.833 19.5 37.5 33.5
l32 -31c-24.667 -30 -47.834 -52.167 -69.501 -66.5s-45.167 -21.5 -70.5 -21.5z" />
    <glyph glyph-name="nonbreakingspace" unicode="&#xa0;" horiz-adv-x="230" 
 />
    <glyph glyph-name="exclamdown" unicode="&#xa1;" horiz-adv-x="240" 
d="M94.0088 295.012c0 8 4 12 11.999 12h28.999c7.99902 0 11.999 -4 11.999 -12l9.99902 -419.974h-58.9961c-9.33301 0 -13.999 4.33301 -13.999 12.999zM120.008 501c13.332 0 24.6641 -4.33301 33.9971 -13c9.33301 -8.66602 13.999 -20.332 13.999 -34.9971
c0 -13.999 -4.66602 -25.498 -13.999 -34.4971s-20.665 -13.499 -33.9971 -13.499c-13.333 0 -24.666 4.5 -33.999 13.499s-14 20.498 -14 34.4971c0 14.665 4.66699 26.3311 14 34.9971c9.33301 8.66699 20.666 13 33.999 13z" />
    <glyph glyph-name="cent" unicode="&#xa2;" horiz-adv-x="528" 
d="M314 -6v-98h-55v98h-15c-53.333 0 -92.666 13.667 -117.999 41c-24 24.667 -36 60.667 -36 108v209c0 46.667 12 82.667 36 108c25.333 27.333 64.666 41 117.999 41h15v88h55v-88h4c31.333 0 56.833 -4 76.5 -12s37.167 -20.667 52.5 -38l-27 -46
c-13.333 13.333 -28.666 22.833 -45.999 28.5s-37.333 8.5 -60 8.5v-389h7c45.333 0 80.666 12.667 105.999 38l27 -45c-15.333 -17.333 -32.833 -30.333 -52.5 -39s-45.167 -13 -76.5 -13h-11zM176 75c14.667 -14.667 39.334 -22 74.001 -22h9v389h-9
c-34.667 0 -59.334 -7.33301 -74.001 -22c-7.33301 -7.33301 -12.833 -16.833 -16.5 -28.5s-5.5 -26.5 -5.5 -44.5v-199c0 -18 1.83301 -32.833 5.5 -44.5s9.16699 -21.167 16.5 -28.5z" />
    <glyph glyph-name="sterling" unicode="&#xa3;" horiz-adv-x="528" 
d="M277 565c-30.667 0 -53.001 -7 -67.001 -21c-7.33301 -7.33301 -12.166 -15.333 -14.499 -24s-3.5 -17.667 -3.5 -27c0 -6 0.333008 -12.5 1 -19.5s1.66699 -14.167 3 -21.5l15 -116h199v-52h-195v-228h249v-56h-392v56h75v228h-72v52h70l-12 86
c-2 16 -3.66699 29.833 -5 41.5s-2 21.167 -2 28.5c0 17.333 2.66699 33.666 8 48.999s14.666 30 27.999 44c13.333 13.333 30 23.5 50 30.5s41.667 10.5 65 10.5h49c32.667 0 60.334 -4.66699 83.001 -14s42.334 -23.666 59.001 -42.999l-30 -47
c-28.667 28.667 -67.334 43 -116.001 43h-45z" />
    <glyph glyph-name="currency" unicode="&#xa4;" horiz-adv-x="528" 
d="M405 250c0 -29.333 -7.33301 -53.332 -22 -71.999l62 -77h-64l-37 48c-15.333 -6 -33 -9 -53 -9h-55c-21.333 0 -39.333 3 -54 9l-36 -48h-64l61 77c-14 18 -21 42 -21 72v121c0 29.333 7 53 21 71l-61 78h64l36 -48c14.667 6 32.667 9 54 9h55c20 0 37.667 -3 53 -9
l37 48h64l-62 -78c14.667 -18.667 22 -42.334 22 -71.001v-121zM348 364.001c0 12.667 -1.16699 22.5 -3.5 29.5s-5.83301 13.167 -10.5 18.5c-10 10.667 -26.667 16 -50 16h-41c-23.333 0 -40 -5.33301 -50 -16c-4.66699 -5.33301 -8.16699 -11.5 -10.5 -18.5
s-3.5 -16.833 -3.5 -29.5v-107c0 -12.667 1.16699 -22.5 3.5 -29.5s5.83301 -13.167 10.5 -18.5c10 -10.667 26.667 -16 50 -16h41c23.333 0 40 5.33301 50 16c4.66699 5.33301 8.16699 11.5 10.5 18.5s3.5 16.833 3.5 29.5v107z" />
    <glyph glyph-name="yen" unicode="&#xa5;" horiz-adv-x="528" 
d="M230 135v52h-113v48h98l-188 385h70l169 -354l167 354h67l-188 -385h98v-48h-112v-52h112v-48h-112v-87h-68v87h-113v48h113z" />
    <glyph glyph-name="brokenbar" unicode="&#xa6;" horiz-adv-x="209" 
d="M135 -115h-61v339h61v-339zM135 372h-61v339h61v-339z" />
    <glyph glyph-name="section" unicode="&#xa7;" horiz-adv-x="484" 
d="M356 -51c0 22.667 -5.33301 39.667 -16 51s-28.334 18.666 -53.001 21.999l-93 13c-40 5.33301 -70 18.666 -90 39.999s-30 52 -30 92v14c0 12 0.333008 22.333 1 31s2.16699 16.5 4.5 23.5s5.5 13.333 9.5 19s9.33301 11.834 16 18.501l59 60
c-34 7.33301 -59.167 21.333 -75.5 42s-24.5 49 -24.5 85v25c0 22.667 3.33301 42.5 10 59.5s15.667 31.167 27 42.5c13.333 13.333 30.166 23.166 50.499 29.499s42.5 9.5 66.5 9.5h54c31.333 0 57.166 -4.33301 77.499 -13s38.166 -21.667 53.499 -39l-26 -43
c-25.333 25.333 -61.666 38 -108.999 38h-47c-35.333 0 -60.333 -7 -75 -21c-13.333 -13.333 -20 -33.666 -20 -60.999v-24c0 -22.667 5.33301 -39.667 16 -51s28.334 -18.666 53.001 -21.999l93 -13c40 -5.33301 70 -18.5 90 -39.5s30 -51.167 30 -90.5v-18
c0 -12 -0.333008 -22.333 -1 -31s-2.16699 -16.5 -4.5 -23.5s-5.5 -13.333 -9.5 -19s-9.33301 -11.834 -16 -18.501l-57 -59c65.333 -15.333 98 -56.666 98 -123.999v-25c0 -22.667 -3.33301 -42.5 -10 -59.5s-15.667 -31.167 -27 -42.5
c-13.333 -13.333 -30.166 -23.166 -50.499 -29.499s-42.5 -9.5 -66.5 -9.5h-64c-31.333 0 -57.166 4.33301 -77.499 13s-38.166 21.667 -53.499 39l26 43c25.333 -25.333 61.666 -38 108.999 -38h57c35.333 0 60.333 7 75 21c13.333 13.333 20 33.666 20 60.999v22zM233 323
l-70 -72c-11.333 -11.333 -18.666 -20.833 -21.999 -28.5s-5 -18.5 -5 -32.5v-22c0 -22.667 5.33301 -39.667 16 -51s28.334 -18.666 53.001 -21.999l46 -7l68 71c11.333 11.333 18.666 20.833 21.999 28.5s5 18.5 5 32.5v24c0 22.667 -5.33301 39.667 -16 51
s-28.334 18.666 -53.001 21.999z" />
    <glyph glyph-name="dieresis" unicode="&#xa8;" 
d="M105 587c-12 0 -22.667 4.33301 -32 13s-14 19.667 -14 33s4.66699 24.333 14 33s20 13 32 13s22.667 -4.33301 32 -13s14 -19.667 14 -33s-4.66699 -24.333 -14 -33s-20 -13 -32 -13zM275 587c-12 0 -22.667 4.33301 -32 13s-14 19.667 -14 33s4.66699 24.333 14 33
s20 13 32 13s22.667 -4.33301 32 -13s14 -19.667 14 -33s-4.66699 -24.333 -14 -33s-20 -13 -32 -13z" />
    <glyph glyph-name="copyright" unicode="&#xa9;" horiz-adv-x="697" 
d="M643 150c0 -26 -3.33301 -48 -10 -66s-16 -33.667 -28 -47c-27.333 -28.667 -68 -43 -122 -43h-269c-54 0 -94.667 14.333 -122 43c-12 13.333 -21.333 29 -28 47s-10 40 -10 66v320c0 26 3.33301 48 10 66s16 33.667 28 47c27.333 28.667 68 43 122 43h269
c54 0 94.667 -14.333 122 -43c12 -13.333 21.333 -29 28 -47s10 -40 10 -66v-320zM579 470c0 34 -7.66699 58.667 -23 74c-14 15.333 -38 23 -72 23h-271c-34 0 -58 -7.66699 -72 -23c-15.333 -15.333 -23 -40 -23 -74v-320c0 -34 7.66699 -58.667 23 -74
c14 -15.333 38 -23 72 -23h271c34 0 58 7.66699 72 23c15.333 15.333 23 40 23 74v320zM357 180c40.667 0 72 10.999 94 32.999l24 -43c-14 -15.333 -29.5 -26.166 -46.5 -32.499s-39.5 -9.5 -67.5 -9.5h-46c-33.333 0 -57.666 8.66699 -72.999 26c-14 14.667 -21 36 -21 64
v182c0 27.333 7 48.666 21 63.999c15.333 17.333 39.666 26 72.999 26h46c28 0 50.5 -3.16699 67.5 -9.5s32.5 -17.166 46.5 -32.499l-24 -43c-22 22 -53.333 33 -94 33h-38c-16 0 -27.333 -3.33301 -34 -10c-6 -6 -9 -16 -9 -30v-178c0 -14 3 -24 9 -30
c6.66699 -6.66699 18 -10 34 -10h38z" />
    <glyph glyph-name="ordfeminine" unicode="&#xaa;" horiz-adv-x="374" 
d="M44 395c0 31.333 9.00098 56 27.001 74s43 27 75 27h53c15.333 0 31 -2.66699 47 -8l17 -5v27c0 12.667 -1.16699 22.5 -3.5 29.5s-5.83301 13.167 -10.5 18.5c-10 10.667 -26.667 16 -50 16h-28c-19.333 0 -36 -2.5 -50 -7.5s-26.667 -13.167 -38 -24.5l-26 40
c14 15.333 29 26.5 45 33.5s37.667 10.5 65 10.5h39c38 0 66.333 -10 85 -30c19.333 -19.333 29 -46 29 -80v-182c0 -16 -6.66699 -26.667 -20 -32l-33 -13c-6.66699 -2.66699 -12.834 -4.66699 -18.501 -6s-13.167 -2 -22.5 -2h-80c-32 0 -57 9 -75 27s-27 42.667 -27 74
v13zM153.001 446c-20 0 -33.667 -4 -41 -12c-7.33301 -7.33301 -11 -20 -11 -38v-13c0 -18 3.66699 -30.667 11 -38c7.33301 -8 21 -12 41 -12h71c4 0 8 0.666992 12 2l26 9c2 0.666992 3 2 3 4v79c0 4 -2.33301 6.66699 -7 8l-30 8c-8 2 -16 3 -24 3h-51z" />
    <glyph glyph-name="guillemotleft" unicode="&#xab;" horiz-adv-x="615" 
d="M305 108l-34 -46l-199 161c-5.33301 4 -8.66602 7.5 -9.99902 10.5s-2 7.16699 -2 12.5v16c0 5.33301 0.666992 9.5 2 12.5s4.66602 6.5 9.99902 10.5l199 161l34 -46l-180 -146zM549 108l-34 -46l-199 161c-5.33301 4 -8.66602 7.5 -9.99902 10.5s-2 7.16699 -2 12.5v16
c0 5.33301 0.666992 9.5 2 12.5s4.66602 6.5 9.99902 10.5l199 161l34 -46l-180 -146z" />
    <glyph glyph-name="logicalnot" unicode="&#xac;" horiz-adv-x="427" 
d="M321 204v162h-270v55h325v-217h-55z" />
    <glyph glyph-name="uni00AD" unicode="&#xad;" horiz-adv-x="343" 
d="M54 273h235v-60h-235v60z" />
    <glyph glyph-name="registered" unicode="&#xae;" horiz-adv-x="697" 
d="M643 150c0 -26 -3.33301 -48 -10 -66s-16 -33.667 -28 -47c-27.333 -28.667 -68 -43 -122 -43h-269c-54 0 -94.667 14.333 -122 43c-12 13.333 -21.333 29 -28 47s-10 40 -10 66v320c0 26 3.33301 48 10 66s16 33.667 28 47c27.333 28.667 68 43 122 43h269
c54 0 94.667 -14.333 122 -43c12 -13.333 21.333 -29 28 -47s10 -40 10 -66v-320zM579 470c0 34 -7.66699 58.667 -23 74c-14 15.333 -38 23 -72 23h-271c-34 0 -58 -7.66699 -72 -23c-15.333 -15.333 -23 -40 -23 -74v-320c0 -34 7.66699 -58.667 23 -74
c14 -15.333 38 -23 72 -23h271c34 0 58 7.66699 72 23c15.333 15.333 23 40 23 74v320zM276 247l0.000976562 -116.001h-55v334c0 13.333 7 20 21 20h148c33.333 0 57.666 -8.66699 72.999 -26c14 -15.333 21 -36.666 21 -63.999v-58c0 -14.667 -1.5 -25 -4.5 -31
s-8.5 -13 -16.5 -21l-28 -27l52 -127h-58l-46 116h-107zM390.001 294.999c2.66699 0 4.66699 0.167969 6 0.500977s3.33301 1.83301 6 4.5l17 16c2 2 3.33301 3.66699 4 5s1 3.66602 1 6.99902v69c0 14 -3 24 -9 30c-6.66699 6.66699 -18 10 -34 10h-105v-142h114z" />
    <glyph glyph-name="macron" unicode="&#xaf;" 
d="M67 655h246v-53h-246v53z" />
    <glyph glyph-name="degree" unicode="&#xb0;" horiz-adv-x="395" 
d="M278 509c0 12.667 -1.16699 22.5 -3.5 29.5s-5.83301 13.167 -10.5 18.5c-10 10.667 -26.667 16 -50 16h-33c-23.333 0 -40 -5.33301 -50 -16c-4.66699 -5.33301 -8.16699 -11.5 -10.5 -18.5s-3.5 -16.833 -3.5 -29.5v-69c0 -12.667 1.16699 -22.5 3.5 -29.5
s5.83301 -13.167 10.5 -18.5c10 -10.667 26.667 -16 50 -16h33c23.333 0 40 5.33301 50 16c4.66699 5.33301 8.16699 11.5 10.5 18.5s3.5 16.833 3.5 29.5v69zM60 516c0 34 9.66699 60.667 29 80c18.667 20 47 30 85 30h47c38 0 66.333 -10 85 -30
c19.333 -19.333 29 -46 29 -80v-83c0 -34 -9.66699 -60.667 -29 -80c-18.667 -20 -47 -30 -85 -30h-47c-38 0 -66.333 10 -85 30c-19.333 19.333 -29 46 -29 80v83z" />
    <glyph glyph-name="plusminus" unicode="&#xb1;" horiz-adv-x="427" 
d="M242 149h-55v136h-136v55h136v134h55v-134h134v-55h-134v-136zM376 55v-55h-325v55h325z" />
    <glyph glyph-name="twosuperior" unicode="&#xb2;" 
d="M210 626c33.333 0 59 -8.50195 77 -25.502s27 -40.833 27 -71.5v-28c0 -21.333 -3.66699 -37.666 -11 -48.999s-22.666 -22.333 -45.999 -33l-102 -45c-9.33301 -4 -15.833 -8 -19.5 -12s-5.5 -10 -5.5 -18v-52h184v-51h-217c-14.667 0 -22 7.33301 -22 22v76
c0 20.667 3.5 36.834 10.5 48.501s22.167 22.5 45.5 32.5l104 45c10 4.66699 16.333 8.83398 19 12.501s4 9.5 4 17.5v33c0 17.333 -4.5 29.166 -13.5 35.499s-21.833 9.5 -38.5 9.5h-23c-19.333 0 -35.833 -2.5 -49.5 -7.5s-26.834 -13.833 -39.501 -26.5l-26 43
c14.667 15.333 31 26.5 49 33.5s41 10.5 69 10.5h24z" />
    <glyph glyph-name="threesuperior" unicode="&#xb3;" 
d="M164 405c-7.33301 0 -11.001 3.33398 -11.001 10.001v12c0 10 0.666992 17 2 21s5 9.66699 11 17l64 72c10.667 11.333 16.334 22.333 17.001 33h-178v50h225c5.33301 0 8 -2.66699 8 -8v-23c0 -9.33301 -0.333008 -17.5 -1 -24.5s-2.33398 -13.5 -5.00098 -19.5
s-6.16699 -12 -10.5 -18s-9.83301 -13 -16.5 -21l-49 -54c28.667 -1.33301 51.667 -10 69 -26s26 -39.333 26 -70v-31c0 -6.66699 -0.333008 -12.167 -1 -16.5s-1.83398 -8.33301 -3.50098 -12s-4.16699 -7.5 -7.5 -11.5s-7.66602 -8.66699 -12.999 -14l-9 -9
c-5.33301 -5.33301 -10 -9.66602 -14 -12.999s-7.83301 -5.83301 -11.5 -7.5s-7.66699 -2.83398 -12 -3.50098s-9.83301 -1 -16.5 -1h-54c-28 0 -51 3.66699 -69 11s-34.333 18.666 -49 33.999l26 41c12.667 -12.667 25.834 -21.5 39.501 -26.5s30.167 -7.5 49.5 -7.5h54
c6.66699 0 11.667 1.66699 15 5l14 14c4 4 6 8.33301 6 13v37c0 31.333 -19 47 -57 47h-38z" />
    <glyph glyph-name="acute" unicode="&#xb4;" 
d="M233 717c4 4 8.33105 6.00098 12.998 6.00098s8.66699 -2.66699 12 -8l30 -46l-169 -103c-5.33301 -3.33301 -9.66602 -2.33301 -12.999 3l-11 17c-3.33301 5.33301 -2.66602 9.66602 2.00098 12.999z" />
    <glyph glyph-name="mu" unicode="&#xb5;" horiz-adv-x="510" 
d="M129 495l-0.00195312 -403.001c0 -4 2 -7 6 -9l57 -27c2.66699 -1.33301 5 -2.16602 7 -2.49902s5 -0.5 9 -0.5h106c7.33301 0 12.333 0.5 15 1.5s6.66699 3.16699 12 6.5l34 25c4 3.33301 6 7 6 11v398h64v-408c0 -9.33301 -1.83301 -16.833 -5.5 -22.5
s-10.167 -12.167 -19.5 -19.5l-51 -38c-8 -6 -15.333 -9.66699 -22 -11s-17.667 -2 -33 -2h-98c-11.333 0 -20.666 1 -27.999 3s-16.666 6 -27.999 12l-31 17v-216h-64v685h64z" />
    <glyph glyph-name="mu" unicode="&#x3bc;" horiz-adv-x="510" 
d="M129 495l-0.00195312 -403.001c0 -4 2 -7 6 -9l57 -27c2.66699 -1.33301 5 -2.16602 7 -2.49902s5 -0.5 9 -0.5h106c7.33301 0 12.333 0.5 15 1.5s6.66699 3.16699 12 6.5l34 25c4 3.33301 6 7 6 11v398h64v-408c0 -9.33301 -1.83301 -16.833 -5.5 -22.5
s-10.167 -12.167 -19.5 -19.5l-51 -38c-8 -6 -15.333 -9.66699 -22 -11s-17.667 -2 -33 -2h-98c-11.333 0 -20.666 1 -27.999 3s-16.666 6 -27.999 12l-31 17v-216h-64v685h64z" />
    <glyph glyph-name="paragraph" unicode="&#xb6;" horiz-adv-x="497" 
d="M95 368c-16 0 -27.5 3.33301 -34.5 10s-10.5 17.667 -10.5 33v209h417v-57h-68v-769h-61v769h-62v-769h-60v574h-121z" />
    <glyph glyph-name="periodcentered" unicode="&#xb7;" horiz-adv-x="192" 
d="M96 267c-13.333 0 -24.666 4.33301 -33.999 13s-14 20.334 -14 35.001c0 14 4.66699 25.5 14 34.5s20.666 13.5 33.999 13.5s24.666 -4.5 33.999 -13.5s14 -20.5 14 -34.5c0 -14.667 -4.66699 -26.334 -14 -35.001s-20.666 -13 -33.999 -13z" />
    <glyph glyph-name="cedilla" unicode="&#xb8;" 
d="M120 -178l85.001 59l-81 37c-9.33301 4.66699 -15 10.5 -17 17.5s-1.33301 14.833 2 23.5l29 73h40l-13 -66c-0.666992 -4 0.666016 -7 3.99902 -9l81 -38c8.66699 -4 15 -8.5 19 -13.5s6 -11.5 6 -19.5c0 -14 -7 -25.333 -21 -34l-105 -71z" />
    <glyph glyph-name="onesuperior" unicode="&#xb9;" 
d="M92 237v51h75v282h-73v50h108c14.667 0 22 -7.33301 22 -22v-310h60v-51h-192z" />
    <glyph glyph-name="ordmasculine" unicode="&#xba;" horiz-adv-x="373" 
d="M270 509c0 12.667 -1.16699 22.5 -3.5 29.5s-5.83301 13.167 -10.5 18.5c-10 10.667 -26.667 16 -50 16h-39c-23.333 0 -40 -5.33301 -50 -16c-4.66699 -5.33301 -8.16699 -11.5 -10.5 -18.5s-3.5 -16.833 -3.5 -29.5v-111c0 -12.667 1.16699 -22.5 3.5 -29.5
s5.83301 -13.167 10.5 -18.5c10 -10.667 26.667 -16 50 -16h39c23.333 0 40 5.33301 50 16c4.66699 5.33301 8.16699 11.5 10.5 18.5s3.5 16.833 3.5 29.5v111zM46 516c0 34 9.66699 60.667 29 80c18.667 20 47 30 85 30h53c38 0 66.333 -10 85 -30
c19.333 -19.333 29 -46 29 -80v-125c0 -34 -9.66699 -60.667 -29 -80c-18.667 -20 -47 -30 -85 -30h-53c-38 0 -66.333 10 -85 30c-19.333 19.333 -29 46 -29 80v125z" />
    <glyph glyph-name="guillemotright" unicode="&#xbb;" horiz-adv-x="615" 
d="M246 254l-180 146l34 46l199 -161c5.33301 -4 8.66602 -7.5 9.99902 -10.5s2 -7.16699 2 -12.5v-16c0 -5.33301 -0.666992 -9.5 -2 -12.5s-4.66602 -6.5 -9.99902 -10.5l-199 -161l-34 46zM490 254l-180 146l34 46l199 -161c5.33301 -4 8.66602 -7.5 9.99902 -10.5
s2 -7.16699 2 -12.5v-16c0 -5.33301 -0.666992 -9.5 -2 -12.5s-4.66602 -6.5 -9.99902 -10.5l-199 -161l-34 46z" />
    <glyph glyph-name="onequarter" unicode="&#xbc;" horiz-adv-x="850" 
d="M737 259v-127.998h49v-46h-49v-85h-53v85h-180c-4 0 -7.16699 0.5 -9.5 1.5s-4.16602 3.83301 -5.49902 8.5l-3 11c-1.33301 5.33301 -1.83301 9.66602 -1.5 12.999s2.16602 8.66602 5.49902 15.999l118 262h54l-119 -266h141v128h53zM72 237.002v51h75v282h-73v50h108
c14.667 0 22 -7.33301 22 -22v-310h60v-51h-192zM534 620.002h63l-298 -620h-63z" />
    <glyph glyph-name="onehalf" unicode="&#xbd;" horiz-adv-x="850" 
d="M73 237v51h75v282h-73v50h108c14.667 0 22 -7.33301 22 -22v-310h60v-51h-192zM534 620h63l-298 -620h-63zM678 386c33.333 0 59 -8.50195 77 -25.502s27 -40.833 27 -71.5v-28c0 -21.333 -3.66699 -37.666 -11 -48.999s-22.666 -22.333 -45.999 -33l-102 -45
c-9.33301 -4 -15.833 -8 -19.5 -12s-5.5 -10 -5.5 -18v-52h184v-51h-217c-14.667 0 -22 7.33301 -22 22v76c0 20.667 3.5 36.834 10.5 48.501s22.167 22.5 45.5 32.5l104 45c10 4.66699 16.333 8.83398 19 12.501s4 9.5 4 17.5v33c0 17.333 -4.5 29.166 -13.5 35.499
s-21.833 9.5 -38.5 9.5h-23c-19.333 0 -35.833 -2.5 -49.5 -7.5s-26.834 -13.833 -39.501 -26.5l-26 43c14.667 15.333 31 26.5 49 33.5s41 10.5 69 10.5h24z" />
    <glyph glyph-name="threequarters" unicode="&#xbe;" horiz-adv-x="850" 
d="M748 259v-127.998h49v-46h-49v-85h-53v85h-180c-4 0 -7.16699 0.5 -9.5 1.5s-4.16602 3.83301 -5.49902 8.5l-3 11c-1.33301 5.33301 -1.83301 9.66602 -1.5 12.999s2.16602 8.66602 5.49902 15.999l118 262h54l-119 -266h141v128h53zM159 405.002
c-7.33301 0 -11.001 3.33398 -11.001 10.001v12c0 10 0.666992 17 2 21s5 9.66699 11 17l64 72c10.667 11.333 16.334 22.333 17.001 33h-178v50h225c5.33301 0 8 -2.66699 8 -8v-23c0 -9.33301 -0.333008 -17.5 -1 -24.5s-2.33398 -13.5 -5.00098 -19.5
s-6.16699 -12 -10.5 -18s-9.83301 -13 -16.5 -21l-49 -54c28.667 -1.33301 51.667 -10 69 -26s26 -39.333 26 -70v-31c0 -6.66699 -0.333008 -12.167 -1 -16.5s-1.83398 -8.33301 -3.50098 -12s-4.16699 -7.5 -7.5 -11.5s-7.66602 -8.66699 -12.999 -14l-9 -9
c-5.33301 -5.33301 -10 -9.66602 -14 -12.999s-7.83301 -5.83301 -11.5 -7.5s-7.66699 -2.83398 -12 -3.50098s-9.83301 -1 -16.5 -1h-54c-28 0 -51 3.66699 -69 11s-34.333 18.666 -49 33.999l26 41c12.667 -12.667 25.834 -21.5 39.501 -26.5s30.167 -7.5 49.5 -7.5h54
c6.66699 0 11.667 1.66699 15 5l14 14c4 4 6 8.33301 6 13v37c0 31.333 -19 47 -57 47h-38zM544.999 620.003h63l-298 -620h-63z" />
    <glyph glyph-name="questiondown" unicode="&#xbf;" horiz-adv-x="475" 
d="M262.013 501c13.333 0 24.666 -4.33301 33.999 -13c9.33301 -8.66602 13.999 -20.332 13.999 -34.9971c0 -13.999 -4.66602 -25.498 -13.999 -34.4971s-20.666 -13.499 -33.999 -13.499c-13.332 0 -24.665 4.5 -33.998 13.499s-13.999 20.498 -13.999 34.4971
c0 14.665 4.66602 26.3311 13.999 34.9971c9.33301 8.66699 20.666 13 33.998 13zM288.012 -70.9658c22.665 0 42.6631 2.83398 59.9951 8.50098c17.332 5.66602 32.6641 15.165 45.9971 28.498l26.998 -46.9971c-15.332 -17.332 -32.8311 -29.998 -52.4961 -37.998
c-19.666 -7.99902 -45.165 -11.999 -76.4961 -11.999h-67.9951c-53.3301 0 -92.6611 13.666 -117.993 40.998c-23.999 25.3311 -35.998 61.3291 -35.998 107.993v16.999c0 34.665 4.66602 61.6631 13.999 80.9951c10 20.665 29.999 40.9971 59.9971 60.9961l62.9961 40.9971
c9.99902 6.66699 16.665 12.833 19.998 18.499c3.33301 5.66699 4.99902 15.166 4.99902 28.498l1 49.9971h57.9971l1.99902 -55.9961c0.666992 -21.332 -1.49902 -37.1641 -6.49805 -47.4971c-5 -10.333 -14.833 -20.166 -29.498 -29.499l-71.9961 -47.9971
c-20.665 -13.999 -34.1641 -27.665 -40.4971 -40.998s-9.5 -31.665 -9.5 -54.9961v-14c0 -17.999 1.83301 -32.8311 5.5 -44.4971s9.16699 -21.165 16.5 -28.498c14.665 -14.666 39.3301 -21.999 73.9951 -21.999h56.9971z" />
    <glyph glyph-name="Agrave" unicode="&#xc0;" horiz-adv-x="570" 
d="M308 549c-2 6 -3.83301 10.167 -5.5 12.5s-5.5 3.5 -11.5 3.5h-13c-6 0 -9.83301 -1.16699 -11.5 -3.5s-3.5 -6.5 -5.5 -12.5l-101 -334h248zM540 0h-69.002l-46 157h-281l-45 -157h-69l174 574c6 20 13.833 33.667 23.5 41s24.834 11 45.501 11h23
c20.667 0 35.834 -3.66699 45.501 -11s17.5 -21 23.5 -41zM377.998 709c4.66699 -3.33301 5.33203 -7.66699 1.99902 -13l-11 -17c-3.33301 -5.33301 -7.66602 -6.33301 -12.999 -3l-169 103l30 46c3.33301 5.33301 7.33301 8 12 8s9 -2 13 -6z" />
    <glyph glyph-name="Aacute" unicode="&#xc1;" horiz-adv-x="570" 
d="M308 549c-2 6 -3.83301 10.167 -5.5 12.5s-5.5 3.5 -11.5 3.5h-13c-6 0 -9.83301 -1.16699 -11.5 -3.5s-3.5 -6.5 -5.5 -12.5l-101 -334h248zM540 0h-69.002l-46 157h-281l-45 -157h-69l174 574c6 20 13.833 33.667 23.5 41s24.834 11 45.501 11h23
c20.667 0 35.834 -3.66699 45.501 -11s17.5 -21 23.5 -41zM327.998 827c4 4 8.33105 6.00098 12.998 6.00098s8.66699 -2.66699 12 -8l30 -46l-169 -103c-5.33301 -3.33301 -9.66602 -2.33301 -12.999 3l-11 17c-3.33301 5.33301 -2.66602 9.66602 2.00098 12.999z" />
    <glyph glyph-name="Acircumflex" unicode="&#xc2;" horiz-adv-x="570" 
d="M308 549c-2 6 -3.83301 10.167 -5.5 12.5s-5.5 3.5 -11.5 3.5h-13c-6 0 -9.83301 -1.16699 -11.5 -3.5s-3.5 -6.5 -5.5 -12.5l-101 -334h248zM540 0h-69.002l-46 157h-281l-45 -157h-69l174 574c6 20 13.833 33.667 23.5 41s24.834 11 45.501 11h23
c20.667 0 35.834 -3.66699 45.501 -11s17.5 -21 23.5 -41zM289.998 840c7.33301 0 13 -1 17 -3s8.33301 -5.66699 13 -11l111 -138h-64l-81 103l-83 -103h-64l111 138c4.66699 5.33301 9 9 13 11s9.33301 3 16 3h11z" />
    <glyph glyph-name="Atilde" unicode="&#xc3;" horiz-adv-x="570" 
d="M308 549c-2 6 -3.83301 10.167 -5.5 12.5s-5.5 3.5 -11.5 3.5h-13c-6 0 -9.83301 -1.16699 -11.5 -3.5s-3.5 -6.5 -5.5 -12.5l-101 -334h248zM540 0h-69.002l-46 157h-281l-45 -157h-69l174 574c6 20 13.833 33.667 23.5 41s24.834 11 45.501 11h23
c20.667 0 35.834 -3.66699 45.501 -11s17.5 -21 23.5 -41zM425.998 799l24 -32l-36 -31c-15.333 -12.667 -28.666 -22 -39.999 -28s-23.666 -9 -36.999 -9s-24.5 2.33301 -33.5 7s-17.5 9.66699 -25.5 15s-15.667 10.333 -23 15s-16 7 -26 7c-7.33301 0 -13.5 -1 -18.5 -3
s-10.833 -5 -17.5 -9l-50 -32l-24 32l36 32c15.333 13.333 28.666 22.833 39.999 28.5s23.666 8.5 36.999 8.5c12.667 0 23.667 -2.33301 33 -7s18 -9.66699 26 -15s15.667 -10.333 23 -15s16 -7 26 -7c7.33301 0 13.5 1 18.5 3s10.833 5 17.5 9z" />
    <glyph glyph-name="Adieresis" unicode="&#xc4;" horiz-adv-x="570" 
d="M308 549c-2 6 -3.83301 10.167 -5.5 12.5s-5.5 3.5 -11.5 3.5h-13c-6 0 -9.83301 -1.16699 -11.5 -3.5s-3.5 -6.5 -5.5 -12.5l-101 -334h248zM540 0h-69.002l-46 157h-281l-45 -157h-69l174 574c6 20 13.833 33.667 23.5 41s24.834 11 45.501 11h23
c20.667 0 35.834 -3.66699 45.501 -11s17.5 -21 23.5 -41zM199.998 697c-12 0 -22.667 4.33301 -32 13s-14 19.667 -14 33s4.66699 24.333 14 33s20 13 32 13s22.667 -4.33301 32 -13s14 -19.667 14 -33s-4.66699 -24.333 -14 -33s-20 -13 -32 -13zM369.998 697
c-12 0 -22.667 4.33301 -32 13s-14 19.667 -14 33s4.66699 24.333 14 33s20 13 32 13s22.667 -4.33301 32 -13s14 -19.667 14 -33s-4.66699 -24.333 -14 -33s-20 -13 -32 -13z" />
    <glyph glyph-name="Aring" unicode="&#xc5;" horiz-adv-x="570" 
d="M308 549c-2 6 -3.83301 10.167 -5.5 12.5s-5.5 3.5 -11.5 3.5h-13c-6 0 -9.83301 -1.16699 -11.5 -3.5s-3.5 -6.5 -5.5 -12.5l-101 -334h248zM540 0h-69.002l-46 157h-281l-45 -157h-69l174 574c6 20 13.833 33.667 23.5 41s24.834 11 45.501 11h23
c20.667 0 35.834 -3.66699 45.501 -11s17.5 -21 23.5 -41zM375.998 736c0 -26 -7.5 -45.167 -22.5 -57.5s-34.167 -18.5 -57.5 -18.5h-22c-23.333 0 -42.5 6.16699 -57.5 18.5s-22.5 31.5 -22.5 57.5v33c0 26 7.5 45.167 22.5 57.5s34.167 18.5 57.5 18.5h22
c23.333 0 42.5 -6.16699 57.5 -18.5s22.5 -31.5 22.5 -57.5v-33zM330.998 768c0 23.333 -12.667 35 -38 35h-16c-25.333 0 -38 -11.667 -38 -35v-31c0 -23.333 12.667 -35 38 -35h16c25.333 0 38 11.667 38 35v31z" />
    <glyph glyph-name="AE" unicode="&#xc6;" horiz-adv-x="842" 
d="M417 157h-244.999l-80 -157h-72l296 570c5.33301 10.667 10.5 19.334 15.5 26.001s10.167 11.667 15.5 15s11.666 5.66602 18.999 6.99902s16 2 26 2h391v-57h-298v-223h248v-57h-248v-226h305v-57h-355c-12 -0 -18 6.33301 -18 19v138zM201.001 213h216.001v350h-24
c-5.33301 0 -8.83301 -0.5 -10.5 -1.5s-3.83398 -3.83301 -6.50098 -8.5z" />
    <glyph glyph-name="Ccedilla" unicode="&#xc7;" horiz-adv-x="517" 
d="M237 -178l85.001 59l-81 37c-9.33301 4.66699 -15 10.5 -17 17.5s-1.33301 14.833 2 23.5l14 35h-26c-54 0 -94.667 14.333 -122 43c-12 13.333 -21.333 29 -28 47s-10 40 -10 66v320c0 26 3.33301 48 10 66s16 33.667 28 47c27.333 28.667 68 43 122 43h116
c34 0 61.833 -4.5 83.5 -13.5s40.834 -23.167 57.501 -42.5l-29 -51c-14 14 -30.5 24.833 -49.5 32.5s-41.167 11.5 -66.5 11.5h-109c-34 0 -58 -7.66699 -72 -23c-15.333 -15.333 -23 -40 -23 -74v-312c0 -34 7.66699 -58.667 23 -74c14 -15.333 38 -23 72 -23h113
c25.333 0 47.5 3.83301 66.5 11.5s35.5 18.5 49.5 32.5l29 -51c-16.667 -19.333 -35.834 -33.5 -57.501 -42.5s-49.5 -13.5 -83.5 -13.5h-47l-5 -28c-0.666992 -4 0.666016 -7 3.99902 -9l81 -38c8.66699 -4 15 -8.5 19 -13.5s6 -11.5 6 -19.5c0 -14 -7 -25.333 -21 -34
l-105 -71z" />
    <glyph glyph-name="Egrave" unicode="&#xc8;" horiz-adv-x="496" 
d="M71 601c0 12.667 6 19 18 19h348v-57h-298v-223h248v-57h-248v-226h305v-57h-355c-12 -0 -18 6.33301 -18 19v582zM361 709c4.66699 -3.33301 5.33203 -7.66699 1.99902 -13l-11 -17c-3.33301 -5.33301 -7.66602 -6.33301 -12.999 -3l-169 103l30 46
c3.33301 5.33301 7.33301 8 12 8s9 -2 13 -6z" />
    <glyph glyph-name="Eacute" unicode="&#xc9;" horiz-adv-x="496" 
d="M71 601c0 12.667 6 19 18 19h348v-57h-298v-223h248v-57h-248v-226h305v-57h-355c-12 -0 -18 6.33301 -18 19v582zM319 827c4 4 8.33105 6.00098 12.998 6.00098s8.66699 -2.66699 12 -8l30 -46l-169 -103c-5.33301 -3.33301 -9.66602 -2.33301 -12.999 3l-11 17
c-3.33301 5.33301 -2.66602 9.66602 2.00098 12.999z" />
    <glyph glyph-name="Ecircumflex" unicode="&#xca;" horiz-adv-x="496" 
d="M71 601c0 12.667 6 19 18 19h348v-57h-298v-223h248v-57h-248v-226h305v-57h-355c-12 -0 -18 6.33301 -18 19v582zM273 840c7.33301 0 13 -1 17 -3s8.33301 -5.66699 13 -11l111 -138h-64l-81 103l-83 -103h-64l111 138c4.66699 5.33301 9 9 13 11s9.33301 3 16 3h11z
" />
    <glyph glyph-name="Edieresis" unicode="&#xcb;" horiz-adv-x="496" 
d="M71 601c0 12.667 6 19 18 19h348v-57h-298v-223h248v-57h-248v-226h305v-57h-355c-12 -0 -18 6.33301 -18 19v582zM173 697c-12 0 -22.667 4.33301 -32 13s-14 19.667 -14 33s4.66699 24.333 14 33s20 13 32 13s22.667 -4.33301 32 -13s14 -19.667 14 -33
s-4.66699 -24.333 -14 -33s-20 -13 -32 -13zM343 697c-12 0 -22.667 4.33301 -32 13s-14 19.667 -14 33s4.66699 24.333 14 33s20 13 32 13s22.667 -4.33301 32 -13s14 -19.667 14 -33s-4.66699 -24.333 -14 -33s-20 -13 -32 -13z" />
    <glyph glyph-name="Igrave" unicode="&#xcc;" horiz-adv-x="214" 
d="M73 620h68v-620h-68v620zM201 709c4.66699 -3.33301 5.33203 -7.66699 1.99902 -13l-11 -17c-3.33301 -5.33301 -7.66602 -6.33301 -12.999 -3l-169 103l30 46c3.33301 5.33301 7.33301 8 12 8s9 -2 13 -6z" />
    <glyph glyph-name="Iacute" unicode="&#xcd;" horiz-adv-x="214" 
d="M73 620h68v-620h-68v620zM161 827c4 4 8.33105 6.00098 12.998 6.00098s8.66699 -2.66699 12 -8l30 -46l-169 -103c-5.33301 -3.33301 -9.66602 -2.33301 -12.999 3l-11 17c-3.33301 5.33301 -2.66602 9.66602 2.00098 12.999z" />
    <glyph glyph-name="Icircumflex" unicode="&#xce;" horiz-adv-x="214" 
d="M73 620h68v-620h-68v620zM113 840c7.33301 0 13 -1 17 -3s8.33301 -5.66699 13 -11l111 -138h-64l-81 103l-83 -103h-64l111 138c4.66699 5.33301 9 9 13 11s9.33301 3 16 3h11z" />
    <glyph glyph-name="Idieresis" unicode="&#xcf;" horiz-adv-x="214" 
d="M73 620h68v-620h-68v620zM23 697c-12 0 -22.667 4.33301 -32 13s-14 19.667 -14 33s4.66699 24.333 14 33s20 13 32 13s22.667 -4.33301 32 -13s14 -19.667 14 -33s-4.66699 -24.333 -14 -33s-20 -13 -32 -13zM193 697c-12 0 -22.667 4.33301 -32 13s-14 19.667 -14 33
s4.66699 24.333 14 33s20 13 32 13s22.667 -4.33301 32 -13s14 -19.667 14 -33s-4.66699 -24.333 -14 -33s-20 -13 -32 -13z" />
    <glyph glyph-name="Eth" unicode="&#xd0;" horiz-adv-x="589" 
d="M85 337v264c0 12.667 6 19 18 19h278c50 0 88.333 -14 115 -42c12.667 -13.333 22.334 -29.333 29.001 -48s10 -41 10 -67v-306c0 -25.333 -3.33301 -47.5 -10 -66.5s-16.334 -35.167 -29.001 -48.5c-26.667 -28 -65 -42 -115 -42h-278c-12 -0 -18 6.33301 -18 19v266
h-61v52h61zM366 58c36.667 0 62.334 8 77.001 24c16 16 24 40.333 24 73v310c0 32.667 -8 57 -24 73c-14.667 16 -40.334 24 -77.001 24h-213v-225h150v-52h-150v-227h213z" />
    <glyph glyph-name="Ntilde" unicode="&#xd1;" horiz-adv-x="615" 
d="M202 418c-17.333 27.333 -31.833 51.167 -43.5 71.5s-20.167 36.166 -25.5 47.499v-537h-62v588c0 14.667 2.66699 23.667 8 27s16 5 32 5h3c13.333 0 24 -1.83301 32 -5.5s15.667 -11.5 23 -23.5l244 -392c16.667 -26 31 -49.667 43 -71s20.667 -37.666 26 -48.999v541
h62v-591c0 -14.667 -2.66699 -23.667 -8 -27s-16 -5 -32 -5h-3c-13.333 0 -23.833 1.83301 -31.5 5.5s-15.167 11.5 -22.5 23.5zM454 799.001l24 -32l-36 -31c-15.333 -12.667 -28.666 -22 -39.999 -28s-23.666 -9 -36.999 -9s-24.5 2.33301 -33.5 7s-17.5 9.66699 -25.5 15
s-15.667 10.333 -23 15s-16 7 -26 7c-7.33301 0 -13.5 -1 -18.5 -3s-10.833 -5 -17.5 -9l-50 -32l-24 32l36 32c15.333 13.333 28.666 22.833 39.999 28.5s23.666 8.5 36.999 8.5c12.667 0 23.667 -2.33301 33 -7s18 -9.66699 26 -15s15.667 -10.333 23 -15s16 -7 26 -7
c7.33301 0 13.5 1 18.5 3s10.833 5 17.5 9z" />
    <glyph glyph-name="Ograve" unicode="&#xd2;" horiz-adv-x="577" 
d="M523 150c0 -26 -3.33301 -48 -10 -66s-16 -33.667 -28 -47c-27.333 -28.667 -68 -43 -122 -43h-149c-54 0 -94.667 14.333 -122 43c-12 13.333 -21.333 29 -28 47s-10 40 -10 66v320c0 26 3.33301 48 10 66s16 33.667 28 47c27.333 28.667 68 43 122 43h149
c54 0 94.667 -14.333 122 -43c12 -13.333 21.333 -29 28 -47s10 -40 10 -66v-320zM455 466c0 34 -7.66699 58.667 -23 74c-14 15.333 -38 23 -72 23h-143c-34 0 -58 -7.66699 -72 -23c-15.333 -15.333 -23 -40 -23 -74v-312c0 -34 7.66699 -58.667 23 -74
c14 -15.333 38 -23 72 -23h143c34 0 58 7.66699 72 23c15.333 15.333 23 40 23 74v312zM381 709c4.66699 -3.33301 5.33203 -7.66699 1.99902 -13l-11 -17c-3.33301 -5.33301 -7.66602 -6.33301 -12.999 -3l-169 103l30 46c3.33301 5.33301 7.33301 8 12 8s9 -2 13 -6z" />
    <glyph glyph-name="Oacute" unicode="&#xd3;" horiz-adv-x="577" 
d="M523 150c0 -26 -3.33301 -48 -10 -66s-16 -33.667 -28 -47c-27.333 -28.667 -68 -43 -122 -43h-149c-54 0 -94.667 14.333 -122 43c-12 13.333 -21.333 29 -28 47s-10 40 -10 66v320c0 26 3.33301 48 10 66s16 33.667 28 47c27.333 28.667 68 43 122 43h149
c54 0 94.667 -14.333 122 -43c12 -13.333 21.333 -29 28 -47s10 -40 10 -66v-320zM455 466c0 34 -7.66699 58.667 -23 74c-14 15.333 -38 23 -72 23h-143c-34 0 -58 -7.66699 -72 -23c-15.333 -15.333 -23 -40 -23 -74v-312c0 -34 7.66699 -58.667 23 -74
c14 -15.333 38 -23 72 -23h143c34 0 58 7.66699 72 23c15.333 15.333 23 40 23 74v312zM341 827c4 4 8.33105 6.00098 12.998 6.00098s8.66699 -2.66699 12 -8l30 -46l-169 -103c-5.33301 -3.33301 -9.66602 -2.33301 -12.999 3l-11 17
c-3.33301 5.33301 -2.66602 9.66602 2.00098 12.999z" />
    <glyph glyph-name="Ocircumflex" unicode="&#xd4;" horiz-adv-x="577" 
d="M523 150c0 -26 -3.33301 -48 -10 -66s-16 -33.667 -28 -47c-27.333 -28.667 -68 -43 -122 -43h-149c-54 0 -94.667 14.333 -122 43c-12 13.333 -21.333 29 -28 47s-10 40 -10 66v320c0 26 3.33301 48 10 66s16 33.667 28 47c27.333 28.667 68 43 122 43h149
c54 0 94.667 -14.333 122 -43c12 -13.333 21.333 -29 28 -47s10 -40 10 -66v-320zM455 466c0 34 -7.66699 58.667 -23 74c-14 15.333 -38 23 -72 23h-143c-34 0 -58 -7.66699 -72 -23c-15.333 -15.333 -23 -40 -23 -74v-312c0 -34 7.66699 -58.667 23 -74
c14 -15.333 38 -23 72 -23h143c34 0 58 7.66699 72 23c15.333 15.333 23 40 23 74v312zM293 840c7.33301 0 13 -1 17 -3s8.33301 -5.66699 13 -11l111 -138h-64l-81 103l-83 -103h-64l111 138c4.66699 5.33301 9 9 13 11s9.33301 3 16 3h11z" />
    <glyph glyph-name="Otilde" unicode="&#xd5;" horiz-adv-x="577" 
d="M523 150c0 -26 -3.33301 -48 -10 -66s-16 -33.667 -28 -47c-27.333 -28.667 -68 -43 -122 -43h-149c-54 0 -94.667 14.333 -122 43c-12 13.333 -21.333 29 -28 47s-10 40 -10 66v320c0 26 3.33301 48 10 66s16 33.667 28 47c27.333 28.667 68 43 122 43h149
c54 0 94.667 -14.333 122 -43c12 -13.333 21.333 -29 28 -47s10 -40 10 -66v-320zM455 466c0 34 -7.66699 58.667 -23 74c-14 15.333 -38 23 -72 23h-143c-34 0 -58 -7.66699 -72 -23c-15.333 -15.333 -23 -40 -23 -74v-312c0 -34 7.66699 -58.667 23 -74
c14 -15.333 38 -23 72 -23h143c34 0 58 7.66699 72 23c15.333 15.333 23 40 23 74v312zM430 799l24 -32l-36 -31c-15.333 -12.667 -28.666 -22 -39.999 -28s-23.666 -9 -36.999 -9s-24.5 2.33301 -33.5 7s-17.5 9.66699 -25.5 15s-15.667 10.333 -23 15s-16 7 -26 7
c-7.33301 0 -13.5 -1 -18.5 -3s-10.833 -5 -17.5 -9l-50 -32l-24 32l36 32c15.333 13.333 28.666 22.833 39.999 28.5s23.666 8.5 36.999 8.5c12.667 0 23.667 -2.33301 33 -7s18 -9.66699 26 -15s15.667 -10.333 23 -15s16 -7 26 -7c7.33301 0 13.5 1 18.5 3
s10.833 5 17.5 9z" />
    <glyph glyph-name="Odieresis" unicode="&#xd6;" horiz-adv-x="577" 
d="M523 150c0 -26 -3.33301 -48 -10 -66s-16 -33.667 -28 -47c-27.333 -28.667 -68 -43 -122 -43h-149c-54 0 -94.667 14.333 -122 43c-12 13.333 -21.333 29 -28 47s-10 40 -10 66v320c0 26 3.33301 48 10 66s16 33.667 28 47c27.333 28.667 68 43 122 43h149
c54 0 94.667 -14.333 122 -43c12 -13.333 21.333 -29 28 -47s10 -40 10 -66v-320zM455 466c0 34 -7.66699 58.667 -23 74c-14 15.333 -38 23 -72 23h-143c-34 0 -58 -7.66699 -72 -23c-15.333 -15.333 -23 -40 -23 -74v-312c0 -34 7.66699 -58.667 23 -74
c14 -15.333 38 -23 72 -23h143c34 0 58 7.66699 72 23c15.333 15.333 23 40 23 74v312zM203 697c-12 0 -22.667 4.33301 -32 13s-14 19.667 -14 33s4.66699 24.333 14 33s20 13 32 13s22.667 -4.33301 32 -13s14 -19.667 14 -33s-4.66699 -24.333 -14 -33s-20 -13 -32 -13z
M373 697c-12 0 -22.667 4.33301 -32 13s-14 19.667 -14 33s4.66699 24.333 14 33s20 13 32 13s22.667 -4.33301 32 -13s14 -19.667 14 -33s-4.66699 -24.333 -14 -33s-20 -13 -32 -13z" />
    <glyph glyph-name="multiply" unicode="&#xd7;" horiz-adv-x="427" 
d="M349 217l-39 -39l-97 96l-96 -96l-39 39l97 96l-95 95l39 39l94 -95l95 95l39 -39l-95 -95z" />
    <glyph glyph-name="Oslash" unicode="&#xd8;" horiz-adv-x="577" 
d="M162 -1c-29.333 6 -52.667 18.667 -70 38c-12 13.333 -21.333 29 -28 47s-10 40 -10 66v320c0 26 3.33301 48 10 66s16 33.667 28 47c27.333 28.667 68 43 122 43h143l28 89h60l-30 -95c28 -6 51.333 -18.333 70 -37c12 -13.333 21.333 -29 28 -47s10 -40 10 -66v-320
c0 -26 -3.33301 -48 -10 -66s-16 -33.667 -28 -47c-27.333 -28.667 -68 -43 -122 -43h-143l-27 -89h-60zM144.999 80c8.66699 -10 20.667 -16.333 36 -19l157 502h-121c-34 0 -58 -7.66699 -72 -23c-15.333 -15.333 -23 -40 -23 -74v-312c0 -34 7.66699 -58.667 23 -74z
M454.999 466c0 34 -7.66699 58.667 -23 74c-8.66699 8.66699 -20.667 15 -36 19l-156 -502h120c34 0 58 7.66699 72 23c15.333 15.333 23 40 23 74v312z" />
    <glyph glyph-name="Ugrave" unicode="&#xd9;" horiz-adv-x="583" 
d="M226 -6c-54 0 -94.665 14.3311 -121.998 42.998c-12 13.333 -21.333 29 -28 47s-10 40 -10 66v470h68v-466c0 -34 7.66699 -58.667 23 -74c14 -15.333 38 -23 72 -23h146c7.33301 0 12.666 0.333008 15.999 1s7.66602 2.66699 12.999 6l36 23
c3.33301 2 5.16602 3.5 5.49902 4.5s0.5 3.16699 0.5 6.5v522h67v-537c0 -9.33301 -1.66699 -16.666 -5 -21.999s-10.666 -11.666 -21.999 -18.999l-56 -35c-8.66699 -5.33301 -17 -8.83301 -25 -10.5s-19.667 -2.5 -35 -2.5h-144zM384.002 708.998
c4.66699 -3.33301 5.33203 -7.66699 1.99902 -13l-11 -17c-3.33301 -5.33301 -7.66602 -6.33301 -12.999 -3l-169 103l30 46c3.33301 5.33301 7.33301 8 12 8s9 -2 13 -6z" />
    <glyph glyph-name="Uacute" unicode="&#xda;" horiz-adv-x="583" 
d="M226 -6c-54 0 -94.665 14.3311 -121.998 42.998c-12 13.333 -21.333 29 -28 47s-10 40 -10 66v470h68v-466c0 -34 7.66699 -58.667 23 -74c14 -15.333 38 -23 72 -23h146c7.33301 0 12.666 0.333008 15.999 1s7.66602 2.66699 12.999 6l36 23
c3.33301 2 5.16602 3.5 5.49902 4.5s0.5 3.16699 0.5 6.5v522h67v-537c0 -9.33301 -1.66699 -16.666 -5 -21.999s-10.666 -11.666 -21.999 -18.999l-56 -35c-8.66699 -5.33301 -17 -8.83301 -25 -10.5s-19.667 -2.5 -35 -2.5h-144zM354.002 826.998
c4 4 8.33105 6.00098 12.998 6.00098s8.66699 -2.66699 12 -8l30 -46l-169 -103c-5.33301 -3.33301 -9.66602 -2.33301 -12.999 3l-11 17c-3.33301 5.33301 -2.66602 9.66602 2.00098 12.999z" />
    <glyph glyph-name="Ucircumflex" unicode="&#xdb;" horiz-adv-x="583" 
d="M226 -6c-54 0 -94.665 14.3311 -121.998 42.998c-12 13.333 -21.333 29 -28 47s-10 40 -10 66v470h68v-466c0 -34 7.66699 -58.667 23 -74c14 -15.333 38 -23 72 -23h146c7.33301 0 12.666 0.333008 15.999 1s7.66602 2.66699 12.999 6l36 23
c3.33301 2 5.16602 3.5 5.49902 4.5s0.5 3.16699 0.5 6.5v522h67v-537c0 -9.33301 -1.66699 -16.666 -5 -21.999s-10.666 -11.666 -21.999 -18.999l-56 -35c-8.66699 -5.33301 -17 -8.83301 -25 -10.5s-19.667 -2.5 -35 -2.5h-144zM296.002 839.998c7.33301 0 13 -1 17 -3
s8.33301 -5.66699 13 -11l111 -138h-64l-81 103l-83 -103h-64l111 138c4.66699 5.33301 9 9 13 11s9.33301 3 16 3h11z" />
    <glyph glyph-name="Udieresis" unicode="&#xdc;" horiz-adv-x="583" 
d="M226 -6c-54 0 -94.665 14.3311 -121.998 42.998c-12 13.333 -21.333 29 -28 47s-10 40 -10 66v470h68v-466c0 -34 7.66699 -58.667 23 -74c14 -15.333 38 -23 72 -23h146c7.33301 0 12.666 0.333008 15.999 1s7.66602 2.66699 12.999 6l36 23
c3.33301 2 5.16602 3.5 5.49902 4.5s0.5 3.16699 0.5 6.5v522h67v-537c0 -9.33301 -1.66699 -16.666 -5 -21.999s-10.666 -11.666 -21.999 -18.999l-56 -35c-8.66699 -5.33301 -17 -8.83301 -25 -10.5s-19.667 -2.5 -35 -2.5h-144zM206.002 696.998
c-12 0 -22.667 4.33301 -32 13s-14 19.667 -14 33s4.66699 24.333 14 33s20 13 32 13s22.667 -4.33301 32 -13s14 -19.667 14 -33s-4.66699 -24.333 -14 -33s-20 -13 -32 -13zM376.002 696.998c-12 0 -22.667 4.33301 -32 13s-14 19.667 -14 33s4.66699 24.333 14 33
s20 13 32 13s22.667 -4.33301 32 -13s14 -19.667 14 -33s-4.66699 -24.333 -14 -33s-20 -13 -32 -13z" />
    <glyph glyph-name="Yacute" unicode="&#xdd;" horiz-adv-x="511" 
d="M430 620h70l-203 -400c-3.33301 -7.33301 -5.33301 -12.333 -6 -15s-1 -6.66699 -1 -12v-193h-68v192c0 5.33301 -0.333008 9.5 -1 12.5s-2.66699 8.16699 -6 15.5l-204 400h73l173 -349zM318 827c4 4 8.33105 6.00098 12.998 6.00098s8.66699 -2.66699 12 -8l30 -46
l-169 -103c-5.33301 -3.33301 -9.66602 -2.33301 -12.999 3l-11 17c-3.33301 5.33301 -2.66602 9.66602 2.00098 12.999z" />
    <glyph glyph-name="Thorn" unicode="&#xde;" horiz-adv-x="534" 
d="M492 244c0 -11.333 -0.333008 -20.667 -1 -28s-2.16699 -13.833 -4.5 -19.5s-5.5 -11 -9.5 -16s-9.33301 -10.833 -16 -17.5l-30 -30c-12 -12 -23.5 -20 -34.5 -24s-26.167 -6 -45.5 -6h-212v-103h-68v620h68v-100h199c53.333 0 93 -13.333 119 -40
c23.333 -24.667 35 -60 35 -106v-130zM139 462.999v-303h210c8.66699 0 15.167 0.833008 19.5 2.5s9.5 5.5 15.5 11.5l25 25c6 6 10.167 11.333 12.5 16s3.5 11 3.5 19v131c0 35.333 -7 60.333 -21 75c-15.333 15.333 -43 23 -83 23h-182z" />
    <glyph glyph-name="germandbls" unicode="&#xdf;" horiz-adv-x="564" 
d="M218 -6l0.00585938 58.999h127c34 0 58.333 7.33301 73 22c7.33301 7.33301 12.833 16.833 16.5 28.5s5.5 26.5 5.5 44.5v121c0 8 -0.833008 14 -2.5 18s-5.83398 9.33301 -12.501 16l-21 21c-6.66699 6.66699 -12 10.667 -16 12s-11 2 -21 2h-122v59h99
c9.33301 0 16 0.833008 20 2.5s8.66699 5.16699 14 10.5l18 18c6.66699 6.66699 10.667 12 12 16s2 9.66699 2 17v76c0 18 -1.83301 32.833 -5.5 44.5s-9.16699 21.167 -16.5 28.5c-14.667 14.667 -39 22 -73 22h-89c-34.667 0 -59.334 -7.33301 -74.001 -22
c-7.33301 -7.33301 -12.833 -16.833 -16.5 -28.5s-5.5 -26.5 -5.5 -44.5v-723h-64v728c0 46.667 12 82.667 36 108c25.333 27.333 64.666 41 117.999 41h100c53.333 0 92.666 -13.667 117.999 -41c24 -25.333 36 -61.333 36 -108v-69
c0 -11.333 -0.333008 -20.666 -1 -27.999s-2.33398 -13.833 -5.00098 -19.5s-6.16699 -11.167 -10.5 -16.5s-9.83301 -11.333 -16.5 -18l-9 -9l39 -39c6.66699 -6.66699 12.167 -12.667 16.5 -18s7.66602 -10.833 9.99902 -16.5s4 -12 5 -19s1.5 -15.833 1.5 -26.5v-120
c0 -47.333 -12 -83.333 -36 -108c-12 -13.333 -27.833 -23.5 -47.5 -30.5s-43.167 -10.5 -70.5 -10.5h-132z" />
    <glyph glyph-name="agrave" unicode="&#xe0;" horiz-adv-x="503" 
d="M210 252c-35.333 0 -60 -6.99805 -74 -20.998c-14.667 -14.667 -22 -39.334 -22 -74.001v-11c0 -34.667 7.33301 -59.334 22 -74.001c14 -14 38.667 -21 74 -21h98c7.33301 0 12.333 0.5 15 1.5s6.66699 3.16699 12 6.5l36 27c4 3.33301 6 7 6 11v143c0 8 -3 12 -9 12
h-158zM377 309.002l0.000976562 39c0 18 -1.83301 32.833 -5.5 44.5s-9.16699 21.167 -16.5 28.5c-14.667 14.667 -39.334 22 -74.001 22h-76c-22 0 -41.833 -2.83301 -59.5 -8.5s-33.167 -15.167 -46.5 -28.5l-27 45c15.333 17.333 32.833 30 52.5 38s45.167 12 76.5 12h86
c27.333 0 50.833 -3.5 70.5 -10.5s35.5 -17.167 47.5 -30.5c24 -25.333 36 -61.333 36 -108v-265c0 -9.33301 -1.83301 -16.833 -5.5 -22.5s-10.167 -12.167 -19.5 -19.5l-51 -38c-8 -6 -15.333 -9.66699 -22 -11s-17.667 -2 -33 -2h-106
c-53.333 0 -92.666 13.667 -117.999 41c-24 24.667 -36 60.667 -36 108v17c0 46.667 12 82.667 36 108c25.333 27.333 64.666 41 117.999 41h173zM344.001 599.002c4.66699 -3.33301 5.33203 -7.66699 1.99902 -13l-11 -17c-3.33301 -5.33301 -7.66602 -6.33301 -12.999 -3
l-169 103l30 46c3.33301 5.33301 7.33301 8 12 8s9 -2 13 -6z" />
    <glyph glyph-name="aacute" unicode="&#xe1;" horiz-adv-x="503" 
d="M210 252c-35.333 0 -60 -6.99805 -74 -20.998c-14.667 -14.667 -22 -39.334 -22 -74.001v-11c0 -34.667 7.33301 -59.334 22 -74.001c14 -14 38.667 -21 74 -21h98c7.33301 0 12.333 0.5 15 1.5s6.66699 3.16699 12 6.5l36 27c4 3.33301 6 7 6 11v143c0 8 -3 12 -9 12
h-158zM377 309.002l0.000976562 39c0 18 -1.83301 32.833 -5.5 44.5s-9.16699 21.167 -16.5 28.5c-14.667 14.667 -39.334 22 -74.001 22h-76c-22 0 -41.833 -2.83301 -59.5 -8.5s-33.167 -15.167 -46.5 -28.5l-27 45c15.333 17.333 32.833 30 52.5 38s45.167 12 76.5 12h86
c27.333 0 50.833 -3.5 70.5 -10.5s35.5 -17.167 47.5 -30.5c24 -25.333 36 -61.333 36 -108v-265c0 -9.33301 -1.83301 -16.833 -5.5 -22.5s-10.167 -12.167 -19.5 -19.5l-51 -38c-8 -6 -15.333 -9.66699 -22 -11s-17.667 -2 -33 -2h-106
c-53.333 0 -92.666 13.667 -117.999 41c-24 24.667 -36 60.667 -36 108v17c0 46.667 12 82.667 36 108c25.333 27.333 64.666 41 117.999 41h173zM307.001 717.002c4 4 8.33105 6.00098 12.998 6.00098s8.66699 -2.66699 12 -8l30 -46l-169 -103
c-5.33301 -3.33301 -9.66602 -2.33301 -12.999 3l-11 17c-3.33301 5.33301 -2.66602 9.66602 2.00098 12.999z" />
    <glyph glyph-name="acircumflex" unicode="&#xe2;" horiz-adv-x="503" 
d="M210 252c-35.333 0 -60 -6.99805 -74 -20.998c-14.667 -14.667 -22 -39.334 -22 -74.001v-11c0 -34.667 7.33301 -59.334 22 -74.001c14 -14 38.667 -21 74 -21h98c7.33301 0 12.333 0.5 15 1.5s6.66699 3.16699 12 6.5l36 27c4 3.33301 6 7 6 11v143c0 8 -3 12 -9 12
h-158zM377 309.002l0.000976562 39c0 18 -1.83301 32.833 -5.5 44.5s-9.16699 21.167 -16.5 28.5c-14.667 14.667 -39.334 22 -74.001 22h-76c-22 0 -41.833 -2.83301 -59.5 -8.5s-33.167 -15.167 -46.5 -28.5l-27 45c15.333 17.333 32.833 30 52.5 38s45.167 12 76.5 12h86
c27.333 0 50.833 -3.5 70.5 -10.5s35.5 -17.167 47.5 -30.5c24 -25.333 36 -61.333 36 -108v-265c0 -9.33301 -1.83301 -16.833 -5.5 -22.5s-10.167 -12.167 -19.5 -19.5l-51 -38c-8 -6 -15.333 -9.66699 -22 -11s-17.667 -2 -33 -2h-106
c-53.333 0 -92.666 13.667 -117.999 41c-24 24.667 -36 60.667 -36 108v17c0 46.667 12 82.667 36 108c25.333 27.333 64.666 41 117.999 41h173zM260.001 730.002c7.33301 0 13 -1 17 -3s8.33301 -5.66699 13 -11l111 -138h-64l-81 103l-83 -103h-64l111 138
c4.66699 5.33301 9 9 13 11s9.33301 3 16 3h11z" />
    <glyph glyph-name="atilde" unicode="&#xe3;" horiz-adv-x="503" 
d="M210 252c-35.333 0 -60 -6.99805 -74 -20.998c-14.667 -14.667 -22 -39.334 -22 -74.001v-11c0 -34.667 7.33301 -59.334 22 -74.001c14 -14 38.667 -21 74 -21h98c7.33301 0 12.333 0.5 15 1.5s6.66699 3.16699 12 6.5l36 27c4 3.33301 6 7 6 11v143c0 8 -3 12 -9 12
h-158zM377 309.002l0.000976562 39c0 18 -1.83301 32.833 -5.5 44.5s-9.16699 21.167 -16.5 28.5c-14.667 14.667 -39.334 22 -74.001 22h-76c-22 0 -41.833 -2.83301 -59.5 -8.5s-33.167 -15.167 -46.5 -28.5l-27 45c15.333 17.333 32.833 30 52.5 38s45.167 12 76.5 12h86
c27.333 0 50.833 -3.5 70.5 -10.5s35.5 -17.167 47.5 -30.5c24 -25.333 36 -61.333 36 -108v-265c0 -9.33301 -1.83301 -16.833 -5.5 -22.5s-10.167 -12.167 -19.5 -19.5l-51 -38c-8 -6 -15.333 -9.66699 -22 -11s-17.667 -2 -33 -2h-106
c-53.333 0 -92.666 13.667 -117.999 41c-24 24.667 -36 60.667 -36 108v17c0 46.667 12 82.667 36 108c25.333 27.333 64.666 41 117.999 41h173zM396.001 689.002l24 -32l-36 -31c-15.333 -12.667 -28.666 -22 -39.999 -28s-23.666 -9 -36.999 -9s-24.5 2.33301 -33.5 7
s-17.5 9.66699 -25.5 15s-15.667 10.333 -23 15s-16 7 -26 7c-7.33301 0 -13.5 -1 -18.5 -3s-10.833 -5 -17.5 -9l-50 -32l-24 32l36 32c15.333 13.333 28.666 22.833 39.999 28.5s23.666 8.5 36.999 8.5c12.667 0 23.667 -2.33301 33 -7s18 -9.66699 26 -15
s15.667 -10.333 23 -15s16 -7 26 -7c7.33301 0 13.5 1 18.5 3s10.833 5 17.5 9z" />
    <glyph glyph-name="adieresis" unicode="&#xe4;" horiz-adv-x="503" 
d="M210 252c-35.333 0 -60 -6.99805 -74 -20.998c-14.667 -14.667 -22 -39.334 -22 -74.001v-11c0 -34.667 7.33301 -59.334 22 -74.001c14 -14 38.667 -21 74 -21h98c7.33301 0 12.333 0.5 15 1.5s6.66699 3.16699 12 6.5l36 27c4 3.33301 6 7 6 11v143c0 8 -3 12 -9 12
h-158zM377 309.002l0.000976562 39c0 18 -1.83301 32.833 -5.5 44.5s-9.16699 21.167 -16.5 28.5c-14.667 14.667 -39.334 22 -74.001 22h-76c-22 0 -41.833 -2.83301 -59.5 -8.5s-33.167 -15.167 -46.5 -28.5l-27 45c15.333 17.333 32.833 30 52.5 38s45.167 12 76.5 12h86
c27.333 0 50.833 -3.5 70.5 -10.5s35.5 -17.167 47.5 -30.5c24 -25.333 36 -61.333 36 -108v-265c0 -9.33301 -1.83301 -16.833 -5.5 -22.5s-10.167 -12.167 -19.5 -19.5l-51 -38c-8 -6 -15.333 -9.66699 -22 -11s-17.667 -2 -33 -2h-106
c-53.333 0 -92.666 13.667 -117.999 41c-24 24.667 -36 60.667 -36 108v17c0 46.667 12 82.667 36 108c25.333 27.333 64.666 41 117.999 41h173zM168.001 587.002c-12 0 -22.667 4.33301 -32 13s-14 19.667 -14 33s4.66699 24.333 14 33s20 13 32 13
s22.667 -4.33301 32 -13s14 -19.667 14 -33s-4.66699 -24.333 -14 -33s-20 -13 -32 -13zM338.001 587.002c-12 0 -22.667 4.33301 -32 13s-14 19.667 -14 33s4.66699 24.333 14 33s20 13 32 13s22.667 -4.33301 32 -13s14 -19.667 14 -33s-4.66699 -24.333 -14 -33
s-20 -13 -32 -13z" />
    <glyph glyph-name="aring" unicode="&#xe5;" horiz-adv-x="503" 
d="M210 252c-35.333 0 -60 -6.99805 -74 -20.998c-14.667 -14.667 -22 -39.334 -22 -74.001v-11c0 -34.667 7.33301 -59.334 22 -74.001c14 -14 38.667 -21 74 -21h98c7.33301 0 12.333 0.5 15 1.5s6.66699 3.16699 12 6.5l36 27c4 3.33301 6 7 6 11v143c0 8 -3 12 -9 12
h-158zM377 309.002l0.000976562 39c0 18 -1.83301 32.833 -5.5 44.5s-9.16699 21.167 -16.5 28.5c-14.667 14.667 -39.334 22 -74.001 22h-76c-22 0 -41.833 -2.83301 -59.5 -8.5s-33.167 -15.167 -46.5 -28.5l-27 45c15.333 17.333 32.833 30 52.5 38s45.167 12 76.5 12h86
c27.333 0 50.833 -3.5 70.5 -10.5s35.5 -17.167 47.5 -30.5c24 -25.333 36 -61.333 36 -108v-265c0 -9.33301 -1.83301 -16.833 -5.5 -22.5s-10.167 -12.167 -19.5 -19.5l-51 -38c-8 -6 -15.333 -9.66699 -22 -11s-17.667 -2 -33 -2h-106
c-53.333 0 -92.666 13.667 -117.999 41c-24 24.667 -36 60.667 -36 108v17c0 46.667 12 82.667 36 108c25.333 27.333 64.666 41 117.999 41h173zM342.001 626.002c0 -26 -7.5 -45.167 -22.5 -57.5s-34.167 -18.5 -57.5 -18.5h-22c-23.333 0 -42.5 6.16699 -57.5 18.5
s-22.5 31.5 -22.5 57.5v33c0 26 7.5 45.167 22.5 57.5s34.167 18.5 57.5 18.5h22c23.333 0 42.5 -6.16699 57.5 -18.5s22.5 -31.5 22.5 -57.5v-33zM297.001 658.002c0 23.333 -12.667 35 -38 35h-16c-25.333 0 -38 -11.667 -38 -35v-31c0 -23.333 12.667 -35 38 -35h16
c25.333 0 38 11.667 38 35v31z" />
    <glyph glyph-name="ae" unicode="&#xe6;" horiz-adv-x="818" 
d="M760 263c0 -22.667 -9.33105 -33.999 -27.998 -33.999h-291v-92c0.666992 -28.667 8 -49.334 22 -62.001c14.667 -14.667 39.334 -22 74.001 -22h84c45.333 0 80.666 12.667 105.999 38l27 -45c-15.333 -17.333 -32.833 -30.333 -52.5 -39s-45.167 -13 -76.5 -13h-94
c-30.667 0 -55.334 3.66699 -74.001 11s-34.667 18.666 -48 33.999l-44 -32c-8 -6 -15.333 -9.66699 -22 -11s-17.667 -2 -33 -2h-106c-53.333 0 -92.666 13.667 -117.999 41c-12 12.667 -21 27.334 -27 44.001s-9 36.667 -9 60s3 43.5 9 60.5s15 31.833 27 44.5
c25.333 27.333 64.666 41 117.999 41h173v63c0 18 -1.83301 32.833 -5.5 44.5s-9.16699 21.167 -16.5 28.5c-14.667 14.667 -39.334 22 -74.001 22h-76c-22 0 -41.833 -2.83301 -59.5 -8.5s-33.167 -15.167 -46.5 -28.5l-27 45c15.333 17.333 32.833 30 52.5 38
s45.167 12 76.5 12h86c27.333 0 51 -3.5 71 -10.5s37 -18.833 51 -35.5c14 16.667 31 28.5 51 35.5s43.667 10.5 71 10.5h75c27.333 0 50.833 -3.5 70.5 -10.5s35.5 -17.167 47.5 -30.5c24 -25.333 36 -61.333 36 -108v-89zM210.002 228.001
c-35.333 0 -60 -7.00195 -74 -21.002c-7.33301 -7.33301 -12.833 -16.166 -16.5 -26.499s-5.5 -24.166 -5.5 -41.499s1.83301 -31 5.5 -41s9.16699 -18.667 16.5 -26c14 -14 38.667 -21 74 -21h98c7.33301 0 12.333 0.5 15 1.5s6.66699 3.16699 12 6.5l36 27
c4 3.33301 6 7 6 11v35v11v73c0 8 -3 12 -9 12h-158zM696.002 284.999l0.00195312 62.001c0 18 -1.83301 32.833 -5.5 44.5s-9.16699 21.167 -16.5 28.5c-14.667 14.667 -39.334 22 -74.001 22h-63c-34.667 0 -59.334 -7.33301 -74.001 -22
c-7.33301 -7.33301 -12.833 -16.333 -16.5 -27s-5.5 -24.334 -5.5 -41.001v-67h255z" />
    <glyph glyph-name="ccedilla" unicode="&#xe7;" horiz-adv-x="462" 
d="M217 -178l85.001 59l-81 37c-9.33301 4.66699 -15 10.5 -17 17.5s-1.33301 14.833 2 23.5l14 35h-10c-53.333 0 -92.666 13.667 -117.999 41c-24 24.667 -36 60.667 -36 108v209c0 46.667 12 82.667 36 108c25.333 27.333 64.666 41 117.999 41h74
c31.333 0 56.833 -4 76.5 -12s37.167 -20.667 52.5 -38l-27 -46c-13.333 13.333 -28.666 22.833 -45.999 28.5s-37.333 8.5 -60 8.5h-64c-34.667 0 -59.334 -7.33301 -74.001 -22c-7.33301 -7.33301 -12.833 -16.833 -16.5 -28.5s-5.5 -26.5 -5.5 -44.5v-199
c0 -18 1.83301 -32.833 5.5 -44.5s9.16699 -21.167 16.5 -28.5c14.667 -14.667 39.334 -22 74.001 -22h71c45.333 0 80.666 12.667 105.999 38l27 -45c-15.333 -17.333 -32.833 -30.333 -52.5 -39s-45.167 -13 -76.5 -13h-24l-5 -28c-0.666992 -4 0.666016 -7 3.99902 -9
l81 -38c8.66699 -4 15 -8.5 19 -13.5s6 -11.5 6 -19.5c0 -14 -7 -25.333 -21 -34l-105 -71z" />
    <glyph glyph-name="egrave" unicode="&#xe8;" horiz-adv-x="497" 
d="M439 255c0 -22.667 -9.33301 -34 -28 -34h-291v-73c0 -18 1.83301 -32.833 5.5 -44.5s9.16699 -21.167 16.5 -28.5c14.667 -14.667 39.334 -22 74.001 -22h84c45.333 0 80.666 12.667 105.999 38l27 -45c-15.333 -17.333 -32.833 -30.333 -52.5 -39
s-45.167 -13 -76.5 -13h-94c-53.333 0 -92.666 13.667 -117.999 41c-24 24.667 -36 60.667 -36 108v209c0 46.667 12 82.667 36 108c25.333 27.333 64.666 41 117.999 41h75c27.333 0 50.833 -3.5 70.5 -10.5s35.5 -17.167 47.5 -30.5c24 -25.333 36 -61.333 36 -108v-97z
M375 277l0.00195312 70c0 18 -1.83301 32.833 -5.5 44.5s-9.16699 21.167 -16.5 28.5c-14.667 14.667 -39.334 22 -74.001 22h-63c-34.667 0 -59.334 -7.33301 -74.001 -22c-7.33301 -7.33301 -12.833 -16.833 -16.5 -28.5s-5.5 -26.5 -5.5 -44.5v-70h255zM341.002 599
c4.66699 -3.33301 5.33203 -7.66699 1.99902 -13l-11 -17c-3.33301 -5.33301 -7.66602 -6.33301 -12.999 -3l-169 103l30 46c3.33301 5.33301 7.33301 8 12 8s9 -2 13 -6z" />
    <glyph glyph-name="eacute" unicode="&#xe9;" horiz-adv-x="497" 
d="M439 255c0 -22.667 -9.33301 -34 -28 -34h-291v-73c0 -18 1.83301 -32.833 5.5 -44.5s9.16699 -21.167 16.5 -28.5c14.667 -14.667 39.334 -22 74.001 -22h84c45.333 0 80.666 12.667 105.999 38l27 -45c-15.333 -17.333 -32.833 -30.333 -52.5 -39
s-45.167 -13 -76.5 -13h-94c-53.333 0 -92.666 13.667 -117.999 41c-24 24.667 -36 60.667 -36 108v209c0 46.667 12 82.667 36 108c25.333 27.333 64.666 41 117.999 41h75c27.333 0 50.833 -3.5 70.5 -10.5s35.5 -17.167 47.5 -30.5c24 -25.333 36 -61.333 36 -108v-97z
M375 277l0.00195312 70c0 18 -1.83301 32.833 -5.5 44.5s-9.16699 21.167 -16.5 28.5c-14.667 14.667 -39.334 22 -74.001 22h-63c-34.667 0 -59.334 -7.33301 -74.001 -22c-7.33301 -7.33301 -12.833 -16.833 -16.5 -28.5s-5.5 -26.5 -5.5 -44.5v-70h255zM304.002 717
c4 4 8.33105 6.00098 12.998 6.00098s8.66699 -2.66699 12 -8l30 -46l-169 -103c-5.33301 -3.33301 -9.66602 -2.33301 -12.999 3l-11 17c-3.33301 5.33301 -2.66602 9.66602 2.00098 12.999z" />
    <glyph glyph-name="ecircumflex" unicode="&#xea;" horiz-adv-x="497" 
d="M439 255c0 -22.667 -9.33301 -34 -28 -34h-291v-73c0 -18 1.83301 -32.833 5.5 -44.5s9.16699 -21.167 16.5 -28.5c14.667 -14.667 39.334 -22 74.001 -22h84c45.333 0 80.666 12.667 105.999 38l27 -45c-15.333 -17.333 -32.833 -30.333 -52.5 -39
s-45.167 -13 -76.5 -13h-94c-53.333 0 -92.666 13.667 -117.999 41c-24 24.667 -36 60.667 -36 108v209c0 46.667 12 82.667 36 108c25.333 27.333 64.666 41 117.999 41h75c27.333 0 50.833 -3.5 70.5 -10.5s35.5 -17.167 47.5 -30.5c24 -25.333 36 -61.333 36 -108v-97z
M375 277l0.00195312 70c0 18 -1.83301 32.833 -5.5 44.5s-9.16699 21.167 -16.5 28.5c-14.667 14.667 -39.334 22 -74.001 22h-63c-34.667 0 -59.334 -7.33301 -74.001 -22c-7.33301 -7.33301 -12.833 -16.833 -16.5 -28.5s-5.5 -26.5 -5.5 -44.5v-70h255zM253.002 730
c7.33301 0 13 -1 17 -3s8.33301 -5.66699 13 -11l111 -138h-64l-81 103l-83 -103h-64l111 138c4.66699 5.33301 9 9 13 11s9.33301 3 16 3h11z" />
    <glyph glyph-name="edieresis" unicode="&#xeb;" horiz-adv-x="497" 
d="M439 255c0 -22.667 -9.33301 -34 -28 -34h-291v-73c0 -18 1.83301 -32.833 5.5 -44.5s9.16699 -21.167 16.5 -28.5c14.667 -14.667 39.334 -22 74.001 -22h84c45.333 0 80.666 12.667 105.999 38l27 -45c-15.333 -17.333 -32.833 -30.333 -52.5 -39
s-45.167 -13 -76.5 -13h-94c-53.333 0 -92.666 13.667 -117.999 41c-24 24.667 -36 60.667 -36 108v209c0 46.667 12 82.667 36 108c25.333 27.333 64.666 41 117.999 41h75c27.333 0 50.833 -3.5 70.5 -10.5s35.5 -17.167 47.5 -30.5c24 -25.333 36 -61.333 36 -108v-97z
M375 277l0.00195312 70c0 18 -1.83301 32.833 -5.5 44.5s-9.16699 21.167 -16.5 28.5c-14.667 14.667 -39.334 22 -74.001 22h-63c-34.667 0 -59.334 -7.33301 -74.001 -22c-7.33301 -7.33301 -12.833 -16.833 -16.5 -28.5s-5.5 -26.5 -5.5 -44.5v-70h255zM163.002 587
c-12 0 -22.667 4.33301 -32 13s-14 19.667 -14 33s4.66699 24.333 14 33s20 13 32 13s22.667 -4.33301 32 -13s14 -19.667 14 -33s-4.66699 -24.333 -14 -33s-20 -13 -32 -13zM333.002 587c-12 0 -22.667 4.33301 -32 13s-14 19.667 -14 33s4.66699 24.333 14 33
s20 13 32 13s22.667 -4.33301 32 -13s14 -19.667 14 -33s-4.66699 -24.333 -14 -33s-20 -13 -32 -13z" />
    <glyph glyph-name="igrave" unicode="&#xec;" horiz-adv-x="212" 
d="M138 0h-64v495h64v-495zM200 599c4.66699 -3.33301 5.33203 -7.66699 1.99902 -13l-11 -17c-3.33301 -5.33301 -7.66602 -6.33301 -12.999 -3l-169 103l30 46c3.33301 5.33301 7.33301 8 12 8s9 -2 13 -6z" />
    <glyph glyph-name="iacute" unicode="&#xed;" horiz-adv-x="212" 
d="M138 0h-64v495h64v-495zM160 717c4 4 8.33105 6.00098 12.998 6.00098s8.66699 -2.66699 12 -8l30 -46l-169 -103c-5.33301 -3.33301 -9.66602 -2.33301 -12.999 3l-11 17c-3.33301 5.33301 -2.66602 9.66602 2.00098 12.999z" />
    <glyph glyph-name="icircumflex" unicode="&#xee;" horiz-adv-x="212" 
d="M138 0h-64v495h64v-495zM112 730c7.33301 0 13 -1 17 -3s8.33301 -5.66699 13 -11l111 -138h-64l-81 103l-83 -103h-64l111 138c4.66699 5.33301 9 9 13 11s9.33301 3 16 3h11z" />
    <glyph glyph-name="idieresis" unicode="&#xef;" horiz-adv-x="212" 
d="M138 0h-64v495h64v-495zM22 587c-12 0 -22.667 4.33301 -32 13s-14 19.667 -14 33s4.66699 24.333 14 33s20 13 32 13s22.667 -4.33301 32 -13s14 -19.667 14 -33s-4.66699 -24.333 -14 -33s-20 -13 -32 -13zM192 587c-12 0 -22.667 4.33301 -32 13s-14 19.667 -14 33
s4.66699 24.333 14 33s20 13 32 13s22.667 -4.33301 32 -13s14 -19.667 14 -33s-4.66699 -24.333 -14 -33s-20 -13 -32 -13z" />
    <glyph glyph-name="eth" unicode="&#xf0;" horiz-adv-x="515" 
d="M349 621c-14 6 -31.334 8.99902 -52.001 8.99902h-71c-48 0 -86.667 -14.667 -116 -44l-29 49c16.667 19.333 35.834 33.5 57.501 42.5s49.5 13.5 83.5 13.5h74c39.333 0 72 -8.33301 98 -25l64 64l37 -36l-64 -64c8 -12 14.167 -25.667 18.5 -41s6.5 -33.333 6.5 -54
v-385c0 -26 -3.33301 -48 -10 -66s-16 -33.667 -28 -47c-27.333 -28.667 -68 -43 -122 -43h-82c-54 0 -94.667 14.333 -122 43c-12 13.333 -21.333 29 -28 47s-10 40 -10 66v155c0 26 3.33301 48 10 66s16 33.667 28 47c27.333 28.667 68 43 122 43h59
c15.333 0 27.333 -0.666992 36 -2s20 -5 34 -11l49 -21v106c0 20.667 -2.66699 37.334 -8 50.001l-69 -69l-37 36zM212.999 401.999c-34 0 -58 -7.66699 -72 -23c-15.333 -15.333 -23 -40 -23 -74v-155c0 -34 7.66699 -58.667 23 -74c14 -15.333 38 -23 72 -23h84
c34 0 58 7.66699 72 23c15.333 15.333 23 40 23 74v203c0 10 -5.33301 17.333 -16 22l-56 21c-5.33301 2 -10.5 3.5 -15.5 4.5s-10.833 1.5 -17.5 1.5h-74z" />
    <glyph glyph-name="ntilde" unicode="&#xf1;" horiz-adv-x="518" 
d="M196 442c-7.33301 0 -12.332 -0.5 -14.999 -1.5s-6.66699 -3.16699 -12 -6.5l-34 -25c-4 -3.33301 -6 -7 -6 -11v-398h-64v408c0 9.33301 1.83301 16.833 5.5 22.5s10.167 12.167 19.5 19.5l51 38c8 6 15.333 9.66699 22 11s17.667 2 33 2h104
c27.333 0 50.833 -3.5 70.5 -10.5s35.5 -17.167 47.5 -30.5c24 -25.333 36 -61.333 36 -108v-352h-64v347c0 18 -1.83301 32.833 -5.5 44.5s-9.16699 21.167 -16.5 28.5c-14.667 14.667 -39.334 22 -74.001 22h-98zM405.001 689l24 -32l-36 -31
c-15.333 -12.667 -28.666 -22 -39.999 -28s-23.666 -9 -36.999 -9s-24.5 2.33301 -33.5 7s-17.5 9.66699 -25.5 15s-15.667 10.333 -23 15s-16 7 -26 7c-7.33301 0 -13.5 -1 -18.5 -3s-10.833 -5 -17.5 -9l-50 -32l-24 32l36 32c15.333 13.333 28.666 22.833 39.999 28.5
s23.666 8.5 36.999 8.5c12.667 0 23.667 -2.33301 33 -7s18 -9.66699 26 -15s15.667 -10.333 23 -15s16 -7 26 -7c7.33301 0 13.5 1 18.5 3s10.833 5 17.5 9z" />
    <glyph glyph-name="ograve" unicode="&#xf2;" horiz-adv-x="510" 
d="M454 143c0 -47.333 -12 -83.333 -36 -108c-12 -13.333 -27.833 -23.5 -47.5 -30.5s-43.167 -10.5 -70.5 -10.5h-90c-53.333 0 -92.666 13.667 -117.999 41c-24 24.667 -36 60.667 -36 108v209c0 46.667 12 82.667 36 108c25.333 27.333 64.666 41 117.999 41h90
c27.333 0 50.833 -3.5 70.5 -10.5s35.5 -17.167 47.5 -30.5c24 -25.333 36 -61.333 36 -108v-209zM390 347c0 18 -1.83301 32.833 -5.5 44.5s-9.16699 21.167 -16.5 28.5c-14.667 14.667 -39.334 22 -74.001 22h-78c-34.667 0 -59.334 -7.33301 -74.001 -22
c-7.33301 -7.33301 -12.833 -16.833 -16.5 -28.5s-5.5 -26.5 -5.5 -44.5v-199c0 -18 1.83301 -32.833 5.5 -44.5s9.16699 -21.167 16.5 -28.5c14.667 -14.667 39.334 -22 74.001 -22h78c34.667 0 59.334 7.33301 74.001 22c7.33301 7.33301 12.833 16.833 16.5 28.5
s5.5 26.5 5.5 44.5v199zM348 599c4.66699 -3.33301 5.33203 -7.66699 1.99902 -13l-11 -17c-3.33301 -5.33301 -7.66602 -6.33301 -12.999 -3l-169 103l30 46c3.33301 5.33301 7.33301 8 12 8s9 -2 13 -6z" />
    <glyph glyph-name="oacute" unicode="&#xf3;" horiz-adv-x="510" 
d="M454 143c0 -47.333 -12 -83.333 -36 -108c-12 -13.333 -27.833 -23.5 -47.5 -30.5s-43.167 -10.5 -70.5 -10.5h-90c-53.333 0 -92.666 13.667 -117.999 41c-24 24.667 -36 60.667 -36 108v209c0 46.667 12 82.667 36 108c25.333 27.333 64.666 41 117.999 41h90
c27.333 0 50.833 -3.5 70.5 -10.5s35.5 -17.167 47.5 -30.5c24 -25.333 36 -61.333 36 -108v-209zM390 347c0 18 -1.83301 32.833 -5.5 44.5s-9.16699 21.167 -16.5 28.5c-14.667 14.667 -39.334 22 -74.001 22h-78c-34.667 0 -59.334 -7.33301 -74.001 -22
c-7.33301 -7.33301 -12.833 -16.833 -16.5 -28.5s-5.5 -26.5 -5.5 -44.5v-199c0 -18 1.83301 -32.833 5.5 -44.5s9.16699 -21.167 16.5 -28.5c14.667 -14.667 39.334 -22 74.001 -22h78c34.667 0 59.334 7.33301 74.001 22c7.33301 7.33301 12.833 16.833 16.5 28.5
s5.5 26.5 5.5 44.5v199zM307 717c4 4 8.33105 6.00098 12.998 6.00098s8.66699 -2.66699 12 -8l30 -46l-169 -103c-5.33301 -3.33301 -9.66602 -2.33301 -12.999 3l-11 17c-3.33301 5.33301 -2.66602 9.66602 2.00098 12.999z" />
    <glyph glyph-name="ocircumflex" unicode="&#xf4;" horiz-adv-x="510" 
d="M454 143c0 -47.333 -12 -83.333 -36 -108c-12 -13.333 -27.833 -23.5 -47.5 -30.5s-43.167 -10.5 -70.5 -10.5h-90c-53.333 0 -92.666 13.667 -117.999 41c-24 24.667 -36 60.667 -36 108v209c0 46.667 12 82.667 36 108c25.333 27.333 64.666 41 117.999 41h90
c27.333 0 50.833 -3.5 70.5 -10.5s35.5 -17.167 47.5 -30.5c24 -25.333 36 -61.333 36 -108v-209zM390 347c0 18 -1.83301 32.833 -5.5 44.5s-9.16699 21.167 -16.5 28.5c-14.667 14.667 -39.334 22 -74.001 22h-78c-34.667 0 -59.334 -7.33301 -74.001 -22
c-7.33301 -7.33301 -12.833 -16.833 -16.5 -28.5s-5.5 -26.5 -5.5 -44.5v-199c0 -18 1.83301 -32.833 5.5 -44.5s9.16699 -21.167 16.5 -28.5c14.667 -14.667 39.334 -22 74.001 -22h78c34.667 0 59.334 7.33301 74.001 22c7.33301 7.33301 12.833 16.833 16.5 28.5
s5.5 26.5 5.5 44.5v199zM260 730c7.33301 0 13 -1 17 -3s8.33301 -5.66699 13 -11l111 -138h-64l-81 103l-83 -103h-64l111 138c4.66699 5.33301 9 9 13 11s9.33301 3 16 3h11z" />
    <glyph glyph-name="otilde" unicode="&#xf5;" horiz-adv-x="510" 
d="M454 143c0 -47.333 -12 -83.333 -36 -108c-12 -13.333 -27.833 -23.5 -47.5 -30.5s-43.167 -10.5 -70.5 -10.5h-90c-53.333 0 -92.666 13.667 -117.999 41c-24 24.667 -36 60.667 -36 108v209c0 46.667 12 82.667 36 108c25.333 27.333 64.666 41 117.999 41h90
c27.333 0 50.833 -3.5 70.5 -10.5s35.5 -17.167 47.5 -30.5c24 -25.333 36 -61.333 36 -108v-209zM390 347c0 18 -1.83301 32.833 -5.5 44.5s-9.16699 21.167 -16.5 28.5c-14.667 14.667 -39.334 22 -74.001 22h-78c-34.667 0 -59.334 -7.33301 -74.001 -22
c-7.33301 -7.33301 -12.833 -16.833 -16.5 -28.5s-5.5 -26.5 -5.5 -44.5v-199c0 -18 1.83301 -32.833 5.5 -44.5s9.16699 -21.167 16.5 -28.5c14.667 -14.667 39.334 -22 74.001 -22h78c34.667 0 59.334 7.33301 74.001 22c7.33301 7.33301 12.833 16.833 16.5 28.5
s5.5 26.5 5.5 44.5v199zM396 689l24 -32l-36 -31c-15.333 -12.667 -28.666 -22 -39.999 -28s-23.666 -9 -36.999 -9s-24.5 2.33301 -33.5 7s-17.5 9.66699 -25.5 15s-15.667 10.333 -23 15s-16 7 -26 7c-7.33301 0 -13.5 -1 -18.5 -3s-10.833 -5 -17.5 -9l-50 -32l-24 32
l36 32c15.333 13.333 28.666 22.833 39.999 28.5s23.666 8.5 36.999 8.5c12.667 0 23.667 -2.33301 33 -7s18 -9.66699 26 -15s15.667 -10.333 23 -15s16 -7 26 -7c7.33301 0 13.5 1 18.5 3s10.833 5 17.5 9z" />
    <glyph glyph-name="odieresis" unicode="&#xf6;" horiz-adv-x="510" 
d="M454 143c0 -47.333 -12 -83.333 -36 -108c-12 -13.333 -27.833 -23.5 -47.5 -30.5s-43.167 -10.5 -70.5 -10.5h-90c-53.333 0 -92.666 13.667 -117.999 41c-24 24.667 -36 60.667 -36 108v209c0 46.667 12 82.667 36 108c25.333 27.333 64.666 41 117.999 41h90
c27.333 0 50.833 -3.5 70.5 -10.5s35.5 -17.167 47.5 -30.5c24 -25.333 36 -61.333 36 -108v-209zM390 347c0 18 -1.83301 32.833 -5.5 44.5s-9.16699 21.167 -16.5 28.5c-14.667 14.667 -39.334 22 -74.001 22h-78c-34.667 0 -59.334 -7.33301 -74.001 -22
c-7.33301 -7.33301 -12.833 -16.833 -16.5 -28.5s-5.5 -26.5 -5.5 -44.5v-199c0 -18 1.83301 -32.833 5.5 -44.5s9.16699 -21.167 16.5 -28.5c14.667 -14.667 39.334 -22 74.001 -22h78c34.667 0 59.334 7.33301 74.001 22c7.33301 7.33301 12.833 16.833 16.5 28.5
s5.5 26.5 5.5 44.5v199zM170 587c-12 0 -22.667 4.33301 -32 13s-14 19.667 -14 33s4.66699 24.333 14 33s20 13 32 13s22.667 -4.33301 32 -13s14 -19.667 14 -33s-4.66699 -24.333 -14 -33s-20 -13 -32 -13zM340 587c-12 0 -22.667 4.33301 -32 13s-14 19.667 -14 33
s4.66699 24.333 14 33s20 13 32 13s22.667 -4.33301 32 -13s14 -19.667 14 -33s-4.66699 -24.333 -14 -33s-20 -13 -32 -13z" />
    <glyph glyph-name="divide" unicode="&#xf7;" horiz-adv-x="427" 
d="M376 340v-55h-325v55h325zM217 146c-12 0 -22.333 4 -31 12s-13 18.667 -13 32s4.33301 24 13 32s19 12 31 12s22.333 -4 31 -12s13 -18.667 13 -32s-4.33301 -24 -13 -32s-19 -12 -31 -12zM217 391c-12 0 -22.333 4 -31 12s-13 18.667 -13 32s4.33301 24 13 32
s19 12 31 12s22.333 -4 31 -12s13 -18.667 13 -32s-4.33301 -24 -13 -32s-19 -12 -31 -12z" />
    <glyph glyph-name="oslash" unicode="&#xf8;" horiz-adv-x="510" 
d="M379 486c26.667 -10 45.835 -27.332 57.502 -51.999s17.5 -52 17.5 -82v-209c0 -47.333 -12 -83.333 -36 -108c-12 -13.333 -27.833 -23.5 -47.5 -30.5s-43.167 -10.5 -70.5 -10.5h-90h-13.5c-4.33301 0 -8.5 0.333008 -12.5 1l-27 -68h-58l32 81
c-26.667 11.333 -45.834 29.166 -57.501 53.499s-17.5 51.5 -17.5 81.5v209c0 46.667 12 82.667 36 108c25.333 27.333 64.666 41 117.999 41h90h13.5c4.33301 0 8.83301 -0.333008 13.5 -1l27 68h58zM120.001 148.001c0 -18 2.16797 -34 6.50098 -48s13.5 -25.667 27.5 -35
l150 377h-88c-34.667 0 -59.334 -7.33301 -74.001 -22c-7.33301 -7.33301 -12.833 -16.833 -16.5 -28.5s-5.5 -26.5 -5.5 -44.5v-199zM390.002 347.001c0 18 -2.33398 34.333 -7.00098 49s-13.667 25.667 -27 33l-149 -376h87c34.667 0 59.334 7.33301 74.001 22
c7.33301 7.33301 12.833 16.833 16.5 28.5s5.5 26.5 5.5 44.5v199z" />
    <glyph glyph-name="ugrave" unicode="&#xf9;" horiz-adv-x="509" 
d="M313 53c7.33301 0 12.3311 0.5 14.998 1.5s6.66699 3.16699 12 6.5l34 25c4 3.33301 6 7 6 11v398h64v-408c0 -9.33301 -1.83301 -16.833 -5.5 -22.5s-10.167 -12.167 -19.5 -19.5l-51 -38c-8 -6 -15.333 -9.66699 -22 -11s-17.667 -2 -33 -2h-95
c-53.333 0 -92.666 13.667 -117.999 41c-24 24.667 -36 60.667 -36 108v352h64v-347c0 -18 1.83301 -32.833 5.5 -44.5s9.16699 -21.167 16.5 -28.5c14.667 -14.667 39.334 -22 74.001 -22h89zM336.998 599c4.66699 -3.33301 5.33203 -7.66699 1.99902 -13l-11 -17
c-3.33301 -5.33301 -7.66602 -6.33301 -12.999 -3l-169 103l30 46c3.33301 5.33301 7.33301 8 12 8s9 -2 13 -6z" />
    <glyph glyph-name="uacute" unicode="&#xfa;" horiz-adv-x="509" 
d="M313 53c7.33301 0 12.3311 0.5 14.998 1.5s6.66699 3.16699 12 6.5l34 25c4 3.33301 6 7 6 11v398h64v-408c0 -9.33301 -1.83301 -16.833 -5.5 -22.5s-10.167 -12.167 -19.5 -19.5l-51 -38c-8 -6 -15.333 -9.66699 -22 -11s-17.667 -2 -33 -2h-95
c-53.333 0 -92.666 13.667 -117.999 41c-24 24.667 -36 60.667 -36 108v352h64v-347c0 -18 1.83301 -32.833 5.5 -44.5s9.16699 -21.167 16.5 -28.5c14.667 -14.667 39.334 -22 74.001 -22h89zM311.998 717c4 4 8.33105 6.00098 12.998 6.00098s8.66699 -2.66699 12 -8
l30 -46l-169 -103c-5.33301 -3.33301 -9.66602 -2.33301 -12.999 3l-11 17c-3.33301 5.33301 -2.66602 9.66602 2.00098 12.999z" />
    <glyph glyph-name="ucircumflex" unicode="&#xfb;" horiz-adv-x="509" 
d="M313 53c7.33301 0 12.3311 0.5 14.998 1.5s6.66699 3.16699 12 6.5l34 25c4 3.33301 6 7 6 11v398h64v-408c0 -9.33301 -1.83301 -16.833 -5.5 -22.5s-10.167 -12.167 -19.5 -19.5l-51 -38c-8 -6 -15.333 -9.66699 -22 -11s-17.667 -2 -33 -2h-95
c-53.333 0 -92.666 13.667 -117.999 41c-24 24.667 -36 60.667 -36 108v352h64v-347c0 -18 1.83301 -32.833 5.5 -44.5s9.16699 -21.167 16.5 -28.5c14.667 -14.667 39.334 -22 74.001 -22h89zM258.998 730c7.33301 0 13 -1 17 -3s8.33301 -5.66699 13 -11l111 -138h-64
l-81 103l-83 -103h-64l111 138c4.66699 5.33301 9 9 13 11s9.33301 3 16 3h11z" />
    <glyph glyph-name="udieresis" unicode="&#xfc;" horiz-adv-x="509" 
d="M313 53c7.33301 0 12.3311 0.5 14.998 1.5s6.66699 3.16699 12 6.5l34 25c4 3.33301 6 7 6 11v398h64v-408c0 -9.33301 -1.83301 -16.833 -5.5 -22.5s-10.167 -12.167 -19.5 -19.5l-51 -38c-8 -6 -15.333 -9.66699 -22 -11s-17.667 -2 -33 -2h-95
c-53.333 0 -92.666 13.667 -117.999 41c-24 24.667 -36 60.667 -36 108v352h64v-347c0 -18 1.83301 -32.833 5.5 -44.5s9.16699 -21.167 16.5 -28.5c14.667 -14.667 39.334 -22 74.001 -22h89zM168.998 587c-12 0 -22.667 4.33301 -32 13s-14 19.667 -14 33
s4.66699 24.333 14 33s20 13 32 13s22.667 -4.33301 32 -13s14 -19.667 14 -33s-4.66699 -24.333 -14 -33s-20 -13 -32 -13zM338.998 587c-12 0 -22.667 4.33301 -32 13s-14 19.667 -14 33s4.66699 24.333 14 33s20 13 32 13s22.667 -4.33301 32 -13s14 -19.667 14 -33
s-4.66699 -24.333 -14 -33s-20 -13 -32 -13z" />
    <glyph glyph-name="yacute" unicode="&#xfd;" horiz-adv-x="489" 
d="M402 495h67.002l-204 -553c-10 -26.667 -19.667 -48.5 -29 -65.5s-20 -31.167 -32 -42.5c-22.667 -20 -54.667 -30 -96 -30h-41l-19 54h47c16 0 29 1 39 3s18.667 6.33301 26 13s14.333 16.334 21 29.001s13.667 28.334 21 47.001l11 30l-193 515h67l111 -302
c9.33301 -26 18.333 -51.667 27 -77s15.667 -46 21 -62c5.33301 17.333 12.166 38.666 20.499 63.999s17.166 50.666 26.499 75.999zM299.002 717c4 4 8.33105 6.00098 12.998 6.00098s8.66699 -2.66699 12 -8l30 -46l-169 -103
c-5.33301 -3.33301 -9.66602 -2.33301 -12.999 3l-11 17c-3.33301 5.33301 -2.66602 9.66602 2.00098 12.999z" />
    <glyph glyph-name="thorn" unicode="&#xfe;" horiz-adv-x="515" 
d="M161 486c11.333 6 20.666 10 27.999 12s16.666 3 27.999 3h88c27.333 0 50.833 -3.5 70.5 -10.5s35.5 -17.167 47.5 -30.5c24 -25.333 36 -61.333 36 -108v-209c0 -47.333 -12 -83.333 -36 -108c-12 -13.333 -27.833 -23.5 -47.5 -30.5s-43.167 -10.5 -70.5 -10.5h-88
c-11.333 0 -20.666 1 -27.999 3s-16.666 6 -27.999 12l-31 17v-216h-64v875h64v-216zM130 92c0 -4 2 -7.00195 6 -9.00195l57 -27c2.66699 -1.33301 5 -2.16602 7 -2.49902s5 -0.5 9 -0.5h90c34.667 0 59.334 7.33301 74.001 22c7.33301 7.33301 12.833 16.833 16.5 28.5
s5.5 26.5 5.5 44.5v199c0 18 -1.83301 32.833 -5.5 44.5s-9.16699 21.167 -16.5 28.5c-14.667 14.667 -39.334 22 -74.001 22h-90c-4 0 -7 -0.166992 -9 -0.5s-4.33301 -1.16602 -7 -2.49902l-57 -27c-4 -2 -6 -5 -6 -9v-311z" />
    <glyph glyph-name="ydieresis" unicode="&#xff;" horiz-adv-x="489" 
d="M402 495h67.002l-204 -553c-10 -26.667 -19.667 -48.5 -29 -65.5s-20 -31.167 -32 -42.5c-22.667 -20 -54.667 -30 -96 -30h-41l-19 54h47c16 0 29 1 39 3s18.667 6.33301 26 13s14.333 16.334 21 29.001s13.667 28.334 21 47.001l11 30l-193 515h67l111 -302
c9.33301 -26 18.333 -51.667 27 -77s15.667 -46 21 -62c5.33301 17.333 12.166 38.666 20.499 63.999s17.166 50.666 26.499 75.999zM159.002 587c-12 0 -22.667 4.33301 -32 13s-14 19.667 -14 33s4.66699 24.333 14 33s20 13 32 13s22.667 -4.33301 32 -13
s14 -19.667 14 -33s-4.66699 -24.333 -14 -33s-20 -13 -32 -13zM329.002 587c-12 0 -22.667 4.33301 -32 13s-14 19.667 -14 33s4.66699 24.333 14 33s20 13 32 13s22.667 -4.33301 32 -13s14 -19.667 14 -33s-4.66699 -24.333 -14 -33s-20 -13 -32 -13z" />
    <glyph glyph-name="Amacron" unicode="&#x100;" horiz-adv-x="570" 
d="M308 549c-2 6 -3.83301 10.167 -5.5 12.5s-5.5 3.5 -11.5 3.5h-13c-6 0 -9.83301 -1.16699 -11.5 -3.5s-3.5 -6.5 -5.5 -12.5l-101 -334h248zM540 0h-69.002l-46 157h-281l-45 -157h-69l174 574c6 20 13.833 33.667 23.5 41s24.834 11 45.501 11h23
c20.667 0 35.834 -3.66699 45.501 -11s17.5 -21 23.5 -41zM161.998 765h246v-53h-246v53z" />
    <glyph glyph-name="amacron" unicode="&#x101;" horiz-adv-x="503" 
d="M210 252c-35.333 0 -60 -6.99805 -74 -20.998c-14.667 -14.667 -22 -39.334 -22 -74.001v-11c0 -34.667 7.33301 -59.334 22 -74.001c14 -14 38.667 -21 74 -21h98c7.33301 0 12.333 0.5 15 1.5s6.66699 3.16699 12 6.5l36 27c4 3.33301 6 7 6 11v143c0 8 -3 12 -9 12
h-158zM377 309.002l0.000976562 39c0 18 -1.83301 32.833 -5.5 44.5s-9.16699 21.167 -16.5 28.5c-14.667 14.667 -39.334 22 -74.001 22h-76c-22 0 -41.833 -2.83301 -59.5 -8.5s-33.167 -15.167 -46.5 -28.5l-27 45c15.333 17.333 32.833 30 52.5 38s45.167 12 76.5 12h86
c27.333 0 50.833 -3.5 70.5 -10.5s35.5 -17.167 47.5 -30.5c24 -25.333 36 -61.333 36 -108v-265c0 -9.33301 -1.83301 -16.833 -5.5 -22.5s-10.167 -12.167 -19.5 -19.5l-51 -38c-8 -6 -15.333 -9.66699 -22 -11s-17.667 -2 -33 -2h-106
c-53.333 0 -92.666 13.667 -117.999 41c-24 24.667 -36 60.667 -36 108v17c0 46.667 12 82.667 36 108c25.333 27.333 64.666 41 117.999 41h173zM130.001 655.002h246v-53h-246v53z" />
    <glyph glyph-name="Abreve" unicode="&#x102;" horiz-adv-x="570" 
d="M308 549c-2 6 -3.83301 10.167 -5.5 12.5s-5.5 3.5 -11.5 3.5h-13c-6 0 -9.83301 -1.16699 -11.5 -3.5s-3.5 -6.5 -5.5 -12.5l-101 -334h248zM540 0h-69.002l-46 157h-281l-45 -157h-69l174 574c6 20 13.833 33.667 23.5 41s24.834 11 45.501 11h23
c20.667 0 35.834 -3.66699 45.501 -11s17.5 -21 23.5 -41zM214.998 807v-20c0 -11.333 0.833008 -20 2.5 -26s4.5 -11 8.5 -15c7.33301 -7.33301 20 -11 38 -11h42c18 0 30.667 3.66699 38 11c4 4 6.83301 9 8.5 15s2.5 14.667 2.5 26v20h51v-32
c0 -30.667 -7.33301 -52.667 -22 -66c-15.333 -14.667 -39.333 -22 -72 -22h-54c-32.667 0 -56.667 7.33301 -72 22c-14.667 13.333 -22 35.333 -22 66v32h51z" />
    <glyph glyph-name="abreve" unicode="&#x103;" horiz-adv-x="503" 
d="M210 252c-35.333 0 -60 -6.99805 -74 -20.998c-14.667 -14.667 -22 -39.334 -22 -74.001v-11c0 -34.667 7.33301 -59.334 22 -74.001c14 -14 38.667 -21 74 -21h98c7.33301 0 12.333 0.5 15 1.5s6.66699 3.16699 12 6.5l36 27c4 3.33301 6 7 6 11v143c0 8 -3 12 -9 12
h-158zM377 309.002l0.000976562 39c0 18 -1.83301 32.833 -5.5 44.5s-9.16699 21.167 -16.5 28.5c-14.667 14.667 -39.334 22 -74.001 22h-76c-22 0 -41.833 -2.83301 -59.5 -8.5s-33.167 -15.167 -46.5 -28.5l-27 45c15.333 17.333 32.833 30 52.5 38s45.167 12 76.5 12h86
c27.333 0 50.833 -3.5 70.5 -10.5s35.5 -17.167 47.5 -30.5c24 -25.333 36 -61.333 36 -108v-265c0 -9.33301 -1.83301 -16.833 -5.5 -22.5s-10.167 -12.167 -19.5 -19.5l-51 -38c-8 -6 -15.333 -9.66699 -22 -11s-17.667 -2 -33 -2h-106
c-53.333 0 -92.666 13.667 -117.999 41c-24 24.667 -36 60.667 -36 108v17c0 46.667 12 82.667 36 108c25.333 27.333 64.666 41 117.999 41h173zM181.001 697.002v-20c0 -11.333 0.833008 -20 2.5 -26s4.5 -11 8.5 -15c7.33301 -7.33301 20 -11 38 -11h42
c18 0 30.667 3.66699 38 11c4 4 6.83301 9 8.5 15s2.5 14.667 2.5 26v20h51v-32c0 -30.667 -7.33301 -52.667 -22 -66c-15.333 -14.667 -39.333 -22 -72 -22h-54c-32.667 0 -56.667 7.33301 -72 22c-14.667 13.333 -22 35.333 -22 66v32h51z" />
    <glyph glyph-name="Aogonek" unicode="&#x104;" horiz-adv-x="570" 
d="M535 15c1.33301 -3.33301 1.5 -5.99902 0.5 -7.99902s-2.5 -4.33301 -4.5 -7l-107 -142l81 -58l-29 -40l-96 68c-12.667 9.33301 -19 18.666 -19 27.999c0 6.66699 4 15 12 25l98 119l-47 157h-280l-45 -157h-69l174 574c6 20 14 33.667 24 41s25.333 11 46 11h21
c20.667 0 36 -3.66699 46 -11s18 -21 24 -41zM307 549.001c-2 6 -3.83301 10.167 -5.5 12.5s-5.5 3.5 -11.5 3.5h-12c-6 0 -9.83301 -1.16699 -11.5 -3.5s-3.5 -6.5 -5.5 -12.5l-101 -334h247z" />
    <glyph glyph-name="aogonek" unicode="&#x105;" horiz-adv-x="503" 
d="M377 309l0.00292969 38.999c0 18 -1.83301 32.833 -5.5 44.5s-9.16699 21.167 -16.5 28.5c-14.667 14.667 -39.334 22 -74.001 22h-76c-22 0 -41.833 -2.83301 -59.5 -8.5s-33.167 -15.167 -46.5 -28.5l-27 45c15.333 17.333 32.833 30 52.5 38s45.167 12 76.5 12h86
c27.333 0 50.833 -3.5 70.5 -10.5s35.5 -17.167 47.5 -30.5c24 -25.333 36 -61.333 36 -108v-265c0 -4.66699 -0.333008 -9 -1 -13s-2.33398 -8.33301 -5.00098 -13l-110 -193l81 -58l-29 -40l-96 68c-12 8 -18 16.667 -18 26c0 8 3.66699 17 11 27l79 118
c-14 -5.33301 -28.333 -9.16602 -43 -11.499s-28.334 -3.5 -41.001 -3.5h-65c-53.333 0 -92.666 13.667 -117.999 41c-24 24.667 -36 60.667 -36 108v17c0 46.667 12 82.667 36 108c25.333 27.333 64.666 41 117.999 41h173zM210.003 251.999c-35.333 0 -60 -7 -74 -21
c-14.667 -14.667 -22 -39.334 -22 -74.001v-11c0 -34.667 7.33301 -59.334 22 -74.001c14 -14 38.667 -21 74 -21h74c13.333 0 23.5 0.833008 30.5 2.5s16.5 5.83398 28.5 12.501l28 15c4 2.66699 6 6.33398 6 11.001v148c0 8 -3 12 -9 12h-158z" />
    <glyph glyph-name="Cacute" unicode="&#x106;" horiz-adv-x="517" 
d="M214 -6c-54 0 -94.667 14.333 -122 43c-12 13.333 -21.333 29 -28 47s-10 40 -10 66v320c0 26 3.33301 48 10 66s16 33.667 28 47c27.333 28.667 68 43 122 43h116c34 0 61.833 -4.5 83.5 -13.5s40.834 -23.167 57.501 -42.5l-29 -51c-14 14 -30.5 24.833 -49.5 32.5
s-41.167 11.5 -66.5 11.5h-109c-34 0 -58 -7.66699 -72 -23c-15.333 -15.333 -23 -40 -23 -74v-312c0 -34 7.66699 -58.667 23 -74c14 -15.333 38 -23 72 -23h113c25.333 0 47.5 3.83301 66.5 11.5s35.5 18.5 49.5 32.5l29 -51c-16.667 -19.333 -35.834 -33.5 -57.501 -42.5
s-49.5 -13.5 -83.5 -13.5h-120zM328 827c4 4 8.33105 6.00098 12.998 6.00098s8.66699 -2.66699 12 -8l30 -46l-169 -103c-5.33301 -3.33301 -9.66602 -2.33301 -12.999 3l-11 17c-3.33301 5.33301 -2.66602 9.66602 2.00098 12.999z" />
    <glyph glyph-name="cacute" unicode="&#x107;" horiz-adv-x="462" 
d="M210 -6c-53.333 0 -92.666 13.667 -117.999 41c-24 24.667 -36 60.667 -36 108v209c0 46.667 12 82.667 36 108c25.333 27.333 64.666 41 117.999 41h74c31.333 0 56.833 -4 76.5 -12s37.167 -20.667 52.5 -38l-27 -46c-13.333 13.333 -28.666 22.833 -45.999 28.5
s-37.333 8.5 -60 8.5h-64c-34.667 0 -59.334 -7.33301 -74.001 -22c-7.33301 -7.33301 -12.833 -16.833 -16.5 -28.5s-5.5 -26.5 -5.5 -44.5v-199c0 -18 1.83301 -32.833 5.5 -44.5s9.16699 -21.167 16.5 -28.5c14.667 -14.667 39.334 -22 74.001 -22h71
c45.333 0 80.666 12.667 105.999 38l27 -45c-15.333 -17.333 -32.833 -30.333 -52.5 -39s-45.167 -13 -76.5 -13h-81zM307 717c4 4 8.33105 6.00098 12.998 6.00098s8.66699 -2.66699 12 -8l30 -46l-169 -103c-5.33301 -3.33301 -9.66602 -2.33301 -12.999 3l-11 17
c-3.33301 5.33301 -2.66602 9.66602 2.00098 12.999z" />
    <glyph glyph-name="Ccircumflex" unicode="&#x108;" horiz-adv-x="517" 
d="M214 -6c-54 0 -94.667 14.333 -122 43c-12 13.333 -21.333 29 -28 47s-10 40 -10 66v320c0 26 3.33301 48 10 66s16 33.667 28 47c27.333 28.667 68 43 122 43h116c34 0 61.833 -4.5 83.5 -13.5s40.834 -23.167 57.501 -42.5l-29 -51c-14 14 -30.5 24.833 -49.5 32.5
s-41.167 11.5 -66.5 11.5h-109c-34 0 -58 -7.66699 -72 -23c-15.333 -15.333 -23 -40 -23 -74v-312c0 -34 7.66699 -58.667 23 -74c14 -15.333 38 -23 72 -23h113c25.333 0 47.5 3.83301 66.5 11.5s35.5 18.5 49.5 32.5l29 -51c-16.667 -19.333 -35.834 -33.5 -57.501 -42.5
s-49.5 -13.5 -83.5 -13.5h-120zM276 840c7.33301 0 13 -1 17 -3s8.33301 -5.66699 13 -11l111 -138h-64l-81 103l-83 -103h-64l111 138c4.66699 5.33301 9 9 13 11s9.33301 3 16 3h11z" />
    <glyph glyph-name="ccircumflex" unicode="&#x109;" horiz-adv-x="462" 
d="M210 -6c-53.333 0 -92.666 13.667 -117.999 41c-24 24.667 -36 60.667 -36 108v209c0 46.667 12 82.667 36 108c25.333 27.333 64.666 41 117.999 41h74c31.333 0 56.833 -4 76.5 -12s37.167 -20.667 52.5 -38l-27 -46c-13.333 13.333 -28.666 22.833 -45.999 28.5
s-37.333 8.5 -60 8.5h-64c-34.667 0 -59.334 -7.33301 -74.001 -22c-7.33301 -7.33301 -12.833 -16.833 -16.5 -28.5s-5.5 -26.5 -5.5 -44.5v-199c0 -18 1.83301 -32.833 5.5 -44.5s9.16699 -21.167 16.5 -28.5c14.667 -14.667 39.334 -22 74.001 -22h71
c45.333 0 80.666 12.667 105.999 38l27 -45c-15.333 -17.333 -32.833 -30.333 -52.5 -39s-45.167 -13 -76.5 -13h-81zM246 730c7.33301 0 13 -1 17 -3s8.33301 -5.66699 13 -11l111 -138h-64l-81 103l-83 -103h-64l111 138c4.66699 5.33301 9 9 13 11s9.33301 3 16 3h11z
" />
    <glyph glyph-name="Cdotaccent" unicode="&#x10a;" horiz-adv-x="517" 
d="M214 -6c-54 0 -94.667 14.333 -122 43c-12 13.333 -21.333 29 -28 47s-10 40 -10 66v320c0 26 3.33301 48 10 66s16 33.667 28 47c27.333 28.667 68 43 122 43h116c34 0 61.833 -4.5 83.5 -13.5s40.834 -23.167 57.501 -42.5l-29 -51c-14 14 -30.5 24.833 -49.5 32.5
s-41.167 11.5 -66.5 11.5h-109c-34 0 -58 -7.66699 -72 -23c-15.333 -15.333 -23 -40 -23 -74v-312c0 -34 7.66699 -58.667 23 -74c14 -15.333 38 -23 72 -23h113c25.333 0 47.5 3.83301 66.5 11.5s35.5 18.5 49.5 32.5l29 -51c-16.667 -19.333 -35.834 -33.5 -57.501 -42.5
s-49.5 -13.5 -83.5 -13.5h-120zM276 702c-13.333 0 -25.166 4.66699 -35.499 14s-15.5 21.666 -15.5 36.999c0 14.667 5.16699 26.834 15.5 36.501s22.166 14.5 35.499 14.5s25.166 -4.83301 35.499 -14.5s15.5 -21.834 15.5 -36.501
c0 -15.333 -5.16699 -27.666 -15.5 -36.999s-22.166 -14 -35.499 -14z" />
    <glyph glyph-name="cdotaccent" unicode="&#x10b;" horiz-adv-x="462" 
d="M210 -6c-53.333 0 -92.666 13.667 -117.999 41c-24 24.667 -36 60.667 -36 108v209c0 46.667 12 82.667 36 108c25.333 27.333 64.666 41 117.999 41h74c31.333 0 56.833 -4 76.5 -12s37.167 -20.667 52.5 -38l-27 -46c-13.333 13.333 -28.666 22.833 -45.999 28.5
s-37.333 8.5 -60 8.5h-64c-34.667 0 -59.334 -7.33301 -74.001 -22c-7.33301 -7.33301 -12.833 -16.833 -16.5 -28.5s-5.5 -26.5 -5.5 -44.5v-199c0 -18 1.83301 -32.833 5.5 -44.5s9.16699 -21.167 16.5 -28.5c14.667 -14.667 39.334 -22 74.001 -22h71
c45.333 0 80.666 12.667 105.999 38l27 -45c-15.333 -17.333 -32.833 -30.333 -52.5 -39s-45.167 -13 -76.5 -13h-81zM246 592c-13.333 0 -25.166 4.66699 -35.499 14s-15.5 21.666 -15.5 36.999c0 14.667 5.16699 26.834 15.5 36.501s22.166 14.5 35.499 14.5
s25.166 -4.83301 35.499 -14.5s15.5 -21.834 15.5 -36.501c0 -15.333 -5.16699 -27.666 -15.5 -36.999s-22.166 -14 -35.499 -14z" />
    <glyph glyph-name="Ccaron" unicode="&#x10c;" horiz-adv-x="517" 
d="M214 -6c-54 0 -94.667 14.333 -122 43c-12 13.333 -21.333 29 -28 47s-10 40 -10 66v320c0 26 3.33301 48 10 66s16 33.667 28 47c27.333 28.667 68 43 122 43h116c34 0 61.833 -4.5 83.5 -13.5s40.834 -23.167 57.501 -42.5l-29 -51c-14 14 -30.5 24.833 -49.5 32.5
s-41.167 11.5 -66.5 11.5h-109c-34 0 -58 -7.66699 -72 -23c-15.333 -15.333 -23 -40 -23 -74v-312c0 -34 7.66699 -58.667 23 -74c14 -15.333 38 -23 72 -23h113c25.333 0 47.5 3.83301 66.5 11.5s35.5 18.5 49.5 32.5l29 -51c-16.667 -19.333 -35.834 -33.5 -57.501 -42.5
s-49.5 -13.5 -83.5 -13.5h-120zM270 686c-6.66699 0 -12 1 -16 3s-8.33301 5.66699 -13 11l-111 138h64l83 -103l81 103h64l-111 -138c-4.66699 -5.33301 -9 -9 -13 -11s-9.66699 -3 -17 -3h-11z" />
    <glyph glyph-name="ccaron" unicode="&#x10d;" horiz-adv-x="462" 
d="M210 -6c-53.333 0 -92.666 13.667 -117.999 41c-24 24.667 -36 60.667 -36 108v209c0 46.667 12 82.667 36 108c25.333 27.333 64.666 41 117.999 41h74c31.333 0 56.833 -4 76.5 -12s37.167 -20.667 52.5 -38l-27 -46c-13.333 13.333 -28.666 22.833 -45.999 28.5
s-37.333 8.5 -60 8.5h-64c-34.667 0 -59.334 -7.33301 -74.001 -22c-7.33301 -7.33301 -12.833 -16.833 -16.5 -28.5s-5.5 -26.5 -5.5 -44.5v-199c0 -18 1.83301 -32.833 5.5 -44.5s9.16699 -21.167 16.5 -28.5c14.667 -14.667 39.334 -22 74.001 -22h71
c45.333 0 80.666 12.667 105.999 38l27 -45c-15.333 -17.333 -32.833 -30.333 -52.5 -39s-45.167 -13 -76.5 -13h-81zM237 576c-6.66699 0 -12 1 -16 3s-8.33301 5.66699 -13 11l-111 138h64l83 -103l81 103h64l-111 -138c-4.66699 -5.33301 -9 -9 -13 -11
s-9.66699 -3 -17 -3h-11z" />
    <glyph glyph-name="Dcaron" unicode="&#x10e;" horiz-adv-x="575" 
d="M352 58c36.667 0 62.334 8 77.001 24c16 16 24 40.333 24 73v310c0 32.667 -8 57 -24 73c-14.667 16 -40.334 24 -77.001 24h-213v-504h213zM89 0c-12 0 -18 6.33301 -18 19v582c0 12.667 6 19 18 19h278c50 0 88.333 -14 115 -42
c12.667 -13.333 22.334 -29.333 29.001 -48s10 -41 10 -67v-306c0 -25.333 -3.33301 -47.5 -10 -66.5s-16.334 -35.167 -29.001 -48.5c-26.667 -28 -65 -42 -115 -42h-278zM291 686c-6.66699 0 -12 1 -16 3s-8.33301 5.66699 -13 11l-111 138h64l83 -103l81 103h64
l-111 -138c-4.66699 -5.33301 -9 -9 -13 -11s-9.66699 -3 -17 -3h-11z" />
    <glyph glyph-name="dcaron" unicode="&#x10f;" horiz-adv-x="608" 
d="M210 -6c-53.333 0 -92.6641 13.667 -117.997 41c-24 24.667 -36 60.667 -36 108v209c0 46.667 12 82.667 36 108c25.333 27.333 64.666 41 117.999 41h88c11.333 0 20.666 -1 27.999 -3s16.666 -6 27.999 -12l31 -17v216h64v-598c0 -9.33301 -1.83301 -16.833 -5.5 -22.5
s-10.167 -12.167 -19.5 -19.5l-51 -38c-8 -6 -15.333 -9.66699 -22 -11s-17.667 -2 -33 -2h-108zM318.002 53c7.33301 0 12.333 0.500977 15 1.50098s6.66699 3.16699 12 6.5l34 25c4 3.33301 6 7 6 11v306c0 4 -2 7 -6 9l-57 27c-2.66699 1.33301 -5 2.16602 -7 2.49902
s-5 0.5 -9 0.5h-90c-34.667 0 -59.334 -7.33301 -74.001 -22c-7.33301 -7.33301 -12.833 -16.833 -16.5 -28.5s-5.5 -26.5 -5.5 -44.5v-199c0 -18 1.83301 -32.833 5.5 -44.5s9.16699 -21.167 16.5 -28.5c14.667 -14.667 39.334 -22 74.001 -22h102zM531.002 685.001h55.999
c8.66699 0 11.667 -4.66699 9 -14l-39 -153c-1.33301 -3.33301 -2.66602 -5.83301 -3.99902 -7.5s-4 -2.5 -8 -2.5h-26c-6.66699 0 -9.66699 3.33301 -9 10z" />
    <glyph glyph-name="Dcroat" unicode="&#x110;" horiz-adv-x="589" 
d="M85 337v264c0 12.667 6 19 18 19h278c50 0 88.333 -14 115 -42c12.667 -13.333 22.334 -29.333 29.001 -48s10 -41 10 -67v-306c0 -25.333 -3.33301 -47.5 -10 -66.5s-16.334 -35.167 -29.001 -48.5c-26.667 -28 -65 -42 -115 -42h-278c-12 -0 -18 6.33301 -18 19v266
h-61v52h61zM366 58c36.667 0 62.334 8 77.001 24c16 16 24 40.333 24 73v310c0 32.667 -8 57 -24 73c-14.667 16 -40.334 24 -77.001 24h-213v-225h150v-52h-150v-227h213z" />
    <glyph glyph-name="dcroat" unicode="&#x111;" horiz-adv-x="523" 
d="M261 608h124.002v77h64v-77h74v-52h-74v-469c0 -9.33301 -1.83301 -16.833 -5.5 -22.5s-10.167 -12.167 -19.5 -19.5l-51 -38c-8 -6 -15.333 -9.66699 -22 -11s-17.667 -2 -33 -2h-108c-53.333 0 -92.666 13.667 -117.999 41c-24 24.667 -36 60.667 -36 108v209
c0 46.667 12 82.667 36 108c25.333 27.333 64.666 41 117.999 41h88c11.333 0 20.666 -1 27.999 -3s16.666 -6 27.999 -12l31 -17v87h-124v52zM318.002 53c7.33301 0 12.333 0.500977 15 1.50098s6.66699 3.16699 12 6.5l34 25c4 3.33301 6 7 6 11v306c0 4 -2 7 -6 9l-57 27
c-2.66699 1.33301 -5 2.16602 -7 2.49902s-5 0.5 -9 0.5h-90c-34.667 0 -59.334 -7.33301 -74.001 -22c-7.33301 -7.33301 -12.833 -16.833 -16.5 -28.5s-5.5 -26.5 -5.5 -44.5v-199c0 -18 1.83301 -32.833 5.5 -44.5s9.16699 -21.167 16.5 -28.5
c14.667 -14.667 39.334 -22 74.001 -22h102z" />
    <glyph glyph-name="Emacron" unicode="&#x112;" horiz-adv-x="496" 
d="M71 601c0 12.667 6 19 18 19h348v-57h-298v-223h248v-57h-248v-226h305v-57h-355c-12 -0 -18 6.33301 -18 19v582zM135 765h246v-53h-246v53z" />
    <glyph glyph-name="emacron" unicode="&#x113;" horiz-adv-x="497" 
d="M439 255c0 -22.667 -9.33301 -34 -28 -34h-291v-73c0 -18 1.83301 -32.833 5.5 -44.5s9.16699 -21.167 16.5 -28.5c14.667 -14.667 39.334 -22 74.001 -22h84c45.333 0 80.666 12.667 105.999 38l27 -45c-15.333 -17.333 -32.833 -30.333 -52.5 -39
s-45.167 -13 -76.5 -13h-94c-53.333 0 -92.666 13.667 -117.999 41c-24 24.667 -36 60.667 -36 108v209c0 46.667 12 82.667 36 108c25.333 27.333 64.666 41 117.999 41h75c27.333 0 50.833 -3.5 70.5 -10.5s35.5 -17.167 47.5 -30.5c24 -25.333 36 -61.333 36 -108v-97z
M375 277l0.00195312 70c0 18 -1.83301 32.833 -5.5 44.5s-9.16699 21.167 -16.5 28.5c-14.667 14.667 -39.334 22 -74.001 22h-63c-34.667 0 -59.334 -7.33301 -74.001 -22c-7.33301 -7.33301 -12.833 -16.833 -16.5 -28.5s-5.5 -26.5 -5.5 -44.5v-70h255zM125.002 655h246
v-53h-246v53z" />
    <glyph glyph-name="Ebreve" unicode="&#x114;" horiz-adv-x="496" 
d="M71 601c0 12.667 6 19 18 19h348v-57h-298v-223h248v-57h-248v-226h305v-57h-355c-12 -0 -18 6.33301 -18 19v582zM188 807v-20c0 -11.333 0.833008 -20 2.5 -26s4.5 -11 8.5 -15c7.33301 -7.33301 20 -11 38 -11h42c18 0 30.667 3.66699 38 11c4 4 6.83301 9 8.5 15
s2.5 14.667 2.5 26v20h51v-32c0 -30.667 -7.33301 -52.667 -22 -66c-15.333 -14.667 -39.333 -22 -72 -22h-54c-32.667 0 -56.667 7.33301 -72 22c-14.667 13.333 -22 35.333 -22 66v32h51z" />
    <glyph glyph-name="ebreve" unicode="&#x115;" horiz-adv-x="497" 
d="M439 255c0 -22.667 -9.33301 -34 -28 -34h-291v-73c0 -18 1.83301 -32.833 5.5 -44.5s9.16699 -21.167 16.5 -28.5c14.667 -14.667 39.334 -22 74.001 -22h84c45.333 0 80.666 12.667 105.999 38l27 -45c-15.333 -17.333 -32.833 -30.333 -52.5 -39
s-45.167 -13 -76.5 -13h-94c-53.333 0 -92.666 13.667 -117.999 41c-24 24.667 -36 60.667 -36 108v209c0 46.667 12 82.667 36 108c25.333 27.333 64.666 41 117.999 41h75c27.333 0 50.833 -3.5 70.5 -10.5s35.5 -17.167 47.5 -30.5c24 -25.333 36 -61.333 36 -108v-97z
M375 277l0.00195312 70c0 18 -1.83301 32.833 -5.5 44.5s-9.16699 21.167 -16.5 28.5c-14.667 14.667 -39.334 22 -74.001 22h-63c-34.667 0 -59.334 -7.33301 -74.001 -22c-7.33301 -7.33301 -12.833 -16.833 -16.5 -28.5s-5.5 -26.5 -5.5 -44.5v-70h255zM178.002 697v-20
c0 -11.333 0.833008 -20 2.5 -26s4.5 -11 8.5 -15c7.33301 -7.33301 20 -11 38 -11h42c18 0 30.667 3.66699 38 11c4 4 6.83301 9 8.5 15s2.5 14.667 2.5 26v20h51v-32c0 -30.667 -7.33301 -52.667 -22 -66c-15.333 -14.667 -39.333 -22 -72 -22h-54
c-32.667 0 -56.667 7.33301 -72 22c-14.667 13.333 -22 35.333 -22 66v32h51z" />
    <glyph glyph-name="Edotaccent" unicode="&#x116;" horiz-adv-x="496" 
d="M71 601c0 12.667 6 19 18 19h348v-57h-298v-223h248v-57h-248v-226h305v-57h-355c-12 -0 -18 6.33301 -18 19v582zM264 702c-13.333 0 -25.166 4.66699 -35.499 14s-15.5 21.666 -15.5 36.999c0 14.667 5.16699 26.834 15.5 36.501s22.166 14.5 35.499 14.5
s25.166 -4.83301 35.499 -14.5s15.5 -21.834 15.5 -36.501c0 -15.333 -5.16699 -27.666 -15.5 -36.999s-22.166 -14 -35.499 -14z" />
    <glyph glyph-name="edotaccent" unicode="&#x117;" horiz-adv-x="497" 
d="M439 255c0 -22.667 -9.33301 -34 -28 -34h-291v-73c0 -18 1.83301 -32.833 5.5 -44.5s9.16699 -21.167 16.5 -28.5c14.667 -14.667 39.334 -22 74.001 -22h84c45.333 0 80.666 12.667 105.999 38l27 -45c-15.333 -17.333 -32.833 -30.333 -52.5 -39
s-45.167 -13 -76.5 -13h-94c-53.333 0 -92.666 13.667 -117.999 41c-24 24.667 -36 60.667 -36 108v209c0 46.667 12 82.667 36 108c25.333 27.333 64.666 41 117.999 41h75c27.333 0 50.833 -3.5 70.5 -10.5s35.5 -17.167 47.5 -30.5c24 -25.333 36 -61.333 36 -108v-97z
M375 277l0.00195312 70c0 18 -1.83301 32.833 -5.5 44.5s-9.16699 21.167 -16.5 28.5c-14.667 14.667 -39.334 22 -74.001 22h-63c-34.667 0 -59.334 -7.33301 -74.001 -22c-7.33301 -7.33301 -12.833 -16.833 -16.5 -28.5s-5.5 -26.5 -5.5 -44.5v-70h255zM248.002 592
c-13.333 0 -25.166 4.66699 -35.499 14s-15.5 21.666 -15.5 36.999c0 14.667 5.16699 26.834 15.5 36.501s22.166 14.5 35.499 14.5s25.166 -4.83301 35.499 -14.5s15.5 -21.834 15.5 -36.501c0 -15.333 -5.16699 -27.666 -15.5 -36.999s-22.166 -14 -35.499 -14z" />
    <glyph glyph-name="Eogonek" unicode="&#x118;" horiz-adv-x="496" 
d="M89 0c-12 0 -18 6.33496 -18 19.002v582c0 12.667 6 19 18 19h348v-57h-298v-223h248v-57h-248v-226h305v-43c0 -4.66699 -1.66699 -9.33398 -5 -14.001l-97 -142l81 -58l-29 -40l-96 68c-12.667 8.66699 -19 18 -19 28c0 7.33301 4 15.666 12 24.999l97 119h-299z" />
    <glyph glyph-name="eogonek" unicode="&#x119;" horiz-adv-x="497" 
d="M439 255c0 -22.667 -9.33301 -34 -28 -34h-291v-73c0 -18 1.83301 -32.833 5.5 -44.5s9.16699 -21.167 16.5 -28.5c14.667 -14.667 39.334 -22 74.001 -22h84c45.333 0 80.666 12.667 105.999 38l25 -42l-163 -191l81 -58l-29 -40l-96 68c-12.667 8.66699 -19 18 -19 28
c0 8.66699 4 17 12 25l117 119c-16 -4 -34 -6 -54 -6h-70c-53.333 0 -92.666 13.667 -117.999 41c-24 24.667 -36 60.667 -36 108v209c0 46.667 12 82.667 36 108c25.333 27.333 64.666 41 117.999 41h75c27.333 0 50.833 -3.5 70.5 -10.5s35.5 -17.167 47.5 -30.5
c24 -25.333 36 -61.333 36 -108v-97zM375 277l0.00195312 70c0 18 -1.83301 32.833 -5.5 44.5s-9.16699 21.167 -16.5 28.5c-14.667 14.667 -39.334 22 -74.001 22h-63c-34.667 0 -59.334 -7.33301 -74.001 -22c-7.33301 -7.33301 -12.833 -16.833 -16.5 -28.5
s-5.5 -26.5 -5.5 -44.5v-70h255z" />
    <glyph glyph-name="Ecaron" unicode="&#x11a;" horiz-adv-x="496" 
d="M71 601c0 12.667 6 19 18 19h348v-57h-298v-223h248v-57h-248v-226h305v-57h-355c-12 -0 -18 6.33301 -18 19v582zM262 686c-6.66699 0 -12 1 -16 3s-8.33301 5.66699 -13 11l-111 138h64l83 -103l81 103h64l-111 -138c-4.66699 -5.33301 -9 -9 -13 -11
s-9.66699 -3 -17 -3h-11z" />
    <glyph glyph-name="ecaron" unicode="&#x11b;" horiz-adv-x="497" 
d="M439 255c0 -22.667 -9.33301 -34 -28 -34h-291v-73c0 -18 1.83301 -32.833 5.5 -44.5s9.16699 -21.167 16.5 -28.5c14.667 -14.667 39.334 -22 74.001 -22h84c45.333 0 80.666 12.667 105.999 38l27 -45c-15.333 -17.333 -32.833 -30.333 -52.5 -39
s-45.167 -13 -76.5 -13h-94c-53.333 0 -92.666 13.667 -117.999 41c-24 24.667 -36 60.667 -36 108v209c0 46.667 12 82.667 36 108c25.333 27.333 64.666 41 117.999 41h75c27.333 0 50.833 -3.5 70.5 -10.5s35.5 -17.167 47.5 -30.5c24 -25.333 36 -61.333 36 -108v-97z
M375 277l0.00195312 70c0 18 -1.83301 32.833 -5.5 44.5s-9.16699 21.167 -16.5 28.5c-14.667 14.667 -39.334 22 -74.001 22h-63c-34.667 0 -59.334 -7.33301 -74.001 -22c-7.33301 -7.33301 -12.833 -16.833 -16.5 -28.5s-5.5 -26.5 -5.5 -44.5v-70h255zM242.002 576
c-6.66699 0 -12 1 -16 3s-8.33301 5.66699 -13 11l-111 138h64l83 -103l81 103h64l-111 -138c-4.66699 -5.33301 -9 -9 -13 -11s-9.66699 -3 -17 -3h-11z" />
    <glyph glyph-name="Gcircumflex" unicode="&#x11c;" horiz-adv-x="569" 
d="M446 283l-93.998 -0.00195312v52h146c10 0 15 -5.33301 15 -16v-236c0 -9.33301 -1.66699 -16.666 -5 -21.999s-10.666 -11.666 -21.999 -18.999l-56 -35c-8.66699 -5.33301 -17 -8.83301 -25 -10.5s-19.667 -2.5 -35 -2.5h-156c-54 0 -94.667 14.333 -122 43
c-12 13.333 -21.333 29 -28 47s-10 40 -10 66v320c0 26 3.33301 48 10 66s16 33.667 28 47c27.333 28.667 68 43 122 43h137c34.667 0 62.667 -4.5 84 -13.5s40.333 -23.167 57 -42.5l-29 -51c-14 14 -30.5 24.833 -49.5 32.5s-41.167 11.5 -66.5 11.5h-130
c-34 0 -58 -7.66699 -72 -23c-15.333 -15.333 -23 -40 -23 -74v-312c0 -34 7.66699 -58.667 23 -74c14 -15.333 38 -23 72 -23h158c7.33301 0 12.666 0.333008 15.999 1s7.66602 2.66699 12.999 6l36 23c3.33301 2 5.16602 3.5 5.49902 4.5s0.5 3.16699 0.5 6.5v185z
M289.002 839.998c7.33301 0 13 -1 17 -3s8.33301 -5.66699 13 -11l111 -138h-64l-81 103l-83 -103h-64l111 138c4.66699 5.33301 9 9 13 11s9.33301 3 16 3h11z" />
    <glyph glyph-name="gcircumflex" unicode="&#x11d;" horiz-adv-x="514" 
d="M449 -43c0 -47.333 -12.668 -84.667 -38.001 -112c-26 -27.333 -63 -41 -111 -41h-84c-31.333 0 -56.833 4.33301 -76.5 13s-37.167 21.667 -52.5 39l27 45c25.333 -25.333 60.666 -38 105.999 -38h73c32 0 55.333 7.33301 70 22c14.667 15.333 22 39.333 22 72v69
l-31 -17c-11.333 -6 -20.666 -10 -27.999 -12s-16.666 -3 -27.999 -3h-88c-53.333 0 -92.666 13.667 -117.999 41c-24 24.667 -36 60.667 -36 108v209c0 46.667 12 82.667 36 108c25.333 27.333 64.666 41 117.999 41h108c15.333 0 26.333 -0.666992 33 -2s14 -5 22 -11
l51 -38c9.33301 -7.33301 15.833 -13.833 19.5 -19.5s5.5 -13.167 5.5 -22.5v-451zM215.999 441.999c-34.667 0 -59.334 -7.33203 -74.001 -21.999c-7.33301 -7.33301 -12.833 -16.833 -16.5 -28.5s-5.5 -26.5 -5.5 -44.5v-199c0 -18 1.83301 -32.833 5.5 -44.5
s9.16699 -21.167 16.5 -28.5c14.667 -14.667 39.334 -22 74.001 -22h90c4 0 7 0.166992 9 0.5s4.33301 1.16602 7 2.49902l57 27c4 2 6 5 6 9v306c0 4 -2 7.66699 -6 11l-34 25c-5.33301 3.33301 -9.33301 5.5 -12 6.5s-7.66699 1.5 -15 1.5h-102zM261.999 730
c7.33301 0 13 -1 17 -3s8.33301 -5.66699 13 -11l111 -138h-64l-81 103l-83 -103h-64l111 138c4.66699 5.33301 9 9 13 11s9.33301 3 16 3h11z" />
    <glyph glyph-name="Gbreve" unicode="&#x11e;" horiz-adv-x="569" 
d="M446 283l-93.998 -0.00195312v52h146c10 0 15 -5.33301 15 -16v-236c0 -9.33301 -1.66699 -16.666 -5 -21.999s-10.666 -11.666 -21.999 -18.999l-56 -35c-8.66699 -5.33301 -17 -8.83301 -25 -10.5s-19.667 -2.5 -35 -2.5h-156c-54 0 -94.667 14.333 -122 43
c-12 13.333 -21.333 29 -28 47s-10 40 -10 66v320c0 26 3.33301 48 10 66s16 33.667 28 47c27.333 28.667 68 43 122 43h137c34.667 0 62.667 -4.5 84 -13.5s40.333 -23.167 57 -42.5l-29 -51c-14 14 -30.5 24.833 -49.5 32.5s-41.167 11.5 -66.5 11.5h-130
c-34 0 -58 -7.66699 -72 -23c-15.333 -15.333 -23 -40 -23 -74v-312c0 -34 7.66699 -58.667 23 -74c14 -15.333 38 -23 72 -23h158c7.33301 0 12.666 0.333008 15.999 1s7.66602 2.66699 12.999 6l36 23c3.33301 2 5.16602 3.5 5.49902 4.5s0.5 3.16699 0.5 6.5v185z
M214.002 806.998v-20c0 -11.333 0.833008 -20 2.5 -26s4.5 -11 8.5 -15c7.33301 -7.33301 20 -11 38 -11h42c18 0 30.667 3.66699 38 11c4 4 6.83301 9 8.5 15s2.5 14.667 2.5 26v20h51v-32c0 -30.667 -7.33301 -52.667 -22 -66c-15.333 -14.667 -39.333 -22 -72 -22h-54
c-32.667 0 -56.667 7.33301 -72 22c-14.667 13.333 -22 35.333 -22 66v32h51z" />
    <glyph glyph-name="gbreve" unicode="&#x11f;" horiz-adv-x="514" 
d="M449 -43c0 -47.333 -12.668 -84.667 -38.001 -112c-26 -27.333 -63 -41 -111 -41h-84c-31.333 0 -56.833 4.33301 -76.5 13s-37.167 21.667 -52.5 39l27 45c25.333 -25.333 60.666 -38 105.999 -38h73c32 0 55.333 7.33301 70 22c14.667 15.333 22 39.333 22 72v69
l-31 -17c-11.333 -6 -20.666 -10 -27.999 -12s-16.666 -3 -27.999 -3h-88c-53.333 0 -92.666 13.667 -117.999 41c-24 24.667 -36 60.667 -36 108v209c0 46.667 12 82.667 36 108c25.333 27.333 64.666 41 117.999 41h108c15.333 0 26.333 -0.666992 33 -2s14 -5 22 -11
l51 -38c9.33301 -7.33301 15.833 -13.833 19.5 -19.5s5.5 -13.167 5.5 -22.5v-451zM215.999 441.999c-34.667 0 -59.334 -7.33203 -74.001 -21.999c-7.33301 -7.33301 -12.833 -16.833 -16.5 -28.5s-5.5 -26.5 -5.5 -44.5v-199c0 -18 1.83301 -32.833 5.5 -44.5
s9.16699 -21.167 16.5 -28.5c14.667 -14.667 39.334 -22 74.001 -22h90c4 0 7 0.166992 9 0.5s4.33301 1.16602 7 2.49902l57 27c4 2 6 5 6 9v306c0 4 -2 7.66699 -6 11l-34 25c-5.33301 3.33301 -9.33301 5.5 -12 6.5s-7.66699 1.5 -15 1.5h-102zM186.999 697v-20
c0 -11.333 0.833008 -20 2.5 -26s4.5 -11 8.5 -15c7.33301 -7.33301 20 -11 38 -11h42c18 0 30.667 3.66699 38 11c4 4 6.83301 9 8.5 15s2.5 14.667 2.5 26v20h51v-32c0 -30.667 -7.33301 -52.667 -22 -66c-15.333 -14.667 -39.333 -22 -72 -22h-54
c-32.667 0 -56.667 7.33301 -72 22c-14.667 13.333 -22 35.333 -22 66v32h51z" />
    <glyph glyph-name="Gdotaccent" unicode="&#x120;" horiz-adv-x="569" 
d="M446 283l-93.998 -0.00195312v52h146c10 0 15 -5.33301 15 -16v-236c0 -9.33301 -1.66699 -16.666 -5 -21.999s-10.666 -11.666 -21.999 -18.999l-56 -35c-8.66699 -5.33301 -17 -8.83301 -25 -10.5s-19.667 -2.5 -35 -2.5h-156c-54 0 -94.667 14.333 -122 43
c-12 13.333 -21.333 29 -28 47s-10 40 -10 66v320c0 26 3.33301 48 10 66s16 33.667 28 47c27.333 28.667 68 43 122 43h137c34.667 0 62.667 -4.5 84 -13.5s40.333 -23.167 57 -42.5l-29 -51c-14 14 -30.5 24.833 -49.5 32.5s-41.167 11.5 -66.5 11.5h-130
c-34 0 -58 -7.66699 -72 -23c-15.333 -15.333 -23 -40 -23 -74v-312c0 -34 7.66699 -58.667 23 -74c14 -15.333 38 -23 72 -23h158c7.33301 0 12.666 0.333008 15.999 1s7.66602 2.66699 12.999 6l36 23c3.33301 2 5.16602 3.5 5.49902 4.5s0.5 3.16699 0.5 6.5v185z
M284.002 701.998c-13.333 0 -25.166 4.66699 -35.499 14s-15.5 21.666 -15.5 36.999c0 14.667 5.16699 26.834 15.5 36.501s22.166 14.5 35.499 14.5s25.166 -4.83301 35.499 -14.5s15.5 -21.834 15.5 -36.501c0 -15.333 -5.16699 -27.666 -15.5 -36.999
s-22.166 -14 -35.499 -14z" />
    <glyph glyph-name="gdotaccent" unicode="&#x121;" horiz-adv-x="514" 
d="M449 -43c0 -47.333 -12.668 -84.667 -38.001 -112c-26 -27.333 -63 -41 -111 -41h-84c-31.333 0 -56.833 4.33301 -76.5 13s-37.167 21.667 -52.5 39l27 45c25.333 -25.333 60.666 -38 105.999 -38h73c32 0 55.333 7.33301 70 22c14.667 15.333 22 39.333 22 72v69
l-31 -17c-11.333 -6 -20.666 -10 -27.999 -12s-16.666 -3 -27.999 -3h-88c-53.333 0 -92.666 13.667 -117.999 41c-24 24.667 -36 60.667 -36 108v209c0 46.667 12 82.667 36 108c25.333 27.333 64.666 41 117.999 41h108c15.333 0 26.333 -0.666992 33 -2s14 -5 22 -11
l51 -38c9.33301 -7.33301 15.833 -13.833 19.5 -19.5s5.5 -13.167 5.5 -22.5v-451zM215.999 441.999c-34.667 0 -59.334 -7.33203 -74.001 -21.999c-7.33301 -7.33301 -12.833 -16.833 -16.5 -28.5s-5.5 -26.5 -5.5 -44.5v-199c0 -18 1.83301 -32.833 5.5 -44.5
s9.16699 -21.167 16.5 -28.5c14.667 -14.667 39.334 -22 74.001 -22h90c4 0 7 0.166992 9 0.5s4.33301 1.16602 7 2.49902l57 27c4 2 6 5 6 9v306c0 4 -2 7.66699 -6 11l-34 25c-5.33301 3.33301 -9.33301 5.5 -12 6.5s-7.66699 1.5 -15 1.5h-102zM256.999 592
c-13.333 0 -25.166 4.66699 -35.499 14s-15.5 21.666 -15.5 36.999c0 14.667 5.16699 26.834 15.5 36.501s22.166 14.5 35.499 14.5s25.166 -4.83301 35.499 -14.5s15.5 -21.834 15.5 -36.501c0 -15.333 -5.16699 -27.666 -15.5 -36.999s-22.166 -14 -35.499 -14z" />
    <glyph glyph-name="Gcommaaccent" unicode="&#x122;" horiz-adv-x="569" 
d="M446 283l-93.998 -0.00195312v52h146c10 0 15 -5.33301 15 -16v-236c0 -9.33301 -1.66699 -16.666 -5 -21.999s-10.666 -11.666 -21.999 -18.999l-56 -35c-8.66699 -5.33301 -17 -8.83301 -25 -10.5s-19.667 -2.5 -35 -2.5h-156c-54 0 -94.667 14.333 -122 43
c-12 13.333 -21.333 29 -28 47s-10 40 -10 66v320c0 26 3.33301 48 10 66s16 33.667 28 47c27.333 28.667 68 43 122 43h137c34.667 0 62.667 -4.5 84 -13.5s40.333 -23.167 57 -42.5l-29 -51c-14 14 -30.5 24.833 -49.5 32.5s-41.167 11.5 -66.5 11.5h-130
c-34 0 -58 -7.66699 -72 -23c-15.333 -15.333 -23 -40 -23 -74v-312c0 -34 7.66699 -58.667 23 -74c14 -15.333 38 -23 72 -23h158c7.33301 0 12.666 0.333008 15.999 1s7.66602 2.66699 12.999 6l36 23c3.33301 2 5.16602 3.5 5.49902 4.5s0.5 3.16699 0.5 6.5v185z
M265.002 -46.002h55.999c8.66699 0 11.667 -4.66699 9 -14l-39 -153c-1.33301 -3.33301 -2.66602 -5.83301 -3.99902 -7.5s-4 -2.5 -8 -2.5h-26c-6.66699 0 -9.66699 3.33301 -9 10z" />
    <glyph glyph-name="gcommaaccent" unicode="&#x123;" horiz-adv-x="514" 
d="M449 -43c0 -47.333 -12.668 -84.667 -38.001 -112c-26 -27.333 -63 -41 -111 -41h-84c-31.333 0 -56.833 4.33301 -76.5 13s-37.167 21.667 -52.5 39l27 45c25.333 -25.333 60.666 -38 105.999 -38h73c32 0 55.333 7.33301 70 22c14.667 15.333 22 39.333 22 72v69
l-31 -17c-11.333 -6 -20.666 -10 -27.999 -12s-16.666 -3 -27.999 -3h-88c-53.333 0 -92.666 13.667 -117.999 41c-24 24.667 -36 60.667 -36 108v209c0 46.667 12 82.667 36 108c25.333 27.333 64.666 41 117.999 41h108c15.333 0 26.333 -0.666992 33 -2s14 -5 22 -11
l51 -38c9.33301 -7.33301 15.833 -13.833 19.5 -19.5s5.5 -13.167 5.5 -22.5v-451zM215.999 441.999c-34.667 0 -59.334 -7.33203 -74.001 -21.999c-7.33301 -7.33301 -12.833 -16.833 -16.5 -28.5s-5.5 -26.5 -5.5 -44.5v-199c0 -18 1.83301 -32.833 5.5 -44.5
s9.16699 -21.167 16.5 -28.5c14.667 -14.667 39.334 -22 74.001 -22h90c4 0 7 0.166992 9 0.5s4.33301 1.16602 7 2.49902l57 27c4 2 6 5 6 9v306c0 4 -2 7.66699 -6 11l-34 25c-5.33301 3.33301 -9.33301 5.5 -12 6.5s-7.66699 1.5 -15 1.5h-102zM287.01 566.997
l-55.9961 -0.000976562c-8.66602 0 -11.666 4.66602 -8.99902 13.999l38.9971 152.991c1.33301 3.33301 2.66602 5.83301 3.99902 7.5s4 2.5 8 2.5h25.998c6.66602 0 9.66602 -3.33301 8.99902 -9.99902z" />
    <glyph glyph-name="Hcircumflex" unicode="&#x124;" horiz-adv-x="595" 
d="M524 0h-68v282h-317v-282h-68v620h68v-277h317v277h68v-620zM302 840c7.33301 0 13 -1 17 -3s8.33301 -5.66699 13 -11l111 -138h-64l-81 103l-83 -103h-64l111 138c4.66699 5.33301 9 9 13 11s9.33301 3 16 3h11z" />
    <glyph glyph-name="hcircumflex" unicode="&#x125;" horiz-adv-x="519" 
d="M301 501c27.333 0 50.834 -3.50195 70.501 -10.502s35.5 -17.167 47.5 -30.5c24 -25.333 36 -61.333 36 -108v-352h-64v347c0 18 -1.83301 32.833 -5.5 44.5s-9.16699 21.167 -16.5 28.5c-14.667 14.667 -39.334 22 -74.001 22h-86c-3.33301 0 -6 -0.166992 -8 -0.5
s-4.66699 -1.16602 -8 -2.49902l-57 -27c-4 -2 -6 -5 -6 -9v-403h-64v685h64v-216l31 17c12 6.66699 21.333 10.834 28 12.501s16 2.5 28 2.5h84zM103.001 853.998c7.33301 0 13 -1 17 -3s8.33301 -5.66699 13 -11l111 -138h-64l-81 103l-83 -103h-64l111 138
c4.66699 5.33301 9 9 13 11s9.33301 3 16 3h11z" />
    <glyph glyph-name="Hbar" unicode="&#x126;" horiz-adv-x="609" 
d="M16 513h62v107h68v-107h317v107h68v-107h62v-55h-62v-458h-68v282h-317v-282h-68v458h-62v55zM463 343v115h-317v-115h317z" />
    <glyph glyph-name="hbar" unicode="&#x127;" horiz-adv-x="527" 
d="M138 556l0.000976562 -87.002l31 17c12 6.66699 21.333 10.834 28 12.501s16 2.5 28 2.5h84c27.333 0 50.833 -3.5 70.5 -10.5s35.5 -17.167 47.5 -30.5c24 -25.333 36 -61.333 36 -108v-352h-64v347c0 18 -1.83301 32.833 -5.5 44.5s-9.16699 21.167 -16.5 28.5
c-14.667 14.667 -39.334 22 -74.001 22h-86c-3.33301 0 -6 -0.166992 -8 -0.5s-4.66699 -1.16602 -8 -2.49902l-57 -27c-4 -2 -6 -5 -6 -9v-403h-64v556h-74v52h74v77h64v-77h124v-52h-124z" />
    <glyph glyph-name="Itilde" unicode="&#x128;" horiz-adv-x="214" 
d="M73 620h68v-620h-68v620zM250 799l24 -32l-36 -31c-15.333 -12.667 -28.666 -22 -39.999 -28s-23.666 -9 -36.999 -9s-24.5 2.33301 -33.5 7s-17.5 9.66699 -25.5 15s-15.667 10.333 -23 15s-16 7 -26 7c-7.33301 0 -13.5 -1 -18.5 -3s-10.833 -5 -17.5 -9l-50 -32
l-24 32l36 32c15.333 13.333 28.666 22.833 39.999 28.5s23.666 8.5 36.999 8.5c12.667 0 23.667 -2.33301 33 -7s18 -9.66699 26 -15s15.667 -10.333 23 -15s16 -7 26 -7c7.33301 0 13.5 1 18.5 3s10.833 5 17.5 9z" />
    <glyph glyph-name="itilde" unicode="&#x129;" horiz-adv-x="212" 
d="M138 0h-64v495h64v-495zM249 689l24 -32l-36 -31c-15.333 -12.667 -28.666 -22 -39.999 -28s-23.666 -9 -36.999 -9s-24.5 2.33301 -33.5 7s-17.5 9.66699 -25.5 15s-15.667 10.333 -23 15s-16 7 -26 7c-7.33301 0 -13.5 -1 -18.5 -3s-10.833 -5 -17.5 -9l-50 -32l-24 32
l36 32c15.333 13.333 28.666 22.833 39.999 28.5s23.666 8.5 36.999 8.5c12.667 0 23.667 -2.33301 33 -7s18 -9.66699 26 -15s15.667 -10.333 23 -15s16 -7 26 -7c7.33301 0 13.5 1 18.5 3s10.833 5 17.5 9z" />
    <glyph glyph-name="Imacron" unicode="&#x12a;" horiz-adv-x="214" 
d="M73 620h68v-620h-68v620zM-15 765h246v-53h-246v53z" />
    <glyph glyph-name="imacron" unicode="&#x12b;" horiz-adv-x="212" 
d="M138 0h-64v495h64v-495zM-16 655h246v-53h-246v53z" />
    <glyph glyph-name="Ibreve" unicode="&#x12c;" horiz-adv-x="214" 
d="M73 620h68v-620h-68v620zM38 807v-20c0 -11.333 0.833008 -20 2.5 -26s4.5 -11 8.5 -15c7.33301 -7.33301 20 -11 38 -11h42c18 0 30.667 3.66699 38 11c4 4 6.83301 9 8.5 15s2.5 14.667 2.5 26v20h51v-32c0 -30.667 -7.33301 -52.667 -22 -66
c-15.333 -14.667 -39.333 -22 -72 -22h-54c-32.667 0 -56.667 7.33301 -72 22c-14.667 13.333 -22 35.333 -22 66v32h51z" />
    <glyph glyph-name="ibreve" unicode="&#x12d;" horiz-adv-x="212" 
d="M138 0h-64v495h64v-495zM37 697v-20c0 -11.333 0.833008 -20 2.5 -26s4.5 -11 8.5 -15c7.33301 -7.33301 20 -11 38 -11h42c18 0 30.667 3.66699 38 11c4 4 6.83301 9 8.5 15s2.5 14.667 2.5 26v20h51v-32c0 -30.667 -7.33301 -52.667 -22 -66
c-15.333 -14.667 -39.333 -22 -72 -22h-54c-32.667 0 -56.667 7.33301 -72 22c-14.667 13.333 -22 35.333 -22 66v32h51z" />
    <glyph glyph-name="Iogonek" unicode="&#x12e;" horiz-adv-x="214" 
d="M73 620h68v-595c0 -4 -1.66699 -8.66699 -5 -14l-97 -151l81 -58l-29 -40l-96 68c-12.667 9.33301 -19 18 -19 26c0 4 1 8 3 12s5 9 9 15l85 117v620z" />
    <glyph glyph-name="iogonek" unicode="&#x12f;" horiz-adv-x="212" 
d="M-25 -146c0 6.66699 4 15.666 12 26.999l87 125v489h64v-470c0 -5.33301 -1.66699 -10.333 -5 -15l-95 -152l81 -58l-29 -40l-96 68c-12.667 8.66699 -19 17.334 -19 26.001zM106 574.999c-12 0 -22.5 4.16699 -31.5 12.5s-13.5 19.166 -13.5 32.499
s4.5 24.166 13.5 32.499s19.5 12.5 31.5 12.5s22.5 -4.16699 31.5 -12.5s13.5 -19.166 13.5 -32.499s-4.5 -24.166 -13.5 -32.499s-19.5 -12.5 -31.5 -12.5z" />
    <glyph glyph-name="Idotaccent" unicode="&#x130;" horiz-adv-x="214" 
d="M73 620h68v-620h-68v620zM108 702c-13.333 0 -25.166 4.66699 -35.499 14s-15.5 21.666 -15.5 36.999c0 14.667 5.16699 26.834 15.5 36.501s22.166 14.5 35.499 14.5s25.166 -4.83301 35.499 -14.5s15.5 -21.834 15.5 -36.501c0 -15.333 -5.16699 -27.666 -15.5 -36.999
s-22.166 -14 -35.499 -14z" />
    <glyph glyph-name="dotlessi" unicode="&#x131;" horiz-adv-x="212" 
d="M138 0h-64v495h64v-495z" />
    <glyph glyph-name="IJ" unicode="&#x132;" horiz-adv-x="679" 
d="M73 620h68v-620h-68v620zM398 -6c-29.333 0 -54.332 3.33301 -74.999 10s-42.334 19 -65.001 37l24 52c19.333 -13.333 37.833 -23 55.5 -29s38.167 -9 61.5 -9h53c32.667 0 56.667 7.66699 72 23s23 40 23 74v468h68v-470c0 -26 -3.33301 -48 -10 -66
s-16 -33.667 -28 -47c-27.333 -28.667 -68 -43 -122 -43h-57z" />
    <glyph glyph-name="ij" unicode="&#x133;" horiz-adv-x="424" 
d="M138 0h-64v495h64v-495zM106 575c-12 0 -22.5 4.16699 -31.5 12.5s-13.5 19.166 -13.5 32.499s4.5 24.166 13.5 32.499s19.5 12.5 31.5 12.5s22.5 -4.16699 31.5 -12.5s13.5 -19.166 13.5 -32.499s-4.5 -24.166 -13.5 -32.499s-19.5 -12.5 -31.5 -12.5zM167 -196
l-17.999 52.999h41c33.333 0 57.666 7 72.999 21c8.66699 8 14.667 18.333 18 31s5 27.667 5 45v541h64v-536c0 -53.333 -12.667 -92.666 -38 -117.999c-24.667 -24.667 -63 -37 -115 -37h-30zM318.001 574.999c-12 0 -22.5 4.16699 -31.5 12.5s-13.5 19.166 -13.5 32.499
s4.5 24.166 13.5 32.499s19.5 12.5 31.5 12.5s22.5 -4.16699 31.5 -12.5s13.5 -19.166 13.5 -32.499s-4.5 -24.166 -13.5 -32.499s-19.5 -12.5 -31.5 -12.5z" />
    <glyph glyph-name="Jcircumflex" unicode="&#x134;" horiz-adv-x="465" 
d="M184 -6c-29.333 0 -54.332 3.33301 -74.999 10s-42.334 19 -65.001 37l24 52c19.333 -13.333 37.833 -23 55.5 -29s38.167 -9 61.5 -9h53c32.667 0 56.667 7.66699 72 23s23 40 23 74v468h68v-470c0 -26 -3.33301 -48 -10 -66s-16 -33.667 -28 -47
c-27.333 -28.667 -68 -43 -122 -43h-57zM369.001 840c7.33301 0 13 -1 17 -3s8.33301 -5.66699 13 -11l111 -138h-64l-81 103l-83 -103h-64l111 138c4.66699 5.33301 9 9 13 11s9.33301 3 16 3h11z" />
    <glyph glyph-name="jcircumflex" unicode="&#x135;" horiz-adv-x="212" 
d="M-45 -216l-17.999 53.999h41c33.333 0 57.666 7 72.999 21c8.66699 8 14.667 18.333 18 31s5 27.667 5 45v560h64v-556c0 -53.333 -12.667 -92.666 -38 -117.999c-24.667 -24.667 -63 -37 -115 -37h-30zM111.001 729.999c7.33301 0 13 -1 17 -3s8.33301 -5.66699 13 -11
l111 -138h-64l-81 103l-83 -103h-64l111 138c4.66699 5.33301 9 9 13 11s9.33301 3 16 3h11z" />
    <glyph glyph-name="Kcommaaccent" unicode="&#x136;" horiz-adv-x="553" 
d="M533 0h-79.001l-180 259c-5.33301 7.33301 -9.5 11.833 -12.5 13.5s-8.83301 2.5 -17.5 2.5h-105v-275h-68v620h68v-287h106c9.33301 0 15.333 0.833008 18 2.5s6.33398 6.16699 11.001 13.5l165 271h72l-189 -309c-2.66699 -4 -2.66699 -7.66699 0 -11zM245.999 -46
h55.999c8.66699 0 11.667 -4.66699 9 -14l-39 -153c-1.33301 -3.33301 -2.66602 -5.83301 -3.99902 -7.5s-4 -2.5 -8 -2.5h-26c-6.66699 0 -9.66699 3.33301 -9 10z" />
    <glyph glyph-name="kcommaaccent" unicode="&#x137;" horiz-adv-x="470" 
d="M448 0h-70.999l-122 219c-3.33301 5.33301 -5.83301 8.5 -7.5 9.5s-5.5 1.5 -11.5 1.5h-106v-230h-64v685h64v-398h107c5.33301 0 9.66602 2.33301 12.999 7l127 201h66l-141 -222c-2.66699 -3.33301 -3 -7 -1 -11zM224.001 -46h55.999c8.66699 0 11.667 -4.66699 9 -14
l-39 -153c-1.33301 -3.33301 -2.66602 -5.83301 -3.99902 -7.5s-4 -2.5 -8 -2.5h-26c-6.66699 0 -9.66699 3.33301 -9 10z" />
    <glyph glyph-name="kgreenlandic" unicode="&#x138;" horiz-adv-x="470" 
d="M443 495l-144.999 -228l150 -267h-71l-122 219c-3.33301 5.33301 -5.83301 8.5 -7.5 9.5s-5.5 1.5 -11.5 1.5h-106v-230h-64v495h64v-208h107c5.33301 0 9.66602 2.33301 12.999 7l127 201h66z" />
    <glyph glyph-name="Lacute" unicode="&#x139;" horiz-adv-x="452" 
d="M71 620h68v-563h289v-57h-339c-12 -0 -18 6.33301 -18 19v601zM172 827c4 4 8.33105 6.00098 12.998 6.00098s8.66699 -2.66699 12 -8l30 -46l-169 -103c-5.33301 -3.33301 -9.66602 -2.33301 -12.999 3l-11 17c-3.33301 5.33301 -2.66602 9.66602 2.00098 12.999z" />
    <glyph glyph-name="lacute" unicode="&#x13a;" horiz-adv-x="259" 
d="M72 685l63.999 0.000976562v-540c0 -34.667 7 -59.334 21 -74.001s39.333 -22 76 -22h12v-55h-24c-51.333 0 -89.666 13.667 -114.999 41c-12.667 13.333 -21.5 29 -26.5 47s-7.5 39.333 -7.5 64v539zM173.999 868.001c4 4 8.33105 6.00098 12.998 6.00098
s8.66699 -2.66699 12 -8l30 -46l-169 -103c-5.33301 -3.33301 -9.66602 -2.33301 -12.999 3l-11 17c-3.33301 5.33301 -2.66602 9.66602 2.00098 12.999z" />
    <glyph glyph-name="Lcommaaccent" unicode="&#x13b;" horiz-adv-x="452" 
d="M71 620h68v-563h289v-57h-339c-12 -0 -18 6.33301 -18 19v601zM231 -46h55.999c8.66699 0 11.667 -4.66699 9 -14l-39 -153c-1.33301 -3.33301 -2.66602 -5.83301 -3.99902 -7.5s-4 -2.5 -8 -2.5h-26c-6.66699 0 -9.66699 3.33301 -9 10z" />
    <glyph glyph-name="lcommaaccent" unicode="&#x13c;" horiz-adv-x="259" 
d="M72 685l63.999 0.000976562v-540c0 -34.667 7 -59.334 21 -74.001s39.333 -22 76 -22h12v-55h-24c-51.333 0 -89.666 13.667 -114.999 41c-12.667 13.333 -21.5 29 -26.5 47s-7.5 39.333 -7.5 64v539zM127.999 -45.999h55.999c8.66699 0 11.667 -4.66699 9 -14l-39 -153
c-1.33301 -3.33301 -2.66602 -5.83301 -3.99902 -7.5s-4 -2.5 -8 -2.5h-26c-6.66699 0 -9.66699 3.33301 -9 10z" />
    <glyph glyph-name="Lcaron" unicode="&#x13d;" horiz-adv-x="452" 
d="M71 620h68v-563h289v-57h-339c-12 -0 -18 6.33301 -18 19v601zM257 620h55.999c8.66699 0 11.667 -4.66699 9 -14l-39 -153c-1.33301 -3.33301 -2.66602 -5.83301 -3.99902 -7.5s-4 -2.5 -8 -2.5h-26c-6.66699 0 -9.66699 3.33301 -9 10z" />
    <glyph glyph-name="lcaron" unicode="&#x13e;" horiz-adv-x="295" 
d="M72 685l63.999 0.000976562v-540c0 -34.667 7 -59.334 21 -74.001s39.333 -22 76 -22h12v-55h-24c-51.333 0 -89.666 13.667 -114.999 41c-12.667 13.333 -21.5 29 -26.5 47s-7.5 39.333 -7.5 64v539zM217.999 685.001h55.999c8.66699 0 11.667 -4.66699 9 -14l-39 -153
c-1.33301 -3.33301 -2.66602 -5.83301 -3.99902 -7.5s-4 -2.5 -8 -2.5h-26c-6.66699 0 -9.66699 3.33301 -9 10z" />
    <glyph glyph-name="Ldot" unicode="&#x13f;" horiz-adv-x="452" 
d="M71 620h68v-563h289v-57h-339c-12 -0 -18 6.33301 -18 19v601zM326 273c-13.333 0 -25.166 4.66699 -35.499 14s-15.5 21.666 -15.5 36.999c0 14.667 5.16699 26.834 15.5 36.501s22.166 14.5 35.499 14.5s25.166 -4.83301 35.499 -14.5s15.5 -21.834 15.5 -36.501
c0 -15.333 -5.16699 -27.666 -15.5 -36.999s-22.166 -14 -35.499 -14z" />
    <glyph glyph-name="ldot" unicode="&#x140;" horiz-adv-x="325" 
d="M72 685l63.999 0.000976562v-540c0 -34.667 7 -59.334 21 -74.001s39.333 -22 76 -22h12v-55h-24c-51.333 0 -89.666 13.667 -114.999 41c-12.667 13.333 -21.5 29 -26.5 47s-7.5 39.333 -7.5 64v539zM263.999 259.001c-13.333 0 -25.166 4.66699 -35.499 14
s-15.5 21.666 -15.5 36.999c0 14.667 5.16699 26.834 15.5 36.501s22.166 14.5 35.499 14.5s25.166 -4.83301 35.499 -14.5s15.5 -21.834 15.5 -36.501c0 -15.333 -5.16699 -27.666 -15.5 -36.999s-22.166 -14 -35.499 -14z" />
    <glyph glyph-name="Lslash" unicode="&#x141;" horiz-adv-x="470" 
d="M89 318v302h68v-265l155 85v-64l-155 -85v-234h289v-57h-339c-12 -0 -18 6.33301 -18 19v235l-79 -43v64z" />
    <glyph glyph-name="lslash" unicode="&#x142;" horiz-adv-x="297" 
d="M104 346l-0.000976562 339.001h64v-299l94 58v-64l-94 -58v-177c0 -34.667 7 -59.334 21 -74.001s39.333 -22 76 -22h12v-55h-24c-51.333 0 -89.666 13.667 -114.999 41c-12.667 13.333 -21.5 29 -26.5 47s-7.5 39.333 -7.5 64v136l-80 -49v64z" />
    <glyph glyph-name="Nacute" unicode="&#x143;" horiz-adv-x="615" 
d="M202 418c-17.333 27.333 -31.833 51.167 -43.5 71.5s-20.167 36.166 -25.5 47.499v-537h-62v588c0 14.667 2.66699 23.667 8 27s16 5 32 5h3c13.333 0 24 -1.83301 32 -5.5s15.667 -11.5 23 -23.5l244 -392c16.667 -26 31 -49.667 43 -71s20.667 -37.666 26 -48.999v541
h62v-591c0 -14.667 -2.66699 -23.667 -8 -27s-16 -5 -32 -5h-3c-13.333 0 -23.833 1.83301 -31.5 5.5s-15.167 11.5 -22.5 23.5zM350 827.001c4 4 8.33105 6.00098 12.998 6.00098s8.66699 -2.66699 12 -8l30 -46l-169 -103c-5.33301 -3.33301 -9.66602 -2.33301 -12.999 3
l-11 17c-3.33301 5.33301 -2.66602 9.66602 2.00098 12.999z" />
    <glyph glyph-name="nacute" unicode="&#x144;" horiz-adv-x="518" 
d="M196 442c-7.33301 0 -12.332 -0.5 -14.999 -1.5s-6.66699 -3.16699 -12 -6.5l-34 -25c-4 -3.33301 -6 -7 -6 -11v-398h-64v408c0 9.33301 1.83301 16.833 5.5 22.5s10.167 12.167 19.5 19.5l51 38c8 6 15.333 9.66699 22 11s17.667 2 33 2h104
c27.333 0 50.833 -3.5 70.5 -10.5s35.5 -17.167 47.5 -30.5c24 -25.333 36 -61.333 36 -108v-352h-64v347c0 18 -1.83301 32.833 -5.5 44.5s-9.16699 21.167 -16.5 28.5c-14.667 14.667 -39.334 22 -74.001 22h-98zM322.001 717c4 4 8.33105 6.00098 12.998 6.00098
s8.66699 -2.66699 12 -8l30 -46l-169 -103c-5.33301 -3.33301 -9.66602 -2.33301 -12.999 3l-11 17c-3.33301 5.33301 -2.66602 9.66602 2.00098 12.999z" />
    <glyph glyph-name="Ncommaaccent" unicode="&#x145;" horiz-adv-x="615" 
d="M202 418c-17.333 27.333 -31.833 51.167 -43.5 71.5s-20.167 36.166 -25.5 47.499v-537h-62v588c0 14.667 2.66699 23.667 8 27s16 5 32 5h3c13.333 0 24 -1.83301 32 -5.5s15.667 -11.5 23 -23.5l244 -392c16.667 -26 31 -49.667 43 -71s20.667 -37.666 26 -48.999v541
h62v-591c0 -14.667 -2.66699 -23.667 -8 -27s-16 -5 -32 -5h-3c-13.333 0 -23.833 1.83301 -31.5 5.5s-15.167 11.5 -22.5 23.5zM276 -45.999h55.999c8.66699 0 11.667 -4.66699 9 -14l-39 -153c-1.33301 -3.33301 -2.66602 -5.83301 -3.99902 -7.5s-4 -2.5 -8 -2.5h-26
c-6.66699 0 -9.66699 3.33301 -9 10z" />
    <glyph glyph-name="ncommaaccent" unicode="&#x146;" horiz-adv-x="518" 
d="M196 442c-7.33301 0 -12.332 -0.5 -14.999 -1.5s-6.66699 -3.16699 -12 -6.5l-34 -25c-4 -3.33301 -6 -7 -6 -11v-398h-64v408c0 9.33301 1.83301 16.833 5.5 22.5s10.167 12.167 19.5 19.5l51 38c8 6 15.333 9.66699 22 11s17.667 2 33 2h104
c27.333 0 50.833 -3.5 70.5 -10.5s35.5 -17.167 47.5 -30.5c24 -25.333 36 -61.333 36 -108v-352h-64v347c0 18 -1.83301 32.833 -5.5 44.5s-9.16699 21.167 -16.5 28.5c-14.667 14.667 -39.334 22 -74.001 22h-98zM232.001 -46h55.999c8.66699 0 11.667 -4.66699 9 -14
l-39 -153c-1.33301 -3.33301 -2.66602 -5.83301 -3.99902 -7.5s-4 -2.5 -8 -2.5h-26c-6.66699 0 -9.66699 3.33301 -9 10z" />
    <glyph glyph-name="Ncaron" unicode="&#x147;" horiz-adv-x="615" 
d="M202 418c-17.333 27.333 -31.833 51.167 -43.5 71.5s-20.167 36.166 -25.5 47.499v-537h-62v588c0 14.667 2.66699 23.667 8 27s16 5 32 5h3c13.333 0 24 -1.83301 32 -5.5s15.667 -11.5 23 -23.5l244 -392c16.667 -26 31 -49.667 43 -71s20.667 -37.666 26 -48.999v541
h62v-591c0 -14.667 -2.66699 -23.667 -8 -27s-16 -5 -32 -5h-3c-13.333 0 -23.833 1.83301 -31.5 5.5s-15.167 11.5 -22.5 23.5zM307 686.001c-6.66699 0 -12 1 -16 3s-8.33301 5.66699 -13 11l-111 138h64l83 -103l81 103h64l-111 -138c-4.66699 -5.33301 -9 -9 -13 -11
s-9.66699 -3 -17 -3h-11z" />
    <glyph glyph-name="ncaron" unicode="&#x148;" horiz-adv-x="518" 
d="M196 442c-7.33301 0 -12.332 -0.5 -14.999 -1.5s-6.66699 -3.16699 -12 -6.5l-34 -25c-4 -3.33301 -6 -7 -6 -11v-398h-64v408c0 9.33301 1.83301 16.833 5.5 22.5s10.167 12.167 19.5 19.5l51 38c8 6 15.333 9.66699 22 11s17.667 2 33 2h104
c27.333 0 50.833 -3.5 70.5 -10.5s35.5 -17.167 47.5 -30.5c24 -25.333 36 -61.333 36 -108v-352h-64v347c0 18 -1.83301 32.833 -5.5 44.5s-9.16699 21.167 -16.5 28.5c-14.667 14.667 -39.334 22 -74.001 22h-98zM253.001 576c-6.66699 0 -12 1 -16 3
s-8.33301 5.66699 -13 11l-111 138h64l83 -103l81 103h64l-111 -138c-4.66699 -5.33301 -9 -9 -13 -11s-9.66699 -3 -17 -3h-11z" />
    <glyph glyph-name="napostrophe" unicode="&#x149;" horiz-adv-x="608" 
d="M286 442c-7.33301 0 -12.332 -0.5 -14.999 -1.5s-6.66699 -3.16699 -12 -6.5l-34 -25c-4 -3.33301 -6 -7 -6 -11v-398h-64v408c0 9.33301 1.83301 16.833 5.5 22.5s10.167 12.167 19.5 19.5l51 38c8 6 15.333 9.66699 22 11s17.667 2 33 2h104
c27.333 0 50.833 -3.5 70.5 -10.5s35.5 -17.167 47.5 -30.5c24 -25.333 36 -61.333 36 -108v-352h-64v347c0 18 -1.83301 32.833 -5.5 44.5s-9.16699 21.167 -16.5 28.5c-14.667 14.667 -39.334 22 -74.001 22h-98zM65.001 479c6.66699 22 10.002 38.332 10.002 48.999
c0 6 -1.33301 10.833 -4 14.5s-5.83398 7.16699 -9.50098 10.5s-6.83398 7.33301 -9.50098 12s-4 10.667 -4 18c0 12.667 4.33301 23 13 31s19 12 31 12c13.333 0 24.5 -4.33301 33.5 -13s13.5 -20.667 13.5 -36c0 -11.333 -2 -24.166 -6 -38.499s-11.333 -33.5 -22 -57.5
l-22 -50c-2 -5.33301 -4 -8.5 -6 -9.5s-5 -0.833008 -9 0.5l-12 3c-5.33301 1.33301 -8.5 3 -9.5 5s-0.833008 4.66699 0.5 8z" />
    <glyph glyph-name="Eng" unicode="&#x14a;" horiz-adv-x="615" 
d="M349 -149l35 0.000976562c34.667 0 59.667 7.66699 75 23s23 40 23 74v26l-280 444c-17.333 27.333 -31.833 51.166 -43.5 71.499s-20.167 36.166 -25.5 47.499v-537h-62v588c0 14.667 2.66699 23.667 8 27s16 5 32 5h3c13.333 0 24 -1.83301 32 -5.5
s15.667 -11.5 23 -23.5l244 -392c16.667 -26 31 -49.667 43 -71s20.667 -37.666 26 -48.999v541h62v-670c0 -26 -3.33301 -48 -10 -66s-16 -33.667 -28 -47c-27.333 -28.667 -68 -43 -122 -43h-35v57z" />
    <glyph glyph-name="eng" unicode="&#x14b;" horiz-adv-x="518" 
d="M271 -156l-17.998 53.999h41c33.333 0 57.666 7 72.999 21c8.66699 8 14.667 18.333 18 31s5 27.667 5 45v352c0 18 -1.83301 32.833 -5.5 44.5s-9.16699 21.167 -16.5 28.5c-14.667 14.667 -39.334 22 -74.001 22h-98c-7.33301 0 -12.333 -0.5 -15 -1.5
s-6.66699 -3.16699 -12 -6.5l-34 -25c-4 -3.33301 -6 -7 -6 -11v-398h-64v408c0 9.33301 1.83301 16.833 5.5 22.5s10.167 12.167 19.5 19.5l51 38c8 6 15.333 9.66699 22 11s17.667 2 33 2h104c27.333 0 50.833 -3.5 70.5 -10.5s35.5 -17.167 47.5 -30.5
c24 -25.333 36 -61.333 36 -108v-353c0 -53.333 -12.667 -92.666 -38 -117.999c-24.667 -24.667 -63 -37 -115 -37h-30z" />
    <glyph glyph-name="Omacron" unicode="&#x14c;" horiz-adv-x="577" 
d="M523 150c0 -26 -3.33301 -48 -10 -66s-16 -33.667 -28 -47c-27.333 -28.667 -68 -43 -122 -43h-149c-54 0 -94.667 14.333 -122 43c-12 13.333 -21.333 29 -28 47s-10 40 -10 66v320c0 26 3.33301 48 10 66s16 33.667 28 47c27.333 28.667 68 43 122 43h149
c54 0 94.667 -14.333 122 -43c12 -13.333 21.333 -29 28 -47s10 -40 10 -66v-320zM455 466c0 34 -7.66699 58.667 -23 74c-14 15.333 -38 23 -72 23h-143c-34 0 -58 -7.66699 -72 -23c-15.333 -15.333 -23 -40 -23 -74v-312c0 -34 7.66699 -58.667 23 -74
c14 -15.333 38 -23 72 -23h143c34 0 58 7.66699 72 23c15.333 15.333 23 40 23 74v312zM165 765h246v-53h-246v53z" />
    <glyph glyph-name="omacron" unicode="&#x14d;" horiz-adv-x="510" 
d="M454 143c0 -47.333 -12 -83.333 -36 -108c-12 -13.333 -27.833 -23.5 -47.5 -30.5s-43.167 -10.5 -70.5 -10.5h-90c-53.333 0 -92.666 13.667 -117.999 41c-24 24.667 -36 60.667 -36 108v209c0 46.667 12 82.667 36 108c25.333 27.333 64.666 41 117.999 41h90
c27.333 0 50.833 -3.5 70.5 -10.5s35.5 -17.167 47.5 -30.5c24 -25.333 36 -61.333 36 -108v-209zM390 347c0 18 -1.83301 32.833 -5.5 44.5s-9.16699 21.167 -16.5 28.5c-14.667 14.667 -39.334 22 -74.001 22h-78c-34.667 0 -59.334 -7.33301 -74.001 -22
c-7.33301 -7.33301 -12.833 -16.833 -16.5 -28.5s-5.5 -26.5 -5.5 -44.5v-199c0 -18 1.83301 -32.833 5.5 -44.5s9.16699 -21.167 16.5 -28.5c14.667 -14.667 39.334 -22 74.001 -22h78c34.667 0 59.334 7.33301 74.001 22c7.33301 7.33301 12.833 16.833 16.5 28.5
s5.5 26.5 5.5 44.5v199zM132 655h246v-53h-246v53z" />
    <glyph glyph-name="Obreve" unicode="&#x14e;" horiz-adv-x="577" 
d="M523 150c0 -26 -3.33301 -48 -10 -66s-16 -33.667 -28 -47c-27.333 -28.667 -68 -43 -122 -43h-149c-54 0 -94.667 14.333 -122 43c-12 13.333 -21.333 29 -28 47s-10 40 -10 66v320c0 26 3.33301 48 10 66s16 33.667 28 47c27.333 28.667 68 43 122 43h149
c54 0 94.667 -14.333 122 -43c12 -13.333 21.333 -29 28 -47s10 -40 10 -66v-320zM455 466c0 34 -7.66699 58.667 -23 74c-14 15.333 -38 23 -72 23h-143c-34 0 -58 -7.66699 -72 -23c-15.333 -15.333 -23 -40 -23 -74v-312c0 -34 7.66699 -58.667 23 -74
c14 -15.333 38 -23 72 -23h143c34 0 58 7.66699 72 23c15.333 15.333 23 40 23 74v312zM218 807v-20c0 -11.333 0.833008 -20 2.5 -26s4.5 -11 8.5 -15c7.33301 -7.33301 20 -11 38 -11h42c18 0 30.667 3.66699 38 11c4 4 6.83301 9 8.5 15s2.5 14.667 2.5 26v20h51v-32
c0 -30.667 -7.33301 -52.667 -22 -66c-15.333 -14.667 -39.333 -22 -72 -22h-54c-32.667 0 -56.667 7.33301 -72 22c-14.667 13.333 -22 35.333 -22 66v32h51z" />
    <glyph glyph-name="obreve" unicode="&#x14f;" horiz-adv-x="510" 
d="M454 143c0 -47.333 -12 -83.333 -36 -108c-12 -13.333 -27.833 -23.5 -47.5 -30.5s-43.167 -10.5 -70.5 -10.5h-90c-53.333 0 -92.666 13.667 -117.999 41c-24 24.667 -36 60.667 -36 108v209c0 46.667 12 82.667 36 108c25.333 27.333 64.666 41 117.999 41h90
c27.333 0 50.833 -3.5 70.5 -10.5s35.5 -17.167 47.5 -30.5c24 -25.333 36 -61.333 36 -108v-209zM390 347c0 18 -1.83301 32.833 -5.5 44.5s-9.16699 21.167 -16.5 28.5c-14.667 14.667 -39.334 22 -74.001 22h-78c-34.667 0 -59.334 -7.33301 -74.001 -22
c-7.33301 -7.33301 -12.833 -16.833 -16.5 -28.5s-5.5 -26.5 -5.5 -44.5v-199c0 -18 1.83301 -32.833 5.5 -44.5s9.16699 -21.167 16.5 -28.5c14.667 -14.667 39.334 -22 74.001 -22h78c34.667 0 59.334 7.33301 74.001 22c7.33301 7.33301 12.833 16.833 16.5 28.5
s5.5 26.5 5.5 44.5v199zM185 697v-20c0 -11.333 0.833008 -20 2.5 -26s4.5 -11 8.5 -15c7.33301 -7.33301 20 -11 38 -11h42c18 0 30.667 3.66699 38 11c4 4 6.83301 9 8.5 15s2.5 14.667 2.5 26v20h51v-32c0 -30.667 -7.33301 -52.667 -22 -66
c-15.333 -14.667 -39.333 -22 -72 -22h-54c-32.667 0 -56.667 7.33301 -72 22c-14.667 13.333 -22 35.333 -22 66v32h51z" />
    <glyph glyph-name="Ohungarumlaut" unicode="&#x150;" horiz-adv-x="577" 
d="M523 150c0 -26 -3.33301 -48 -10 -66s-16 -33.667 -28 -47c-27.333 -28.667 -68 -43 -122 -43h-149c-54 0 -94.667 14.333 -122 43c-12 13.333 -21.333 29 -28 47s-10 40 -10 66v320c0 26 3.33301 48 10 66s16 33.667 28 47c27.333 28.667 68 43 122 43h149
c54 0 94.667 -14.333 122 -43c12 -13.333 21.333 -29 28 -47s10 -40 10 -66v-320zM455 466c0 34 -7.66699 58.667 -23 74c-14 15.333 -38 23 -72 23h-143c-34 0 -58 -7.66699 -72 -23c-15.333 -15.333 -23 -40 -23 -74v-312c0 -34 7.66699 -58.667 23 -74
c14 -15.333 38 -23 72 -23h143c34 0 58 7.66699 72 23c15.333 15.333 23 40 23 74v312zM261 838c4.66699 5.33301 8.66699 8.33398 12 9.00098s7.33301 -1.66602 12 -6.99902l35 -39l-152 -127c-4.66699 -3.33301 -9 -3 -13 1l-13 14
c-2.66699 3.33301 -4.16699 5.66602 -4.5 6.99902s1.16699 3.66602 4.5 6.99902zM406 838.001c4.66699 5.33301 8.66699 8.33398 12 9.00098s7.33301 -1.66602 12 -6.99902l35 -39l-152 -127c-4.66699 -3.33301 -9 -3 -13 1l-13 14
c-2.66699 3.33301 -4.16699 5.66602 -4.5 6.99902s1.16699 3.66602 4.5 6.99902z" />
    <glyph glyph-name="ohungarumlaut" unicode="&#x151;" horiz-adv-x="510" 
d="M454 143c0 -47.333 -12 -83.333 -36 -108c-12 -13.333 -27.833 -23.5 -47.5 -30.5s-43.167 -10.5 -70.5 -10.5h-90c-53.333 0 -92.666 13.667 -117.999 41c-24 24.667 -36 60.667 -36 108v209c0 46.667 12 82.667 36 108c25.333 27.333 64.666 41 117.999 41h90
c27.333 0 50.833 -3.5 70.5 -10.5s35.5 -17.167 47.5 -30.5c24 -25.333 36 -61.333 36 -108v-209zM390 347c0 18 -1.83301 32.833 -5.5 44.5s-9.16699 21.167 -16.5 28.5c-14.667 14.667 -39.334 22 -74.001 22h-78c-34.667 0 -59.334 -7.33301 -74.001 -22
c-7.33301 -7.33301 -12.833 -16.833 -16.5 -28.5s-5.5 -26.5 -5.5 -44.5v-199c0 -18 1.83301 -32.833 5.5 -44.5s9.16699 -21.167 16.5 -28.5c14.667 -14.667 39.334 -22 74.001 -22h78c34.667 0 59.334 7.33301 74.001 22c7.33301 7.33301 12.833 16.833 16.5 28.5
s5.5 26.5 5.5 44.5v199zM229 728c4.66699 5.33301 8.66699 8.33398 12 9.00098s7.33301 -1.66602 12 -6.99902l35 -39l-152 -127c-4.66699 -3.33301 -9 -3 -13 1l-13 14c-2.66699 3.33301 -4.16699 5.66602 -4.5 6.99902s1.16699 3.66602 4.5 6.99902zM374 728.001
c4.66699 5.33301 8.66699 8.33398 12 9.00098s7.33301 -1.66602 12 -6.99902l35 -39l-152 -127c-4.66699 -3.33301 -9 -3 -13 1l-13 14c-2.66699 3.33301 -4.16699 5.66602 -4.5 6.99902s1.16699 3.66602 4.5 6.99902z" />
    <glyph glyph-name="OE" unicode="&#x152;" horiz-adv-x="880" 
d="M455 468c0 19.333 -2 34.333 -6 45s-9.66699 19.667 -17 27c-14 15.333 -38 23 -72 23h-143c-34 0 -58 -7.66699 -72 -23c-15.333 -15.333 -23 -40 -23 -74v-312c0 -34 7.66699 -58.667 23 -74c14 -15.333 38 -23 72 -23h143c34 0 58 7.66699 72 23
c15.333 15.333 23 40 23 74v314zM214 -6c-54 0 -94.667 14.3291 -122 42.9961c-12 13.333 -21.333 29 -28 47s-10 40 -10 66v320c0 26 3.33301 48 10 66s16 33.667 28 47c27.333 28.667 68 43 122 43h149c25.333 0 49 -4.66699 71 -14s40.667 -23.666 56 -42.999
c28 34 68.667 51 122 51h209v-57h-203c-34 0 -58 -7.66699 -72 -23c-15.333 -15.333 -23 -38.666 -23 -69.999v-130h248v-57h-248v-133v-6c1.33301 -29.333 9 -50.666 23 -63.999c14 -15.333 38 -23 72 -23h210v-57h-216c-53.333 0 -94 17 -122 51
c-15.333 -19.333 -34 -33.666 -56 -42.999s-45.667 -14 -71 -14h-149z" />
    <glyph glyph-name="oe" unicode="&#x153;" horiz-adv-x="831" 
d="M390 352c0 16.667 -1.83301 30.333 -5.5 41s-9.16699 19.667 -16.5 27c-14.667 14.667 -39.334 22 -74.001 22h-78c-34.667 0 -59.334 -7.33301 -74.001 -22c-7.33301 -7.33301 -12.833 -16.833 -16.5 -28.5s-5.5 -26.5 -5.5 -44.5v-199c0 -18 1.83301 -32.833 5.5 -44.5
s9.16699 -21.167 16.5 -28.5c14.667 -14.667 39.334 -22 74.001 -22h78c34.667 0 59.334 7.33301 74.001 22c7.33301 7.33301 12.833 16.833 16.5 28.5s5.5 26.5 5.5 44.5v204zM454 276.999l255.002 -0.00195312v70c0 18 -1.83301 32.833 -5.5 44.5
s-9.16699 21.167 -16.5 28.5c-14.667 14.667 -39.334 22 -74.001 22h-63c-34.667 0 -59.334 -7.33301 -74.001 -22c-7.33301 -7.33301 -12.833 -16.166 -16.5 -26.499s-5.5 -24.166 -5.5 -41.499v-75zM210.002 -6.00293c-53.333 0 -92.666 13.667 -117.999 41
c-24 24.667 -36 60.667 -36 108v209c0 46.667 12 82.667 36 108c25.333 27.333 64.666 41 117.999 41h90c27.333 0 51 -4 71 -12s37 -20.667 51 -38c14 17.333 31 30 51 38s43.667 12 71 12h75c27.333 0 50.833 -3.5 70.5 -10.5s35.5 -17.167 47.5 -30.5
c24 -25.333 36 -61.333 36 -108v-97c0 -22.667 -9.33301 -34 -28 -34h-291v-78c0 -31.333 7.33301 -54 22 -68c14.667 -14.667 39.334 -22 74.001 -22h84c45.333 0 80.666 12.667 105.999 38l27 -45c-15.333 -17.333 -32.833 -30.333 -52.5 -39s-45.167 -13 -76.5 -13h-94
c-27.333 0 -51 4 -71 12s-37 20.667 -51 38c-14 -17.333 -31 -30 -51 -38s-43.667 -12 -71 -12h-90z" />
    <glyph glyph-name="Racute" unicode="&#x154;" horiz-adv-x="558" 
d="M340 620c53.333 0 93 -13.3359 119 -40.0029c23.333 -24.667 35 -60 35 -106v-118c0 -11.333 -0.333008 -20.666 -1 -27.999s-2 -13.666 -4 -18.999s-5.16699 -10.666 -9.5 -15.999s-9.83301 -11.333 -16.5 -18l-30 -30c-8 -8 -14.667 -13.333 -20 -16l91 -229h-71
l-78 207c-1.33301 4 -3 6.66699 -5 8s-5.66699 2 -11 2h-200v-217h-68v601c0 12.667 6 19 18 19h251zM139 562.997v-291h213c8.66699 0 15 0.833008 19 2.5s9 5.5 15 11.5l25 25c7.33301 7.33301 11.833 12.833 13.5 16.5s2.5 9.5 2.5 17.5v120c0 35.333 -7 60.333 -21 75
c-15.333 15.333 -43 23 -83 23h-184zM337 826.997c4 4 8.33105 6.00098 12.998 6.00098s8.66699 -2.66699 12 -8l30 -46l-169 -103c-5.33301 -3.33301 -9.66602 -2.33301 -12.999 3l-11 17c-3.33301 5.33301 -2.66602 9.66602 2.00098 12.999z" />
    <glyph glyph-name="racute" unicode="&#x155;" horiz-adv-x="326" 
d="M306 501l0.00195312 -59h-82c-34.667 0 -59.334 -7.33301 -74.001 -22c-7.33301 -7.33301 -12.833 -16.833 -16.5 -28.5s-5.5 -26.5 -5.5 -44.5v-347h-64v352c0 46.667 12 82.667 36 108c25.333 27.333 64.666 41 117.999 41h88zM256.002 717
c4 4 8.33105 6.00098 12.998 6.00098s8.66699 -2.66699 12 -8l30 -46l-169 -103c-5.33301 -3.33301 -9.66602 -2.33301 -12.999 3l-11 17c-3.33301 5.33301 -2.66602 9.66602 2.00098 12.999z" />
    <glyph glyph-name="Rcommaaccent" unicode="&#x156;" horiz-adv-x="558" 
d="M340 620c53.333 0 93 -13.3359 119 -40.0029c23.333 -24.667 35 -60 35 -106v-118c0 -11.333 -0.333008 -20.666 -1 -27.999s-2 -13.666 -4 -18.999s-5.16699 -10.666 -9.5 -15.999s-9.83301 -11.333 -16.5 -18l-30 -30c-8 -8 -14.667 -13.333 -20 -16l91 -229h-71
l-78 207c-1.33301 4 -3 6.66699 -5 8s-5.66699 2 -11 2h-200v-217h-68v601c0 12.667 6 19 18 19h251zM139 562.997v-291h213c8.66699 0 15 0.833008 19 2.5s9 5.5 15 11.5l25 25c7.33301 7.33301 11.833 12.833 13.5 16.5s2.5 9.5 2.5 17.5v120c0 35.333 -7 60.333 -21 75
c-15.333 15.333 -43 23 -83 23h-184zM246 -46.0029h55.999c8.66699 0 11.667 -4.66699 9 -14l-39 -153c-1.33301 -3.33301 -2.66602 -5.83301 -3.99902 -7.5s-4 -2.5 -8 -2.5h-26c-6.66699 0 -9.66699 3.33301 -9 10z" />
    <glyph glyph-name="rcommaaccent" unicode="&#x157;" horiz-adv-x="326" 
d="M306 501l0.00195312 -59h-82c-34.667 0 -59.334 -7.33301 -74.001 -22c-7.33301 -7.33301 -12.833 -16.833 -16.5 -28.5s-5.5 -26.5 -5.5 -44.5v-347h-64v352c0 46.667 12 82.667 36 108c25.333 27.333 64.666 41 117.999 41h88zM63.002 -46h55.999
c8.66699 0 11.667 -4.66699 9 -14l-39 -153c-1.33301 -3.33301 -2.66602 -5.83301 -3.99902 -7.5s-4 -2.5 -8 -2.5h-26c-6.66699 0 -9.66699 3.33301 -9 10z" />
    <glyph glyph-name="Rcaron" unicode="&#x158;" horiz-adv-x="558" 
d="M340 620c53.333 0 93 -13.3359 119 -40.0029c23.333 -24.667 35 -60 35 -106v-118c0 -11.333 -0.333008 -20.666 -1 -27.999s-2 -13.666 -4 -18.999s-5.16699 -10.666 -9.5 -15.999s-9.83301 -11.333 -16.5 -18l-30 -30c-8 -8 -14.667 -13.333 -20 -16l91 -229h-71
l-78 207c-1.33301 4 -3 6.66699 -5 8s-5.66699 2 -11 2h-200v-217h-68v601c0 12.667 6 19 18 19h251zM139 562.997v-291h213c8.66699 0 15 0.833008 19 2.5s9 5.5 15 11.5l25 25c7.33301 7.33301 11.833 12.833 13.5 16.5s2.5 9.5 2.5 17.5v120c0 35.333 -7 60.333 -21 75
c-15.333 15.333 -43 23 -83 23h-184zM281 685.997c-6.66699 0 -12 1 -16 3s-8.33301 5.66699 -13 11l-111 138h64l83 -103l81 103h64l-111 -138c-4.66699 -5.33301 -9 -9 -13 -11s-9.66699 -3 -17 -3h-11z" />
    <glyph glyph-name="rcaron" unicode="&#x159;" horiz-adv-x="326" 
d="M306 501l0.00195312 -59h-82c-34.667 0 -59.334 -7.33301 -74.001 -22c-7.33301 -7.33301 -12.833 -16.833 -16.5 -28.5s-5.5 -26.5 -5.5 -44.5v-347h-64v352c0 46.667 12 82.667 36 108c25.333 27.333 64.666 41 117.999 41h88zM201.002 576c-6.66699 0 -12 1 -16 3
s-8.33301 5.66699 -13 11l-111 138h64l83 -103l81 103h64l-111 -138c-4.66699 -5.33301 -9 -9 -13 -11s-9.66699 -3 -17 -3h-11z" />
    <glyph glyph-name="Sacute" unicode="&#x15a;" horiz-adv-x="518" 
d="M192 287c-45.333 6 -79 20.333 -101 43c-21.333 22 -32 57.667 -32 107v36c0 24.667 3.33301 46.167 10 64.5s16 34.166 28 47.499c26 27.333 63 41 111 41h96c34 0 61.833 -4.5 83.5 -13.5s40.834 -23.167 57.501 -42.5l-29 -50c-28.667 30.667 -67.667 46 -117 46h-84
c-33.333 0 -57 -7 -71 -21c-7.33301 -8 -12.666 -18.167 -15.999 -30.5s-5 -26.5 -5 -42.5v-37c0 -14.667 1 -26.5 3 -35.5s6 -16.833 12 -23.5c5.33301 -6 12.5 -11.167 21.5 -15.5s20.833 -7.5 35.5 -9.5l136 -19c45.333 -6 79 -20.333 101 -43
c21.333 -22 32 -57.667 32 -107v-35c0 -47.333 -12.667 -84.666 -38 -111.999c-26 -27.333 -63 -41 -111 -41h-122c-34 0 -61.833 4.5 -83.5 13.5s-40.834 23.167 -57.501 42.5l29 51c14 -15.333 31 -27 51 -35s42 -12 66 -12h110c33.333 0 57 7 71 21
c7.33301 8 12.666 18.167 15.999 30.5s5 26.5 5 42.5v36c0 14.667 -1 26.5 -3 35.5s-6 16.833 -12 23.5c-5.33301 6 -12.5 11.167 -21.5 15.5s-20.833 7.5 -35.5 9.5zM324 827c4 4 8.33105 6.00098 12.998 6.00098s8.66699 -2.66699 12 -8l30 -46l-169 -103
c-5.33301 -3.33301 -9.66602 -2.33301 -12.999 3l-11 17c-3.33301 5.33301 -2.66602 9.66602 2.00098 12.999z" />
    <glyph glyph-name="sacute" unicode="&#x15b;" horiz-adv-x="449" 
d="M245 51c35.333 0 60.334 7.00098 75.001 21.001c13.333 13.333 20 33.666 20 60.999v8c0 20.667 -5.66699 37.334 -17 50.001c-10 11.333 -27.333 18.333 -52 21l-102 13c-21.333 2.66699 -38.5 7 -51.5 13s-24.167 13.667 -33.5 23c-12 12 -20.833 26 -26.5 42
s-8.5 33.333 -8.5 52v5c0 22.667 3.33301 42.5 10 59.5s15.667 31.167 27 42.5c13.333 13.333 30.166 23.166 50.499 29.499s42.5 9.5 66.5 9.5h52c30 0 55.667 -3.66699 77 -11s40 -20 56 -38l-26 -43c-25.333 23.333 -61.666 35 -108.999 35h-46
c-35.333 0 -60.333 -7 -75 -21c-13.333 -13.333 -20 -33.666 -20 -60.999v-6c0 -20.667 5.66699 -37.334 17 -50.001c10 -11.333 27.333 -18.333 52 -21l102 -13c20.667 -2.66699 37.667 -6.83398 51 -12.501s24.666 -13.167 33.999 -22.5c12 -12 20.833 -26.167 26.5 -42.5
s8.5 -33.833 8.5 -52.5v-7c0 -22.667 -3.33301 -42.5 -10 -59.5s-15.667 -31.167 -27 -42.5c-13.333 -13.333 -30.166 -23.166 -50.499 -29.499s-42.5 -9.5 -66.5 -9.5h-75c-30.667 0 -57 3.83301 -79 11.5s-41.333 20.167 -58 37.5l27 43
c25.333 -23.333 61.666 -35 108.999 -35h72zM286.001 717.001c4 4 8.33105 6.00098 12.998 6.00098s8.66699 -2.66699 12 -8l30 -46l-169 -103c-5.33301 -3.33301 -9.66602 -2.33301 -12.999 3l-11 17c-3.33301 5.33301 -2.66602 9.66602 2.00098 12.999z" />
    <glyph glyph-name="Scircumflex" unicode="&#x15c;" horiz-adv-x="518" 
d="M192 287c-45.333 6 -79 20.333 -101 43c-21.333 22 -32 57.667 -32 107v36c0 24.667 3.33301 46.167 10 64.5s16 34.166 28 47.499c26 27.333 63 41 111 41h96c34 0 61.833 -4.5 83.5 -13.5s40.834 -23.167 57.501 -42.5l-29 -50c-28.667 30.667 -67.667 46 -117 46h-84
c-33.333 0 -57 -7 -71 -21c-7.33301 -8 -12.666 -18.167 -15.999 -30.5s-5 -26.5 -5 -42.5v-37c0 -14.667 1 -26.5 3 -35.5s6 -16.833 12 -23.5c5.33301 -6 12.5 -11.167 21.5 -15.5s20.833 -7.5 35.5 -9.5l136 -19c45.333 -6 79 -20.333 101 -43
c21.333 -22 32 -57.667 32 -107v-35c0 -47.333 -12.667 -84.666 -38 -111.999c-26 -27.333 -63 -41 -111 -41h-122c-34 0 -61.833 4.5 -83.5 13.5s-40.834 23.167 -57.501 42.5l29 51c14 -15.333 31 -27 51 -35s42 -12 66 -12h110c33.333 0 57 7 71 21
c7.33301 8 12.666 18.167 15.999 30.5s5 26.5 5 42.5v36c0 14.667 -1 26.5 -3 35.5s-6 16.833 -12 23.5c-5.33301 6 -12.5 11.167 -21.5 15.5s-20.833 7.5 -35.5 9.5zM264 840c7.33301 0 13 -1 17 -3s8.33301 -5.66699 13 -11l111 -138h-64l-81 103l-83 -103h-64l111 138
c4.66699 5.33301 9 9 13 11s9.33301 3 16 3h11z" />
    <glyph glyph-name="scircumflex" unicode="&#x15d;" horiz-adv-x="449" 
d="M245 51c35.333 0 60.334 7.00098 75.001 21.001c13.333 13.333 20 33.666 20 60.999v8c0 20.667 -5.66699 37.334 -17 50.001c-10 11.333 -27.333 18.333 -52 21l-102 13c-21.333 2.66699 -38.5 7 -51.5 13s-24.167 13.667 -33.5 23c-12 12 -20.833 26 -26.5 42
s-8.5 33.333 -8.5 52v5c0 22.667 3.33301 42.5 10 59.5s15.667 31.167 27 42.5c13.333 13.333 30.166 23.166 50.499 29.499s42.5 9.5 66.5 9.5h52c30 0 55.667 -3.66699 77 -11s40 -20 56 -38l-26 -43c-25.333 23.333 -61.666 35 -108.999 35h-46
c-35.333 0 -60.333 -7 -75 -21c-13.333 -13.333 -20 -33.666 -20 -60.999v-6c0 -20.667 5.66699 -37.334 17 -50.001c10 -11.333 27.333 -18.333 52 -21l102 -13c20.667 -2.66699 37.667 -6.83398 51 -12.501s24.666 -13.167 33.999 -22.5c12 -12 20.833 -26.167 26.5 -42.5
s8.5 -33.833 8.5 -52.5v-7c0 -22.667 -3.33301 -42.5 -10 -59.5s-15.667 -31.167 -27 -42.5c-13.333 -13.333 -30.166 -23.166 -50.499 -29.499s-42.5 -9.5 -66.5 -9.5h-75c-30.667 0 -57 3.83301 -79 11.5s-41.333 20.167 -58 37.5l27 43
c25.333 -23.333 61.666 -35 108.999 -35h72zM231.001 730.001c7.33301 0 13 -1 17 -3s8.33301 -5.66699 13 -11l111 -138h-64l-81 103l-83 -103h-64l111 138c4.66699 5.33301 9 9 13 11s9.33301 3 16 3h11z" />
    <glyph glyph-name="Scedilla" unicode="&#x15e;" horiz-adv-x="518" 
d="M222 -178l85.001 59l-81 37c-9.33301 4.66699 -15 10.5 -17 17.5s-1.33301 14.833 2 23.5l14 35h-32c-34 0 -61.833 4.5 -83.5 13.5s-40.834 23.167 -57.501 42.5l29 51c14 -15.333 31 -27 51 -35s42 -12 66 -12h110c33.333 0 57 7 71 21
c7.33301 8 12.666 18.167 15.999 30.5s5 26.5 5 42.5v36c0 14.667 -1 26.5 -3 35.5s-6 16.833 -12 23.5c-5.33301 6 -12.5 11.167 -21.5 15.5s-20.833 7.5 -35.5 9.5l-136 19c-45.333 6 -79 20.333 -101 43c-21.333 22 -32 57.667 -32 107v36
c0 24.667 3.33301 46.167 10 64.5s16 34.166 28 47.499c26 27.333 63 41 111 41h96c34 0 61.833 -4.5 83.5 -13.5s40.834 -23.167 57.501 -42.5l-29 -50c-28.667 30.667 -67.667 46 -117 46h-84c-33.333 0 -57 -7 -71 -21c-7.33301 -8 -12.666 -18.167 -15.999 -30.5
s-5 -26.5 -5 -42.5v-37c0 -14.667 1 -26.5 3 -35.5s6 -16.833 12 -23.5c5.33301 -6 12.5 -11.167 21.5 -15.5s20.833 -7.5 35.5 -9.5l136 -19c45.333 -6 79 -20.333 101 -43c21.333 -22 32 -57.667 32 -107v-35c0 -47.333 -12.667 -84.666 -38 -111.999
c-26 -27.333 -63 -41 -111 -41h-43l-5 -28c-0.666992 -4 0.666016 -7 3.99902 -9l81 -38c8.66699 -4 15 -8.5 19 -13.5s6 -11.5 6 -19.5c0 -14 -7 -25.333 -21 -34l-105 -71z" />
    <glyph glyph-name="scedilla" unicode="&#x15f;" horiz-adv-x="449" 
d="M245 51c35.333 0 60.335 7.00098 75.002 21.001c13.333 13.333 20 33.666 20 60.999v8c0 20.667 -5.66699 37.334 -17 50.001c-10 11.333 -27.333 18.333 -52 21l-102 13c-21.333 2.66699 -38.5 7 -51.5 13s-24.167 13.667 -33.5 23c-12 12 -20.833 26 -26.5 42
s-8.5 33.333 -8.5 52v5c0 22.667 3.33301 42.5 10 59.5s15.667 31.167 27 42.5c13.333 13.333 30.166 23.166 50.499 29.499s42.5 9.5 66.5 9.5h52c30 0 55.667 -3.66699 77 -11s40 -20 56 -38l-26 -43c-25.333 23.333 -61.666 35 -108.999 35h-46
c-35.333 0 -60.333 -7 -75 -21c-13.333 -13.333 -20 -33.666 -20 -60.999v-6c0 -20.667 5.66699 -37.334 17 -50.001c10 -11.333 27.333 -18.333 52 -21l102 -13c20.667 -2.66699 37.667 -6.83398 51 -12.501s24.666 -13.167 33.999 -22.5c12 -12 20.833 -26.167 26.5 -42.5
s8.5 -33.833 8.5 -52.5v-7c0 -22.667 -3.33301 -42.5 -10 -59.5s-15.667 -31.167 -27 -42.5c-13.333 -13.333 -30.166 -23.166 -50.499 -29.499s-42.5 -9.5 -66.5 -9.5h-23l-5 -28c-0.666992 -4 0.666016 -7 3.99902 -9l81 -38c8.66699 -4 15 -8.5 19 -13.5s6 -11.5 6 -19.5
c0 -14 -7 -25.333 -21 -34l-105 -71l-29 41l85 59l-81 37c-9.33301 4.66699 -15 10.5 -17 17.5s-1.33301 14.833 2 23.5l14 35h-5c-30.667 0 -57 3.83301 -79 11.5s-41.333 20.167 -58 37.5l27 43c25.333 -23.333 61.666 -35 108.999 -35h72z" />
    <glyph glyph-name="Scaron" unicode="&#x160;" horiz-adv-x="518" 
d="M192 287c-45.333 6 -79 20.333 -101 43c-21.333 22 -32 57.667 -32 107v36c0 24.667 3.33301 46.167 10 64.5s16 34.166 28 47.499c26 27.333 63 41 111 41h96c34 0 61.833 -4.5 83.5 -13.5s40.834 -23.167 57.501 -42.5l-29 -50c-28.667 30.667 -67.667 46 -117 46h-84
c-33.333 0 -57 -7 -71 -21c-7.33301 -8 -12.666 -18.167 -15.999 -30.5s-5 -26.5 -5 -42.5v-37c0 -14.667 1 -26.5 3 -35.5s6 -16.833 12 -23.5c5.33301 -6 12.5 -11.167 21.5 -15.5s20.833 -7.5 35.5 -9.5l136 -19c45.333 -6 79 -20.333 101 -43
c21.333 -22 32 -57.667 32 -107v-35c0 -47.333 -12.667 -84.666 -38 -111.999c-26 -27.333 -63 -41 -111 -41h-122c-34 0 -61.833 4.5 -83.5 13.5s-40.834 23.167 -57.501 42.5l29 51c14 -15.333 31 -27 51 -35s42 -12 66 -12h110c33.333 0 57 7 71 21
c7.33301 8 12.666 18.167 15.999 30.5s5 26.5 5 42.5v36c0 14.667 -1 26.5 -3 35.5s-6 16.833 -12 23.5c-5.33301 6 -12.5 11.167 -21.5 15.5s-20.833 7.5 -35.5 9.5zM253 686c-6.66699 0 -12 1 -16 3s-8.33301 5.66699 -13 11l-111 138h64l83 -103l81 103h64l-111 -138
c-4.66699 -5.33301 -9 -9 -13 -11s-9.66699 -3 -17 -3h-11z" />
    <glyph glyph-name="scaron" unicode="&#x161;" horiz-adv-x="449" 
d="M245 51c35.333 0 60.334 7.00098 75.001 21.001c13.333 13.333 20 33.666 20 60.999v8c0 20.667 -5.66699 37.334 -17 50.001c-10 11.333 -27.333 18.333 -52 21l-102 13c-21.333 2.66699 -38.5 7 -51.5 13s-24.167 13.667 -33.5 23c-12 12 -20.833 26 -26.5 42
s-8.5 33.333 -8.5 52v5c0 22.667 3.33301 42.5 10 59.5s15.667 31.167 27 42.5c13.333 13.333 30.166 23.166 50.499 29.499s42.5 9.5 66.5 9.5h52c30 0 55.667 -3.66699 77 -11s40 -20 56 -38l-26 -43c-25.333 23.333 -61.666 35 -108.999 35h-46
c-35.333 0 -60.333 -7 -75 -21c-13.333 -13.333 -20 -33.666 -20 -60.999v-6c0 -20.667 5.66699 -37.334 17 -50.001c10 -11.333 27.333 -18.333 52 -21l102 -13c20.667 -2.66699 37.667 -6.83398 51 -12.501s24.666 -13.167 33.999 -22.5c12 -12 20.833 -26.167 26.5 -42.5
s8.5 -33.833 8.5 -52.5v-7c0 -22.667 -3.33301 -42.5 -10 -59.5s-15.667 -31.167 -27 -42.5c-13.333 -13.333 -30.166 -23.166 -50.499 -29.499s-42.5 -9.5 -66.5 -9.5h-75c-30.667 0 -57 3.83301 -79 11.5s-41.333 20.167 -58 37.5l27 43
c25.333 -23.333 61.666 -35 108.999 -35h72zM220.001 576.001c-6.66699 0 -12 1 -16 3s-8.33301 5.66699 -13 11l-111 138h64l83 -103l81 103h64l-111 -138c-4.66699 -5.33301 -9 -9 -13 -11s-9.66699 -3 -17 -3h-11z" />
    <glyph glyph-name="Tcommaaccent" unicode="&#x162;" horiz-adv-x="483" 
d="M275 0h-67v563h-184v57h435v-57h-184v-563zM208 -46h55.999c8.66699 0 11.667 -4.66699 9 -14l-39 -153c-1.33301 -3.33301 -2.66602 -5.83301 -3.99902 -7.5s-4 -2.5 -8 -2.5h-26c-6.66699 0 -9.66699 3.33301 -9 10z" />
    <glyph glyph-name="tcommaaccent" unicode="&#x163;" horiz-adv-x="354" 
d="M243 -6c-53.333 0 -92.668 13.667 -118.001 41c-24 24.667 -36 60.667 -36 108v299h-73v53h73v137h64v-137h149v-53h-149v-294c0 -18 1.83301 -32.833 5.5 -44.5s9.16699 -21.167 16.5 -28.5c14.667 -14.667 39.334 -22 74.001 -22h63v-59h-69zM183.998 -46h55.999
c8.66699 0 11.667 -4.66699 9 -14l-39 -153c-1.33301 -3.33301 -2.66602 -5.83301 -3.99902 -7.5s-4 -2.5 -8 -2.5h-26c-6.66699 0 -9.66699 3.33301 -9 10z" />
    <glyph glyph-name="Tcaron" unicode="&#x164;" horiz-adv-x="483" 
d="M275 0h-67v563h-184v57h435v-57h-184v-563zM235 686c-6.66699 0 -12 1 -16 3s-8.33301 5.66699 -13 11l-111 138h64l83 -103l81 103h64l-111 -138c-4.66699 -5.33301 -9 -9 -13 -11s-9.66699 -3 -17 -3h-11z" />
    <glyph glyph-name="tcaron" unicode="&#x165;" horiz-adv-x="354" 
d="M243 -6c-53.333 0 -92.668 13.667 -118.001 41c-24 24.667 -36 60.667 -36 108v299h-73v53h73v137h64v-137h149v-53h-149v-294c0 -18 1.83301 -32.833 5.5 -44.5s9.16699 -21.167 16.5 -28.5c14.667 -14.667 39.334 -22 74.001 -22h63v-59h-69zM239.998 736h55.999
c8.66699 0 11.667 -4.66699 9 -14l-39 -153c-1.33301 -3.33301 -2.66602 -5.83301 -3.99902 -7.5s-4 -2.5 -8 -2.5h-26c-6.66699 0 -9.66699 3.33301 -9 10z" />
    <glyph glyph-name="Tbar" unicode="&#x166;" horiz-adv-x="483" 
d="M96 338h112v225h-184v57h435v-57h-184v-225h112v-52h-112v-286h-67v286h-112v52z" />
    <glyph glyph-name="tbar" unicode="&#x167;" horiz-adv-x="356" 
d="M91 277l-0.00195312 165h-73v53h73v137h64v-137h149v-53h-149v-165h132v-51h-132v-78c0 -18 1.83301 -32.833 5.5 -44.5s9.16699 -21.167 16.5 -28.5c14.667 -14.667 39.334 -22 74.001 -22h63v-59h-69c-53.333 0 -92.666 13.667 -117.999 41
c-24 24.667 -36 60.667 -36 108v83h-64v51h64z" />
    <glyph glyph-name="Utilde" unicode="&#x168;" horiz-adv-x="583" 
d="M226 -6c-54 0 -94.665 14.3311 -121.998 42.998c-12 13.333 -21.333 29 -28 47s-10 40 -10 66v470h68v-466c0 -34 7.66699 -58.667 23 -74c14 -15.333 38 -23 72 -23h146c7.33301 0 12.666 0.333008 15.999 1s7.66602 2.66699 12.999 6l36 23
c3.33301 2 5.16602 3.5 5.49902 4.5s0.5 3.16699 0.5 6.5v522h67v-537c0 -9.33301 -1.66699 -16.666 -5 -21.999s-10.666 -11.666 -21.999 -18.999l-56 -35c-8.66699 -5.33301 -17 -8.83301 -25 -10.5s-19.667 -2.5 -35 -2.5h-144zM433.002 798.998l24 -32l-36 -31
c-15.333 -12.667 -28.666 -22 -39.999 -28s-23.666 -9 -36.999 -9s-24.5 2.33301 -33.5 7s-17.5 9.66699 -25.5 15s-15.667 10.333 -23 15s-16 7 -26 7c-7.33301 0 -13.5 -1 -18.5 -3s-10.833 -5 -17.5 -9l-50 -32l-24 32l36 32c15.333 13.333 28.666 22.833 39.999 28.5
s23.666 8.5 36.999 8.5c12.667 0 23.667 -2.33301 33 -7s18 -9.66699 26 -15s15.667 -10.333 23 -15s16 -7 26 -7c7.33301 0 13.5 1 18.5 3s10.833 5 17.5 9z" />
    <glyph glyph-name="utilde" unicode="&#x169;" horiz-adv-x="509" 
d="M313 53c7.33301 0 12.3311 0.5 14.998 1.5s6.66699 3.16699 12 6.5l34 25c4 3.33301 6 7 6 11v398h64v-408c0 -9.33301 -1.83301 -16.833 -5.5 -22.5s-10.167 -12.167 -19.5 -19.5l-51 -38c-8 -6 -15.333 -9.66699 -22 -11s-17.667 -2 -33 -2h-95
c-53.333 0 -92.666 13.667 -117.999 41c-24 24.667 -36 60.667 -36 108v352h64v-347c0 -18 1.83301 -32.833 5.5 -44.5s9.16699 -21.167 16.5 -28.5c14.667 -14.667 39.334 -22 74.001 -22h89zM395.998 689l24 -32l-36 -31c-15.333 -12.667 -28.666 -22 -39.999 -28
s-23.666 -9 -36.999 -9s-24.5 2.33301 -33.5 7s-17.5 9.66699 -25.5 15s-15.667 10.333 -23 15s-16 7 -26 7c-7.33301 0 -13.5 -1 -18.5 -3s-10.833 -5 -17.5 -9l-50 -32l-24 32l36 32c15.333 13.333 28.666 22.833 39.999 28.5s23.666 8.5 36.999 8.5
c12.667 0 23.667 -2.33301 33 -7s18 -9.66699 26 -15s15.667 -10.333 23 -15s16 -7 26 -7c7.33301 0 13.5 1 18.5 3s10.833 5 17.5 9z" />
    <glyph glyph-name="Umacron" unicode="&#x16a;" horiz-adv-x="583" 
d="M226 -6c-54 0 -94.665 14.3311 -121.998 42.998c-12 13.333 -21.333 29 -28 47s-10 40 -10 66v470h68v-466c0 -34 7.66699 -58.667 23 -74c14 -15.333 38 -23 72 -23h146c7.33301 0 12.666 0.333008 15.999 1s7.66602 2.66699 12.999 6l36 23
c3.33301 2 5.16602 3.5 5.49902 4.5s0.5 3.16699 0.5 6.5v522h67v-537c0 -9.33301 -1.66699 -16.666 -5 -21.999s-10.666 -11.666 -21.999 -18.999l-56 -35c-8.66699 -5.33301 -17 -8.83301 -25 -10.5s-19.667 -2.5 -35 -2.5h-144zM168.002 764.998h246v-53h-246v53z" />
    <glyph glyph-name="umacron" unicode="&#x16b;" horiz-adv-x="509" 
d="M313 53c7.33301 0 12.3311 0.5 14.998 1.5s6.66699 3.16699 12 6.5l34 25c4 3.33301 6 7 6 11v398h64v-408c0 -9.33301 -1.83301 -16.833 -5.5 -22.5s-10.167 -12.167 -19.5 -19.5l-51 -38c-8 -6 -15.333 -9.66699 -22 -11s-17.667 -2 -33 -2h-95
c-53.333 0 -92.666 13.667 -117.999 41c-24 24.667 -36 60.667 -36 108v352h64v-347c0 -18 1.83301 -32.833 5.5 -44.5s9.16699 -21.167 16.5 -28.5c14.667 -14.667 39.334 -22 74.001 -22h89zM130.998 655h246v-53h-246v53z" />
    <glyph glyph-name="Ubreve" unicode="&#x16c;" horiz-adv-x="583" 
d="M226 -6c-54 0 -94.665 14.3311 -121.998 42.998c-12 13.333 -21.333 29 -28 47s-10 40 -10 66v470h68v-466c0 -34 7.66699 -58.667 23 -74c14 -15.333 38 -23 72 -23h146c7.33301 0 12.666 0.333008 15.999 1s7.66602 2.66699 12.999 6l36 23
c3.33301 2 5.16602 3.5 5.49902 4.5s0.5 3.16699 0.5 6.5v522h67v-537c0 -9.33301 -1.66699 -16.666 -5 -21.999s-10.666 -11.666 -21.999 -18.999l-56 -35c-8.66699 -5.33301 -17 -8.83301 -25 -10.5s-19.667 -2.5 -35 -2.5h-144zM221.002 806.998v-20
c0 -11.333 0.833008 -20 2.5 -26s4.5 -11 8.5 -15c7.33301 -7.33301 20 -11 38 -11h42c18 0 30.667 3.66699 38 11c4 4 6.83301 9 8.5 15s2.5 14.667 2.5 26v20h51v-32c0 -30.667 -7.33301 -52.667 -22 -66c-15.333 -14.667 -39.333 -22 -72 -22h-54
c-32.667 0 -56.667 7.33301 -72 22c-14.667 13.333 -22 35.333 -22 66v32h51z" />
    <glyph glyph-name="ubreve" unicode="&#x16d;" horiz-adv-x="509" 
d="M313 53c7.33301 0 12.3311 0.5 14.998 1.5s6.66699 3.16699 12 6.5l34 25c4 3.33301 6 7 6 11v398h64v-408c0 -9.33301 -1.83301 -16.833 -5.5 -22.5s-10.167 -12.167 -19.5 -19.5l-51 -38c-8 -6 -15.333 -9.66699 -22 -11s-17.667 -2 -33 -2h-95
c-53.333 0 -92.666 13.667 -117.999 41c-24 24.667 -36 60.667 -36 108v352h64v-347c0 -18 1.83301 -32.833 5.5 -44.5s9.16699 -21.167 16.5 -28.5c14.667 -14.667 39.334 -22 74.001 -22h89zM183.998 697v-20c0 -11.333 0.833008 -20 2.5 -26s4.5 -11 8.5 -15
c7.33301 -7.33301 20 -11 38 -11h42c18 0 30.667 3.66699 38 11c4 4 6.83301 9 8.5 15s2.5 14.667 2.5 26v20h51v-32c0 -30.667 -7.33301 -52.667 -22 -66c-15.333 -14.667 -39.333 -22 -72 -22h-54c-32.667 0 -56.667 7.33301 -72 22c-14.667 13.333 -22 35.333 -22 66v32
h51z" />
    <glyph glyph-name="Uring" unicode="&#x16e;" horiz-adv-x="583" 
d="M226 -6c-54 0 -94.665 14.3311 -121.998 42.998c-12 13.333 -21.333 29 -28 47s-10 40 -10 66v470h68v-466c0 -34 7.66699 -58.667 23 -74c14 -15.333 38 -23 72 -23h146c7.33301 0 12.666 0.333008 15.999 1s7.66602 2.66699 12.999 6l36 23
c3.33301 2 5.16602 3.5 5.49902 4.5s0.5 3.16699 0.5 6.5v522h67v-537c0 -9.33301 -1.66699 -16.666 -5 -21.999s-10.666 -11.666 -21.999 -18.999l-56 -35c-8.66699 -5.33301 -17 -8.83301 -25 -10.5s-19.667 -2.5 -35 -2.5h-144zM382.002 735.998
c0 -26 -7.5 -45.167 -22.5 -57.5s-34.167 -18.5 -57.5 -18.5h-22c-23.333 0 -42.5 6.16699 -57.5 18.5s-22.5 31.5 -22.5 57.5v33c0 26 7.5 45.167 22.5 57.5s34.167 18.5 57.5 18.5h22c23.333 0 42.5 -6.16699 57.5 -18.5s22.5 -31.5 22.5 -57.5v-33zM337.002 767.998
c0 23.333 -12.667 35 -38 35h-16c-25.333 0 -38 -11.667 -38 -35v-31c0 -23.333 12.667 -35 38 -35h16c25.333 0 38 11.667 38 35v31z" />
    <glyph glyph-name="uring" unicode="&#x16f;" horiz-adv-x="509" 
d="M313 53c7.33301 0 12.3311 0.5 14.998 1.5s6.66699 3.16699 12 6.5l34 25c4 3.33301 6 7 6 11v398h64v-408c0 -9.33301 -1.83301 -16.833 -5.5 -22.5s-10.167 -12.167 -19.5 -19.5l-51 -38c-8 -6 -15.333 -9.66699 -22 -11s-17.667 -2 -33 -2h-95
c-53.333 0 -92.666 13.667 -117.999 41c-24 24.667 -36 60.667 -36 108v352h64v-347c0 -18 1.83301 -32.833 5.5 -44.5s9.16699 -21.167 16.5 -28.5c14.667 -14.667 39.334 -22 74.001 -22h89zM344.998 626c0 -26 -7.5 -45.167 -22.5 -57.5s-34.167 -18.5 -57.5 -18.5h-22
c-23.333 0 -42.5 6.16699 -57.5 18.5s-22.5 31.5 -22.5 57.5v33c0 26 7.5 45.167 22.5 57.5s34.167 18.5 57.5 18.5h22c23.333 0 42.5 -6.16699 57.5 -18.5s22.5 -31.5 22.5 -57.5v-33zM299.998 658c0 23.333 -12.667 35 -38 35h-16c-25.333 0 -38 -11.667 -38 -35v-31
c0 -23.333 12.667 -35 38 -35h16c25.333 0 38 11.667 38 35v31z" />
    <glyph glyph-name="Uhungarumlaut" unicode="&#x170;" horiz-adv-x="583" 
d="M226 -6c-54 0 -94.665 14.3311 -121.998 42.998c-12 13.333 -21.333 29 -28 47s-10 40 -10 66v470h68v-466c0 -34 7.66699 -58.667 23 -74c14 -15.333 38 -23 72 -23h146c7.33301 0 12.666 0.333008 15.999 1s7.66602 2.66699 12.999 6l36 23
c3.33301 2 5.16602 3.5 5.49902 4.5s0.5 3.16699 0.5 6.5v522h67v-537c0 -9.33301 -1.66699 -16.666 -5 -21.999s-10.666 -11.666 -21.999 -18.999l-56 -35c-8.66699 -5.33301 -17 -8.83301 -25 -10.5s-19.667 -2.5 -35 -2.5h-144zM282.002 837.998
c4.66699 5.33301 8.66699 8.33398 12 9.00098s7.33301 -1.66602 12 -6.99902l35 -39l-152 -127c-4.66699 -3.33301 -9 -3 -13 1l-13 14c-2.66699 3.33301 -4.16699 5.66602 -4.5 6.99902s1.16699 3.66602 4.5 6.99902zM427.002 837.999
c4.66699 5.33301 8.66699 8.33398 12 9.00098s7.33301 -1.66602 12 -6.99902l35 -39l-152 -127c-4.66699 -3.33301 -9 -3 -13 1l-13 14c-2.66699 3.33301 -4.16699 5.66602 -4.5 6.99902s1.16699 3.66602 4.5 6.99902z" />
    <glyph glyph-name="uhungarumlaut" unicode="&#x171;" horiz-adv-x="509" 
d="M313 53c7.33301 0 12.3311 0.5 14.998 1.5s6.66699 3.16699 12 6.5l34 25c4 3.33301 6 7 6 11v398h64v-408c0 -9.33301 -1.83301 -16.833 -5.5 -22.5s-10.167 -12.167 -19.5 -19.5l-51 -38c-8 -6 -15.333 -9.66699 -22 -11s-17.667 -2 -33 -2h-95
c-53.333 0 -92.666 13.667 -117.999 41c-24 24.667 -36 60.667 -36 108v352h64v-347c0 -18 1.83301 -32.833 5.5 -44.5s9.16699 -21.167 16.5 -28.5c14.667 -14.667 39.334 -22 74.001 -22h89zM248.998 728c4.66699 5.33301 8.66699 8.33398 12 9.00098
s7.33301 -1.66602 12 -6.99902l35 -39l-152 -127c-4.66699 -3.33301 -9 -3 -13 1l-13 14c-2.66699 3.33301 -4.16699 5.66602 -4.5 6.99902s1.16699 3.66602 4.5 6.99902zM393.998 728.001c4.66699 5.33301 8.66699 8.33398 12 9.00098s7.33301 -1.66602 12 -6.99902l35 -39
l-152 -127c-4.66699 -3.33301 -9 -3 -13 1l-13 14c-2.66699 3.33301 -4.16699 5.66602 -4.5 6.99902s1.16699 3.66602 4.5 6.99902z" />
    <glyph glyph-name="Uogonek" unicode="&#x172;" horiz-adv-x="583" 
d="M299 -142l81.002 -58.001l-29 -40l-96 68c-12.667 8.66699 -19 18 -19 28c0 7.33301 4 15.666 12 24.999l104 113h-126c-54 0 -94.667 14.333 -122 43c-12 13.333 -21.333 29 -28 47s-10 40 -10 66v470h68v-466c0 -34 7.66699 -58.667 23 -74c14 -15.333 38 -23 72 -23
h146c7.33301 0 12.666 0.333008 15.999 1s7.66602 2.66699 12.999 6l36 23c3.33301 2 5.16602 3.5 5.49902 4.5s0.5 3.16699 0.5 6.5v522h67v-537c0 -9.33301 -1.66699 -16.666 -5 -21.999s-10.666 -11.666 -21.999 -18.999l-47 -29c-7.33301 -4.66699 -13 -8.5 -17 -11.5
s-7.33301 -6.16699 -10 -9.5z" />
    <glyph glyph-name="uogonek" unicode="&#x173;" horiz-adv-x="509" 
d="M218 -6c-53.333 0 -92.666 13.665 -117.999 40.998c-24 24.667 -36 60.667 -36 108v352h64v-347c0 -18 1.83301 -32.833 5.5 -44.5s9.16699 -21.167 16.5 -28.5c14.667 -14.667 39.334 -22 74.001 -22h63c14.667 0 25.5 0.833008 32.5 2.5s15.833 5.16699 26.5 10.5
l28 15c4 2.66699 6 6.33398 6 11.001v403h64v-408c0 -4.66699 -0.333008 -9 -1 -13s-2.33398 -8.33301 -5.00098 -13l-110 -193l81 -58l-29 -40l-96 68c-12 8 -18 16.667 -18 26c0 8 3.66699 17 11 27l79 118c-14 -5.33301 -28.333 -9.16602 -43 -11.499
s-28.334 -3.5 -41.001 -3.5h-54z" />
    </font>
</defs>
</svg>
